{"glyphs":{"0":{"ha":855,"x_min":106,"x_max":749,"o":"m 427 996 q 667 865 585 996 q 749 491 749 734 q 667 115 749 246 q 427 -16 585 -16 q 188 115 269 -16 q 106 491 106 246 q 188 865 106 734 q 427 996 269 996 m 427 900 q 285 804 337 900 q 233 491 233 709 q 258 234 233 328 l 558 837 q 427 900 513 900 m 623 491 q 597 748 623 655 l 298 143 q 427 80 343 80 q 571 177 519 80 q 623 491 623 273 z "},"1":{"ha":855,"x_min":135,"x_max":737,"o":"m 737 98 l 737 0 l 171 0 l 171 98 l 412 98 l 412 851 l 187 714 l 135 800 l 427 981 l 532 981 l 532 98 l 737 98 z "},"2":{"ha":855,"x_min":84,"x_max":702,"o":"m 384 996 q 543 960 476 996 q 644 863 609 925 q 679 723 679 801 q 656 591 679 655 q 581 455 632 526 q 445 298 529 385 q 240 102 361 212 l 702 102 l 687 0 l 104 0 l 104 98 q 331 323 243 231 q 467 481 419 415 q 535 603 516 548 q 553 719 553 659 q 507 849 553 801 q 378 897 461 897 q 259 872 306 897 q 167 792 213 847 l 84 856 q 213 962 142 927 q 384 996 284 996 z "},"3":{"ha":855,"x_min":73,"x_max":715,"o":"m 382 996 q 543 963 475 996 q 647 874 610 929 q 684 751 684 818 q 657 644 684 692 q 588 564 631 595 q 492 523 544 533 q 601 490 550 519 q 683 410 652 462 q 715 283 715 358 q 672 130 715 198 q 553 23 630 62 q 375 -16 476 -16 q 211 15 292 -16 q 73 115 130 46 l 154 180 q 254 107 196 131 q 372 83 312 83 q 532 136 474 83 q 590 283 590 190 q 532 428 590 387 q 387 469 474 469 l 304 469 l 319 563 l 377 563 q 467 582 425 563 q 536 638 509 600 q 563 734 563 676 q 509 858 563 816 q 378 901 455 901 q 266 879 314 901 q 170 811 219 856 l 104 884 q 237 970 167 943 q 382 996 308 996 z "},"4":{"ha":855,"x_min":103,"x_max":753,"o":"m 626 613 l 626 334 l 753 334 l 753 239 l 626 239 l 626 0 l 511 0 l 510 239 l 103 239 l 103 325 l 390 996 l 490 954 l 229 334 l 511 334 l 526 613 l 626 613 z "},"5":{"ha":855,"x_min":110,"x_max":726,"o":"m 694 981 l 676 885 l 288 885 l 288 576 q 374 609 333 600 q 458 618 414 618 q 652 538 578 618 q 726 311 726 457 q 685 139 726 212 q 569 25 644 66 q 394 -16 495 -16 q 236 15 306 -16 q 110 102 167 46 l 184 173 q 395 83 271 83 q 546 141 492 83 q 600 314 600 200 q 577 439 600 393 q 513 504 553 484 q 424 524 473 524 q 347 515 380 524 q 271 491 313 506 l 175 491 l 175 981 l 694 981 z "},"6":{"ha":855,"x_min":113,"x_max":747,"o":"m 478 996 q 582 982 534 996 q 672 939 630 967 l 625 858 q 476 900 556 900 q 300 793 363 900 q 233 506 237 686 q 339 608 280 576 q 469 639 397 639 q 608 605 545 639 q 709 503 672 571 q 747 330 747 434 q 705 144 747 222 q 594 25 664 66 q 439 -16 524 -16 q 248 43 320 -16 q 145 210 177 102 q 113 464 113 318 q 156 746 113 626 q 281 931 199 865 q 478 996 363 996 m 451 541 q 325 502 380 541 q 234 402 271 464 q 286 158 238 236 q 438 80 334 80 q 578 146 531 80 q 625 327 625 212 q 577 494 625 447 q 451 541 529 541 z "},"7":{"ha":855,"x_min":139,"x_max":719,"o":"m 328 -14 l 217 21 l 599 881 l 139 881 l 139 981 l 719 981 l 719 889 l 328 -14 z "},"8":{"ha":855,"x_min":93,"x_max":761,"o":"m 722 747 q 677 623 722 675 q 551 526 633 571 q 704 420 647 486 q 761 263 761 353 q 720 120 761 183 q 603 20 679 56 q 425 -16 528 -16 q 246 20 320 -16 q 132 120 172 57 q 93 261 93 182 q 147 413 93 351 q 290 516 201 475 q 173 606 212 553 q 133 741 133 659 q 161 857 133 808 q 232 936 188 905 q 327 982 276 967 q 427 996 379 996 q 566 970 499 996 q 678 889 634 944 q 722 747 722 834 m 251 739 q 277 651 251 683 q 352 598 303 618 q 467 556 400 578 q 569 635 535 595 q 603 743 603 676 q 557 860 603 817 q 427 904 511 904 q 298 860 344 904 q 251 739 251 817 m 635 261 q 602 366 635 328 q 509 430 568 405 q 373 482 450 456 q 266 403 312 454 q 219 260 219 353 q 271 129 219 177 q 424 80 322 80 q 581 132 526 80 q 635 261 635 184 z "},"9":{"ha":855,"x_min":95,"x_max":732,"o":"m 412 995 q 652 887 573 995 q 732 594 732 778 q 702 343 732 445 q 608 171 672 240 q 446 55 545 102 q 209 -30 347 8 l 182 61 q 409 151 318 99 q 549 282 501 203 q 605 476 598 360 q 506 392 562 425 q 375 360 449 360 q 230 397 293 360 q 131 505 167 434 q 95 673 95 575 q 137 850 95 778 q 252 958 180 922 q 412 995 324 995 m 219 669 q 266 506 219 556 q 397 455 313 455 q 514 489 464 455 q 608 583 564 524 q 558 827 605 756 q 412 898 510 898 q 219 669 219 898 z "},"A":{"ha":855,"x_min":29,"x_max":825,"o":"m 618 250 l 229 250 l 151 0 l 29 0 l 348 981 l 506 981 l 825 0 l 696 0 l 618 250 m 261 353 l 585 353 l 425 877 l 261 353 z "},"Á":{"ha":855,"x_min":29,"x_max":825,"o":"m 618 250 l 229 250 l 151 0 l 29 0 l 348 981 l 506 981 l 825 0 l 696 0 l 618 250 m 261 353 l 585 353 l 425 877 l 261 353 m 544 1291 l 598 1188 l 294 1076 l 262 1140 l 544 1291 z "},"Ă":{"ha":855,"x_min":29,"x_max":825,"o":"m 618 250 l 229 250 l 151 0 l 29 0 l 348 981 l 506 981 l 825 0 l 696 0 l 618 250 m 261 353 l 585 353 l 425 877 l 261 353 m 425 1080 q 283 1127 343 1080 q 214 1251 223 1174 l 297 1269 q 343 1200 312 1226 q 425 1174 374 1174 q 508 1200 474 1174 q 556 1269 541 1226 l 639 1251 q 569 1127 630 1174 q 425 1080 507 1080 z "},"Â":{"ha":855,"x_min":29,"x_max":825,"o":"m 618 250 l 229 250 l 151 0 l 29 0 l 348 981 l 506 981 l 825 0 l 696 0 l 618 250 m 261 353 l 585 353 l 425 877 l 261 353 m 469 1297 l 660 1144 l 608 1083 l 427 1197 l 249 1083 l 195 1144 l 388 1297 l 469 1297 z "},"Ä":{"ha":855,"x_min":29,"x_max":825,"o":"m 618 250 l 229 250 l 151 0 l 29 0 l 348 981 l 506 981 l 825 0 l 696 0 l 618 250 m 261 353 l 585 353 l 425 877 l 261 353 z "},"À":{"ha":855,"x_min":29,"x_max":825,"o":"m 618 250 l 229 250 l 151 0 l 29 0 l 348 981 l 506 981 l 825 0 l 696 0 l 618 250 m 261 353 l 585 353 l 425 877 l 261 353 m 329 1296 l 592 1140 l 556 1076 l 262 1193 l 329 1296 z "},"Ā":{"ha":855,"x_min":29,"x_max":825,"o":"m 618 250 l 229 250 l 151 0 l 29 0 l 348 981 l 506 981 l 825 0 l 696 0 l 618 250 m 261 353 l 585 353 l 425 877 l 261 353 z "},"Ą":{"ha":855,"x_min":29,"x_max":825,"o":"m 618 250 l 229 250 l 151 0 l 29 0 l 348 981 l 506 981 l 825 0 l 696 0 l 618 250 m 261 353 l 585 353 l 425 877 l 261 353 m 749 43 l 767 0 q 656 -60 694 -33 q 604 -113 618 -88 q 590 -163 590 -138 q 608 -213 590 -195 q 670 -231 625 -231 q 759 -222 710 -231 l 746 -317 q 704 -324 724 -321 q 656 -327 684 -327 q 528 -286 575 -327 q 482 -187 482 -246 q 545 -54 482 -112 q 749 43 608 3 z "},"Å":{"ha":855,"x_min":29,"x_max":825,"o":"m 618 250 l 229 250 l 151 0 l 29 0 l 348 981 l 506 981 l 825 0 l 696 0 l 618 250 m 261 353 l 585 353 l 425 877 l 261 353 z "},"Ã":{"ha":855,"x_min":29,"x_max":825,"o":"m 618 250 l 229 250 l 151 0 l 29 0 l 348 981 l 506 981 l 825 0 l 696 0 l 618 250 m 261 353 l 585 353 l 425 877 l 261 353 z "},"Æ":{"ha":855,"x_min":-17,"x_max":865,"o":"m 469 250 l 179 250 l 109 0 l -17 0 l 271 981 l 806 981 l 791 880 l 456 880 l 528 548 l 793 548 l 793 447 l 548 447 l 621 100 l 865 100 l 865 0 l 521 0 l 469 250 m 212 354 l 447 354 l 343 883 l 212 354 z "},"Ǽ":{"ha":855,"x_min":-17,"x_max":865,"o":"m 469 250 l 179 250 l 109 0 l -17 0 l 271 981 l 806 981 l 791 880 l 456 880 l 528 548 l 793 548 l 793 447 l 548 447 l 621 100 l 865 100 l 865 0 l 521 0 l 469 250 m 212 354 l 447 354 l 343 883 l 212 354 m 632 1291 l 686 1188 l 382 1076 l 350 1140 l 632 1291 z "},"B":{"ha":855,"x_min":137,"x_max":769,"o":"m 769 280 q 737 146 769 199 q 652 60 705 92 q 534 14 599 28 q 401 0 469 0 l 137 0 l 137 981 l 379 981 q 505 969 443 981 q 617 929 567 957 q 696 853 667 901 q 726 734 726 806 q 700 626 726 670 q 632 556 674 583 q 543 519 590 530 q 649 485 598 510 q 735 412 701 461 q 769 280 769 363 m 599 727 q 547 846 599 811 q 407 881 496 881 l 261 881 l 261 563 l 419 563 q 552 602 506 563 q 599 727 599 641 m 638 276 q 609 390 638 350 q 533 446 580 430 q 428 462 485 462 l 261 462 l 261 102 l 422 102 q 521 115 471 102 q 604 166 571 128 q 638 276 638 203 z "},"C":{"ha":855,"x_min":90,"x_max":808,"o":"m 510 996 q 671 972 606 996 q 794 901 736 948 l 725 821 q 627 876 679 860 q 519 893 575 893 q 370 855 439 893 q 260 729 302 817 q 219 491 219 641 q 258 256 219 345 q 365 129 298 168 q 516 90 433 90 q 652 115 598 90 q 744 172 706 140 l 808 90 q 692 15 764 47 q 515 -16 620 -16 q 299 42 395 -16 q 147 213 203 100 q 90 491 90 326 q 148 769 90 656 q 301 939 205 882 q 510 996 396 996 z "},"Ć":{"ha":855,"x_min":90,"x_max":808,"o":"m 510 996 q 671 972 606 996 q 794 901 736 948 l 725 821 q 627 876 679 860 q 519 893 575 893 q 370 855 439 893 q 260 729 302 817 q 219 491 219 641 q 258 256 219 345 q 365 129 298 168 q 516 90 433 90 q 652 115 598 90 q 744 172 706 140 l 808 90 q 692 15 764 47 q 515 -16 620 -16 q 299 42 395 -16 q 147 213 203 100 q 90 491 90 326 q 148 769 90 656 q 301 939 205 882 q 510 996 396 996 m 638 1291 l 692 1188 l 388 1076 l 356 1140 l 638 1291 z "},"Č":{"ha":855,"x_min":90,"x_max":808,"o":"m 510 996 q 671 972 606 996 q 794 901 736 948 l 725 821 q 627 876 679 860 q 519 893 575 893 q 370 855 439 893 q 260 729 302 817 q 219 491 219 641 q 258 256 219 345 q 365 129 298 168 q 516 90 433 90 q 652 115 598 90 q 744 172 706 140 l 808 90 q 692 15 764 47 q 515 -16 620 -16 q 299 42 395 -16 q 147 213 203 100 q 90 491 90 326 q 148 769 90 656 q 301 939 205 882 q 510 996 396 996 m 701 1288 l 754 1228 l 562 1075 l 481 1075 l 288 1228 l 342 1288 l 521 1174 l 701 1288 z "},"Ç":{"ha":855,"x_min":90,"x_max":808,"o":"m 510 996 q 671 972 606 996 q 794 901 736 948 l 725 821 q 627 876 679 860 q 519 893 575 893 q 370 855 439 893 q 260 729 302 817 q 219 491 219 641 q 258 256 219 345 q 365 129 298 168 q 516 90 433 90 q 652 115 598 90 q 744 172 706 140 l 808 90 q 692 15 764 47 q 515 -16 620 -16 q 299 42 395 -16 q 147 213 203 100 q 90 491 90 326 q 148 769 90 656 q 301 939 205 882 q 510 996 396 996 z "},"Ĉ":{"ha":855,"x_min":90,"x_max":808,"o":"m 510 996 q 671 972 606 996 q 794 901 736 948 l 725 821 q 627 876 679 860 q 519 893 575 893 q 370 855 439 893 q 260 729 302 817 q 219 491 219 641 q 258 256 219 345 q 365 129 298 168 q 516 90 433 90 q 652 115 598 90 q 744 172 706 140 l 808 90 q 692 15 764 47 q 515 -16 620 -16 q 299 42 395 -16 q 147 213 203 100 q 90 491 90 326 q 148 769 90 656 q 301 939 205 882 q 510 996 396 996 m 562 1297 l 754 1144 l 701 1083 l 521 1197 l 342 1083 l 288 1144 l 481 1297 l 562 1297 z "},"Ċ":{"ha":855,"x_min":90,"x_max":808,"o":"m 510 996 q 671 972 606 996 q 794 901 736 948 l 725 821 q 627 876 679 860 q 519 893 575 893 q 370 855 439 893 q 260 729 302 817 q 219 491 219 641 q 258 256 219 345 q 365 129 298 168 q 516 90 433 90 q 652 115 598 90 q 744 172 706 140 l 808 90 q 692 15 764 47 q 515 -16 620 -16 q 299 42 395 -16 q 147 213 203 100 q 90 491 90 326 q 148 769 90 656 q 301 939 205 882 q 510 996 396 996 z "},"D":{"ha":855,"x_min":119,"x_max":787,"o":"m 787 495 q 747 244 787 341 q 642 94 707 147 q 498 20 576 41 q 344 0 420 0 l 119 0 l 119 981 l 328 981 q 496 962 415 981 q 644 891 578 942 q 748 744 709 839 q 787 495 787 648 m 655 495 q 628 700 655 623 q 557 816 601 777 q 460 867 513 854 q 358 880 408 880 l 242 880 l 242 99 l 359 99 q 464 116 412 99 q 560 175 517 132 q 629 296 603 218 q 655 495 655 373 z "},"Ð":{"ha":855,"x_min":29,"x_max":801,"o":"m 801 495 q 761 244 801 341 q 655 94 721 147 q 512 20 590 41 q 358 0 434 0 l 132 0 l 132 455 l 29 455 l 29 551 l 132 551 l 132 981 l 342 981 q 510 962 428 981 q 657 891 591 942 q 762 744 723 839 q 801 495 801 648 m 481 551 l 481 455 l 256 455 l 256 99 l 373 99 q 478 116 425 99 q 574 175 531 132 q 643 296 617 218 q 669 495 669 373 q 642 700 669 623 q 571 816 615 777 q 474 867 526 854 q 371 880 422 880 l 256 880 l 256 551 l 481 551 z "},"Ď":{"ha":855,"x_min":119,"x_max":787,"o":"m 787 495 q 747 244 787 341 q 642 94 707 147 q 498 20 576 41 q 344 0 420 0 l 119 0 l 119 981 l 328 981 q 496 962 415 981 q 644 891 578 942 q 748 744 709 839 q 787 495 787 648 m 655 495 q 628 700 655 623 q 557 816 601 777 q 460 867 513 854 q 358 880 408 880 l 242 880 l 242 99 l 359 99 q 464 116 412 99 q 560 175 517 132 q 629 296 603 218 q 655 495 655 373 m 584 1288 l 637 1228 l 445 1075 l 365 1075 l 172 1228 l 225 1288 l 404 1174 l 584 1288 z "},"Đ":{"ha":855,"x_min":29,"x_max":801,"o":"m 801 495 q 761 244 801 341 q 655 94 721 147 q 512 20 590 41 q 358 0 434 0 l 132 0 l 132 455 l 29 455 l 29 551 l 132 551 l 132 981 l 342 981 q 510 962 428 981 q 657 891 591 942 q 762 744 723 839 q 801 495 801 648 m 481 551 l 481 455 l 256 455 l 256 99 l 373 99 q 478 116 425 99 q 574 175 531 132 q 643 296 617 218 q 669 495 669 373 q 642 700 669 623 q 571 816 615 777 q 474 867 526 854 q 371 880 422 880 l 256 880 l 256 551 l 481 551 z "},"E":{"ha":855,"x_min":179,"x_max":749,"o":"m 303 880 l 303 549 l 666 549 l 666 447 l 303 447 l 303 99 l 749 99 l 749 0 l 179 0 l 179 981 l 736 981 l 722 880 l 303 880 z "},"É":{"ha":855,"x_min":179,"x_max":749,"o":"m 303 880 l 303 549 l 666 549 l 666 447 l 303 447 l 303 99 l 749 99 l 749 0 l 179 0 l 179 981 l 736 981 l 722 880 l 303 880 m 575 1291 l 629 1188 l 325 1076 l 293 1140 l 575 1291 z "},"Ĕ":{"ha":855,"x_min":179,"x_max":749,"o":"m 303 880 l 303 549 l 666 549 l 666 447 l 303 447 l 303 99 l 749 99 l 749 0 l 179 0 l 179 981 l 736 981 l 722 880 l 303 880 m 454 1080 q 313 1127 373 1080 q 244 1251 253 1174 l 327 1269 q 373 1200 342 1226 q 454 1174 404 1174 q 538 1200 504 1174 q 586 1269 571 1226 l 669 1251 q 599 1127 660 1174 q 454 1080 537 1080 z "},"Ě":{"ha":855,"x_min":179,"x_max":749,"o":"m 303 880 l 303 549 l 666 549 l 666 447 l 303 447 l 303 99 l 749 99 l 749 0 l 179 0 l 179 981 l 736 981 l 722 880 l 303 880 m 637 1288 l 690 1228 l 499 1075 l 418 1075 l 225 1228 l 278 1288 l 457 1174 l 637 1288 z "},"Ê":{"ha":855,"x_min":179,"x_max":749,"o":"m 303 880 l 303 549 l 666 549 l 666 447 l 303 447 l 303 99 l 749 99 l 749 0 l 179 0 l 179 981 l 736 981 l 722 880 l 303 880 m 499 1297 l 690 1144 l 637 1083 l 457 1197 l 278 1083 l 225 1144 l 418 1297 l 499 1297 z "},"Ë":{"ha":855,"x_min":179,"x_max":749,"o":"m 303 880 l 303 549 l 666 549 l 666 447 l 303 447 l 303 99 l 749 99 l 749 0 l 179 0 l 179 981 l 736 981 l 722 880 l 303 880 z "},"Ė":{"ha":855,"x_min":179,"x_max":749,"o":"m 303 880 l 303 549 l 666 549 l 666 447 l 303 447 l 303 99 l 749 99 l 749 0 l 179 0 l 179 981 l 736 981 l 722 880 l 303 880 z "},"È":{"ha":855,"x_min":179,"x_max":749,"o":"m 303 880 l 303 549 l 666 549 l 666 447 l 303 447 l 303 99 l 749 99 l 749 0 l 179 0 l 179 981 l 736 981 l 722 880 l 303 880 m 359 1296 l 622 1140 l 585 1076 l 292 1193 l 359 1296 z "},"Ē":{"ha":855,"x_min":179,"x_max":749,"o":"m 303 880 l 303 549 l 666 549 l 666 447 l 303 447 l 303 99 l 749 99 l 749 0 l 179 0 l 179 981 l 736 981 l 722 880 l 303 880 z "},"Ę":{"ha":855,"x_min":179,"x_max":749,"o":"m 303 880 l 303 549 l 666 549 l 666 447 l 303 447 l 303 99 l 749 99 l 749 0 l 179 0 l 179 981 l 736 981 l 722 880 l 303 880 m 648 43 l 667 0 q 555 -60 593 -33 q 504 -113 517 -88 q 490 -163 490 -138 q 507 -213 490 -195 q 570 -231 525 -231 q 658 -222 610 -231 l 645 -317 q 604 -324 624 -321 q 556 -327 583 -327 q 428 -286 474 -327 q 382 -187 382 -246 q 445 -54 382 -112 q 648 43 508 3 z "},"F":{"ha":855,"x_min":197,"x_max":775,"o":"m 320 880 l 320 536 l 704 536 l 704 437 l 320 437 l 320 0 l 197 0 l 197 981 l 775 981 l 760 880 l 320 880 z "},"G":{"ha":855,"x_min":65,"x_max":767,"o":"m 447 -16 q 168 110 272 -16 q 65 491 65 236 q 99 712 65 618 q 191 870 132 807 q 323 965 249 934 q 475 996 396 996 q 635 969 571 996 q 756 889 698 942 l 681 811 q 476 893 593 893 q 341 855 405 893 q 237 730 277 818 q 197 491 197 642 q 264 182 197 277 q 458 88 330 88 q 645 135 558 88 l 645 434 l 452 434 l 437 536 l 767 536 l 767 69 q 626 8 701 33 q 447 -16 551 -16 z "},"Ğ":{"ha":855,"x_min":65,"x_max":767,"o":"m 447 -16 q 168 110 272 -16 q 65 491 65 236 q 99 712 65 618 q 191 870 132 807 q 323 965 249 934 q 475 996 396 996 q 635 969 571 996 q 756 889 698 942 l 681 811 q 476 893 593 893 q 341 855 405 893 q 237 730 277 818 q 197 491 197 642 q 264 182 197 277 q 458 88 330 88 q 645 135 558 88 l 645 434 l 452 434 l 437 536 l 767 536 l 767 69 q 626 8 701 33 q 447 -16 551 -16 m 467 1080 q 325 1127 385 1080 q 257 1251 266 1174 l 340 1269 q 386 1200 355 1226 q 467 1174 417 1174 q 551 1200 517 1174 q 599 1269 584 1226 l 682 1251 q 611 1127 673 1174 q 467 1080 550 1080 z "},"Ĝ":{"ha":855,"x_min":65,"x_max":767,"o":"m 447 -16 q 168 110 272 -16 q 65 491 65 236 q 99 712 65 618 q 191 870 132 807 q 323 965 249 934 q 475 996 396 996 q 635 969 571 996 q 756 889 698 942 l 681 811 q 476 893 593 893 q 341 855 405 893 q 237 730 277 818 q 197 491 197 642 q 264 182 197 277 q 458 88 330 88 q 645 135 558 88 l 645 434 l 452 434 l 437 536 l 767 536 l 767 69 q 626 8 701 33 q 447 -16 551 -16 m 511 1297 l 703 1144 l 650 1083 l 470 1197 l 291 1083 l 238 1144 l 431 1297 l 511 1297 z "},"Ģ":{"ha":855,"x_min":65,"x_max":767,"o":"m 447 -16 q 168 110 272 -16 q 65 491 65 236 q 99 712 65 618 q 191 870 132 807 q 323 965 249 934 q 475 996 396 996 q 635 969 571 996 q 756 889 698 942 l 681 811 q 476 893 593 893 q 341 855 405 893 q 237 730 277 818 q 197 491 197 642 q 264 182 197 277 q 458 88 330 88 q 645 135 558 88 l 645 434 l 452 434 l 437 536 l 767 536 l 767 69 q 626 8 701 33 q 447 -16 551 -16 m 476 -100 q 530 -122 508 -100 q 553 -177 553 -144 q 531 -255 553 -208 l 460 -407 l 387 -407 l 429 -241 q 398 -177 398 -216 q 421 -122 398 -144 q 476 -100 443 -100 z "},"Ġ":{"ha":855,"x_min":65,"x_max":767,"o":"m 447 -16 q 168 110 272 -16 q 65 491 65 236 q 99 712 65 618 q 191 870 132 807 q 323 965 249 934 q 475 996 396 996 q 635 969 571 996 q 756 889 698 942 l 681 811 q 476 893 593 893 q 341 855 405 893 q 237 730 277 818 q 197 491 197 642 q 264 182 197 277 q 458 88 330 88 q 645 135 558 88 l 645 434 l 452 434 l 437 536 l 767 536 l 767 69 q 626 8 701 33 q 447 -16 551 -16 z "},"H":{"ha":855,"x_min":119,"x_max":736,"o":"m 613 0 l 613 465 l 242 465 l 242 0 l 119 0 l 119 981 l 242 981 l 242 566 l 613 566 l 613 981 l 736 981 l 736 0 l 613 0 z "},"Ħ":{"ha":855,"x_min":3,"x_max":852,"o":"m 852 820 l 852 725 l 737 725 l 737 0 l 613 0 l 613 465 l 241 465 l 241 0 l 118 0 l 118 725 l 3 725 l 3 820 l 118 820 l 118 981 l 241 981 l 241 820 l 613 820 l 613 981 l 737 981 l 737 820 l 852 820 m 241 568 l 613 568 l 613 725 l 241 725 l 241 568 z "},"Ĥ":{"ha":855,"x_min":119,"x_max":736,"o":"m 613 0 l 613 465 l 242 465 l 242 0 l 119 0 l 119 981 l 242 981 l 242 566 l 613 566 l 613 981 l 736 981 l 736 0 l 613 0 m 469 1297 l 660 1144 l 608 1083 l 427 1197 l 249 1083 l 195 1144 l 388 1297 l 469 1297 z "},"I":{"ha":855,"x_min":147,"x_max":708,"o":"m 708 981 l 708 882 l 490 882 l 490 99 l 708 99 l 708 0 l 147 0 l 147 99 l 365 99 l 365 882 l 147 882 l 147 981 l 708 981 z "},"Ĳ":{"ha":855,"x_min":16,"x_max":759,"o":"m 277 -101 q 499 -38 422 -87 q 605 90 576 11 q 634 276 634 170 l 634 878 l 286 878 l 286 102 l 400 102 l 400 0 l 16 0 l 16 102 l 159 102 l 159 878 l 16 878 l 16 981 l 759 981 l 759 268 q 738 107 759 184 q 667 -33 718 30 q 525 -139 616 -96 q 291 -194 434 -181 l 277 -101 z "},"Í":{"ha":855,"x_min":147,"x_max":708,"o":"m 708 981 l 708 882 l 490 882 l 490 99 l 708 99 l 708 0 l 147 0 l 147 99 l 365 99 l 365 882 l 147 882 l 147 981 l 708 981 m 544 1291 l 598 1188 l 294 1076 l 262 1140 l 544 1291 z "},"Ĭ":{"ha":855,"x_min":147,"x_max":708,"o":"m 708 981 l 708 882 l 490 882 l 490 99 l 708 99 l 708 0 l 147 0 l 147 99 l 365 99 l 365 882 l 147 882 l 147 981 l 708 981 m 425 1080 q 283 1127 343 1080 q 214 1251 223 1174 l 297 1269 q 343 1200 312 1226 q 425 1174 374 1174 q 508 1200 474 1174 q 556 1269 541 1226 l 639 1251 q 569 1127 630 1174 q 425 1080 507 1080 z "},"Î":{"ha":855,"x_min":147,"x_max":708,"o":"m 708 981 l 708 882 l 490 882 l 490 99 l 708 99 l 708 0 l 147 0 l 147 99 l 365 99 l 365 882 l 147 882 l 147 981 l 708 981 m 469 1297 l 660 1144 l 608 1083 l 427 1197 l 249 1083 l 195 1144 l 388 1297 l 469 1297 z "},"Ï":{"ha":855,"x_min":147,"x_max":708,"o":"m 708 981 l 708 882 l 490 882 l 490 99 l 708 99 l 708 0 l 147 0 l 147 99 l 365 99 l 365 882 l 147 882 l 147 981 l 708 981 z "},"İ":{"ha":855,"x_min":147,"x_max":708,"o":"m 708 981 l 708 882 l 490 882 l 490 99 l 708 99 l 708 0 l 147 0 l 147 99 l 365 99 l 365 882 l 147 882 l 147 981 l 708 981 z "},"Ì":{"ha":855,"x_min":147,"x_max":708,"o":"m 708 981 l 708 882 l 490 882 l 490 99 l 708 99 l 708 0 l 147 0 l 147 99 l 365 99 l 365 882 l 147 882 l 147 981 l 708 981 m 329 1296 l 592 1140 l 556 1076 l 262 1193 l 329 1296 z "},"Ī":{"ha":855,"x_min":147,"x_max":708,"o":"m 708 981 l 708 882 l 490 882 l 490 99 l 708 99 l 708 0 l 147 0 l 147 99 l 365 99 l 365 882 l 147 882 l 147 981 l 708 981 z "},"Į":{"ha":855,"x_min":147,"x_max":708,"o":"m 708 981 l 708 882 l 490 882 l 490 99 l 708 99 l 708 0 l 147 0 l 147 99 l 365 99 l 365 882 l 147 882 l 147 981 l 708 981 m 472 43 l 490 0 q 379 -60 417 -33 q 327 -113 340 -88 q 313 -163 313 -138 q 331 -213 313 -195 q 393 -231 348 -231 q 481 -222 433 -231 l 469 -317 q 427 -324 447 -321 q 379 -327 407 -327 q 251 -286 298 -327 q 205 -187 205 -246 q 268 -54 205 -112 q 472 43 331 3 z "},"Ĩ":{"ha":855,"x_min":147,"x_max":708,"o":"m 708 981 l 708 882 l 490 882 l 490 99 l 708 99 l 708 0 l 147 0 l 147 99 l 365 99 l 365 882 l 147 882 l 147 981 l 708 981 z "},"J":{"ha":855,"x_min":103,"x_max":707,"o":"m 707 981 l 707 325 q 691 204 707 264 q 637 93 675 143 q 534 14 599 43 q 373 -16 469 -16 q 103 73 222 -16 l 158 155 q 275 100 222 114 q 371 87 328 87 q 528 152 473 87 q 584 333 584 218 l 584 880 l 293 880 l 293 981 l 707 981 z "},"Ĵ":{"ha":855,"x_min":103,"x_max":731,"o":"m 707 981 l 707 325 q 691 204 707 264 q 637 93 675 143 q 534 14 599 43 q 373 -16 469 -16 q 103 73 222 -16 l 158 155 q 275 100 222 114 q 371 87 328 87 q 528 152 473 87 q 584 333 584 218 l 584 880 l 293 880 l 293 981 l 707 981 m 539 1297 l 731 1144 l 678 1083 l 498 1197 l 319 1083 l 266 1144 l 459 1297 l 539 1297 z "},"K":{"ha":855,"x_min":150,"x_max":835,"o":"m 273 0 l 150 0 l 150 981 l 273 981 l 273 0 m 280 524 l 666 981 l 808 981 l 425 531 l 835 0 l 682 0 l 280 524 z "},"Ķ":{"ha":855,"x_min":150,"x_max":835,"o":"m 273 0 l 150 0 l 150 981 l 273 981 l 273 0 m 280 524 l 666 981 l 808 981 l 425 531 l 835 0 l 682 0 l 280 524 z "},"L":{"ha":855,"x_min":193,"x_max":764,"o":"m 193 0 l 193 981 l 317 981 l 317 110 l 764 110 l 750 0 l 193 0 z "},"Ĺ":{"ha":855,"x_min":91,"x_max":764,"o":"m 193 0 l 193 981 l 317 981 l 317 110 l 764 110 l 750 0 l 193 0 m 373 1291 l 427 1188 l 123 1076 l 91 1140 l 373 1291 z "},"Ľ":{"ha":855,"x_min":193,"x_max":764,"o":"m 193 0 l 193 981 l 317 981 l 317 110 l 764 110 l 750 0 l 193 0 m 437 993 l 546 980 l 470 726 l 402 736 l 437 993 z "},"Ļ":{"ha":855,"x_min":193,"x_max":764,"o":"m 193 0 l 193 981 l 317 981 l 317 110 l 764 110 l 750 0 l 193 0 z "},"Ŀ":{"ha":855,"x_min":193,"x_max":764,"o":"m 193 0 l 193 981 l 317 981 l 317 110 l 764 110 l 750 0 l 193 0 m 672 623 q 735 598 711 623 q 759 539 759 574 q 735 478 759 503 q 672 454 711 454 q 609 478 633 454 q 585 539 585 503 q 609 598 585 574 q 672 623 633 623 z "},"Ł":{"ha":855,"x_min":58,"x_max":762,"o":"m 190 0 l 190 382 l 109 331 l 58 412 l 190 494 l 190 981 l 314 981 l 314 571 l 548 716 l 601 636 l 314 459 l 314 110 l 762 110 l 748 0 l 190 0 z "},"M":{"ha":855,"x_min":43,"x_max":811,"o":"m 756 981 l 811 0 l 692 0 l 662 512 q 656 652 658 580 q 654 781 655 723 q 654 868 653 839 l 489 176 l 365 176 l 187 868 q 189 779 189 840 q 189 647 190 719 q 186 514 189 575 l 160 0 l 43 0 l 99 981 l 271 981 l 430 309 l 582 981 l 756 981 z "},"N":{"ha":855,"x_min":119,"x_max":736,"o":"m 563 0 l 217 863 q 222 782 218 841 q 230 645 226 722 q 234 491 234 568 l 234 0 l 119 0 l 119 981 l 286 981 l 637 115 q 632 191 637 135 q 625 324 628 246 q 621 490 621 402 l 621 981 l 736 981 l 736 0 l 563 0 z "},"Ń":{"ha":855,"x_min":119,"x_max":736,"o":"m 563 0 l 217 863 q 222 782 218 841 q 230 645 226 722 q 234 491 234 568 l 234 0 l 119 0 l 119 981 l 286 981 l 637 115 q 632 191 637 135 q 625 324 628 246 q 621 490 621 402 l 621 981 l 736 981 l 736 0 l 563 0 m 543 1291 l 597 1188 l 293 1076 l 261 1140 l 543 1291 z "},"Ň":{"ha":855,"x_min":119,"x_max":736,"o":"m 563 0 l 217 863 q 222 782 218 841 q 230 645 226 722 q 234 491 234 568 l 234 0 l 119 0 l 119 981 l 286 981 l 637 115 q 632 191 637 135 q 625 324 628 246 q 621 490 621 402 l 621 981 l 736 981 l 736 0 l 563 0 m 605 1288 l 658 1228 l 467 1075 l 386 1075 l 193 1228 l 246 1288 l 425 1174 l 605 1288 z "},"Ņ":{"ha":855,"x_min":119,"x_max":736,"o":"m 563 0 l 217 863 q 222 782 218 841 q 230 645 226 722 q 234 491 234 568 l 234 0 l 119 0 l 119 981 l 286 981 l 637 115 q 632 191 637 135 q 625 324 628 246 q 621 490 621 402 l 621 981 l 736 981 l 736 0 l 563 0 z "},"Ñ":{"ha":855,"x_min":119,"x_max":736,"o":"m 563 0 l 217 863 q 222 782 218 841 q 230 645 226 722 q 234 491 234 568 l 234 0 l 119 0 l 119 981 l 286 981 l 637 115 q 632 191 637 135 q 625 324 628 246 q 621 490 621 402 l 621 981 l 736 981 l 736 0 l 563 0 z "},"Ŋ":{"ha":855,"x_min":119,"x_max":736,"o":"m 563 0 l 217 863 q 222 782 218 841 q 230 645 226 722 q 234 491 234 568 l 234 0 l 119 0 l 119 981 l 286 981 l 637 115 q 632 191 637 135 q 625 324 628 246 q 621 490 621 402 l 621 981 l 736 981 l 736 -88 q 679 -249 736 -196 q 529 -303 623 -303 q 434 -286 474 -303 q 369 -250 395 -269 l 416 -168 q 464 -192 441 -183 q 524 -202 488 -202 q 613 -95 613 -202 l 613 0 l 563 0 z "},"O":{"ha":855,"x_min":66,"x_max":788,"o":"m 788 489 q 748 226 788 340 q 627 48 707 113 q 427 -16 547 -16 q 228 47 308 -16 q 107 223 147 110 q 66 488 66 336 q 107 751 66 637 q 228 931 147 866 q 427 996 308 996 q 627 933 547 996 q 748 755 707 870 q 788 489 788 641 m 659 489 q 605 789 659 685 q 427 893 551 893 q 250 788 303 893 q 196 488 196 684 q 251 190 196 292 q 427 88 307 88 q 605 191 551 88 q 659 489 659 293 z "},"Ó":{"ha":855,"x_min":66,"x_max":788,"o":"m 788 489 q 748 226 788 340 q 627 48 707 113 q 427 -16 547 -16 q 228 47 308 -16 q 107 223 147 110 q 66 488 66 336 q 107 751 66 637 q 228 931 147 866 q 427 996 308 996 q 627 933 547 996 q 748 755 707 870 q 788 489 788 641 m 659 489 q 605 789 659 685 q 427 893 551 893 q 250 788 303 893 q 196 488 196 684 q 251 190 196 292 q 427 88 307 88 q 605 191 551 88 q 659 489 659 293 m 544 1291 l 598 1188 l 294 1076 l 262 1140 l 544 1291 z "},"Ŏ":{"ha":855,"x_min":66,"x_max":788,"o":"m 788 489 q 748 226 788 340 q 627 48 707 113 q 427 -16 547 -16 q 228 47 308 -16 q 107 223 147 110 q 66 488 66 336 q 107 751 66 637 q 228 931 147 866 q 427 996 308 996 q 627 933 547 996 q 748 755 707 870 q 788 489 788 641 m 659 489 q 605 789 659 685 q 427 893 551 893 q 250 788 303 893 q 196 488 196 684 q 251 190 196 292 q 427 88 307 88 q 605 191 551 88 q 659 489 659 293 m 425 1080 q 283 1127 343 1080 q 214 1251 223 1174 l 297 1269 q 343 1200 312 1226 q 425 1174 374 1174 q 508 1200 474 1174 q 556 1269 541 1226 l 639 1251 q 569 1127 630 1174 q 425 1080 507 1080 z "},"Ô":{"ha":855,"x_min":66,"x_max":788,"o":"m 788 489 q 748 226 788 340 q 627 48 707 113 q 427 -16 547 -16 q 228 47 308 -16 q 107 223 147 110 q 66 488 66 336 q 107 751 66 637 q 228 931 147 866 q 427 996 308 996 q 627 933 547 996 q 748 755 707 870 q 788 489 788 641 m 659 489 q 605 789 659 685 q 427 893 551 893 q 250 788 303 893 q 196 488 196 684 q 251 190 196 292 q 427 88 307 88 q 605 191 551 88 q 659 489 659 293 m 469 1297 l 660 1144 l 608 1083 l 427 1197 l 249 1083 l 195 1144 l 388 1297 l 469 1297 z "},"Ö":{"ha":855,"x_min":66,"x_max":788,"o":"m 788 489 q 748 226 788 340 q 627 48 707 113 q 427 -16 547 -16 q 228 47 308 -16 q 107 223 147 110 q 66 488 66 336 q 107 751 66 637 q 228 931 147 866 q 427 996 308 996 q 627 933 547 996 q 748 755 707 870 q 788 489 788 641 m 659 489 q 605 789 659 685 q 427 893 551 893 q 250 788 303 893 q 196 488 196 684 q 251 190 196 292 q 427 88 307 88 q 605 191 551 88 q 659 489 659 293 z "},"Ò":{"ha":855,"x_min":66,"x_max":788,"o":"m 788 489 q 748 226 788 340 q 627 48 707 113 q 427 -16 547 -16 q 228 47 308 -16 q 107 223 147 110 q 66 488 66 336 q 107 751 66 637 q 228 931 147 866 q 427 996 308 996 q 627 933 547 996 q 748 755 707 870 q 788 489 788 641 m 659 489 q 605 789 659 685 q 427 893 551 893 q 250 788 303 893 q 196 488 196 684 q 251 190 196 292 q 427 88 307 88 q 605 191 551 88 q 659 489 659 293 m 329 1296 l 592 1140 l 556 1076 l 262 1193 l 329 1296 z "},"Ő":{"ha":855,"x_min":66,"x_max":788,"o":"m 788 489 q 748 226 788 340 q 627 48 707 113 q 427 -16 547 -16 q 228 47 308 -16 q 107 223 147 110 q 66 488 66 336 q 107 751 66 637 q 228 931 147 866 q 427 996 308 996 q 627 933 547 996 q 748 755 707 870 q 788 489 788 641 m 659 489 q 605 789 659 685 q 427 893 551 893 q 250 788 303 893 q 196 488 196 684 q 251 190 196 292 q 427 88 307 88 q 605 191 551 88 q 659 489 659 293 z "},"Ō":{"ha":855,"x_min":66,"x_max":788,"o":"m 788 489 q 748 226 788 340 q 627 48 707 113 q 427 -16 547 -16 q 228 47 308 -16 q 107 223 147 110 q 66 488 66 336 q 107 751 66 637 q 228 931 147 866 q 427 996 308 996 q 627 933 547 996 q 748 755 707 870 q 788 489 788 641 m 659 489 q 605 789 659 685 q 427 893 551 893 q 250 788 303 893 q 196 488 196 684 q 251 190 196 292 q 427 88 307 88 q 605 191 551 88 q 659 489 659 293 z "},"Ø":{"ha":855,"x_min":66,"x_max":788,"o":"m 427 996 q 519 985 476 996 l 565 1144 l 672 1116 l 618 939 q 745 762 702 878 q 788 489 788 645 q 748 226 788 340 q 627 48 707 113 q 427 -16 547 -16 q 337 -6 380 -16 l 291 -157 l 184 -129 l 237 40 q 109 216 152 100 q 66 488 66 332 q 107 751 66 637 q 228 931 147 866 q 427 996 308 996 m 427 892 q 250 788 304 892 q 197 488 197 683 q 217 268 197 353 q 281 140 238 183 l 496 884 q 427 892 466 892 m 658 489 q 573 842 658 759 l 358 97 q 427 88 389 88 q 604 191 551 88 q 658 489 658 293 z "},"Ǿ":{"ha":855,"x_min":66,"x_max":788,"o":"m 427 996 q 519 985 476 996 l 565 1144 l 672 1116 l 618 939 q 745 762 702 878 q 788 489 788 645 q 748 226 788 340 q 627 48 707 113 q 427 -16 547 -16 q 337 -6 380 -16 l 291 -157 l 184 -129 l 237 40 q 109 216 152 100 q 66 488 66 332 q 107 751 66 637 q 228 931 147 866 q 427 996 308 996 m 427 892 q 250 788 304 892 q 197 488 197 683 q 217 268 197 353 q 281 140 238 183 l 496 884 q 427 892 466 892 m 658 489 q 573 842 658 759 l 358 97 q 427 88 389 88 q 604 191 551 88 q 658 489 658 293 m 544 1291 l 598 1188 l 294 1076 l 262 1140 l 544 1291 z "},"Õ":{"ha":855,"x_min":66,"x_max":788,"o":"m 788 489 q 748 226 788 340 q 627 48 707 113 q 427 -16 547 -16 q 228 47 308 -16 q 107 223 147 110 q 66 488 66 336 q 107 751 66 637 q 228 931 147 866 q 427 996 308 996 q 627 933 547 996 q 748 755 707 870 q 788 489 788 641 m 659 489 q 605 789 659 685 q 427 893 551 893 q 250 788 303 893 q 196 488 196 684 q 251 190 196 292 q 427 88 307 88 q 605 191 551 88 q 659 489 659 293 z "},"Œ":{"ha":855,"x_min":-2,"x_max":880,"o":"m 301 996 q 403 981 354 996 l 867 981 l 852 880 l 505 880 q 568 751 544 833 q 597 548 592 670 l 816 548 l 816 447 l 597 447 q 568 236 594 321 q 499 100 543 151 l 880 100 l 880 0 l 399 0 q 351 -12 375 -7 q 301 -16 328 -16 q -2 488 -2 -16 q 74 865 -2 734 q 301 996 150 996 m 301 895 q 172 801 214 895 q 130 488 130 706 q 174 177 130 270 q 301 85 217 85 q 433 178 391 85 q 475 489 475 271 q 434 801 475 707 q 301 895 393 895 z "},"P":{"ha":855,"x_min":165,"x_max":793,"o":"m 793 679 q 745 496 793 565 q 610 395 696 427 q 414 364 525 364 l 288 364 l 288 0 l 165 0 l 165 981 l 415 981 q 692 907 590 981 q 793 679 793 834 m 661 678 q 631 798 661 754 q 549 863 601 843 q 430 882 496 882 l 288 882 l 288 464 l 425 464 q 547 482 494 464 q 631 547 600 501 q 661 678 661 594 z "},"Þ":{"ha":855,"x_min":153,"x_max":791,"o":"m 276 981 l 276 815 l 417 815 q 693 740 594 815 q 791 506 791 665 q 743 321 791 392 q 610 216 695 249 q 416 183 526 183 l 276 183 l 276 0 l 153 0 l 153 981 l 276 981 m 432 717 l 276 717 l 276 282 l 432 282 q 551 302 499 282 q 632 369 603 321 q 662 503 662 417 q 598 667 662 618 q 432 717 534 717 z "},"Q":{"ha":855,"x_min":65,"x_max":844,"o":"m 788 489 q 743 217 788 333 q 585 38 698 100 q 749 -35 689 18 q 844 -195 808 -88 l 714 -246 q 647 -119 684 -171 q 553 -40 609 -67 q 413 -14 498 -14 q 223 49 301 -14 q 105 224 145 111 q 65 488 65 336 q 106 751 65 637 q 227 931 147 866 q 427 996 308 996 q 627 933 546 996 q 748 755 707 870 q 788 489 788 641 m 660 489 q 605 790 660 686 q 427 893 551 893 q 248 789 303 893 q 193 488 193 684 q 250 190 193 292 q 427 88 306 88 q 605 191 551 88 q 660 489 660 293 z "},"R":{"ha":855,"x_min":145,"x_max":817,"o":"m 766 706 q 697 527 766 595 q 526 435 627 459 l 817 0 l 669 0 l 401 421 l 269 421 l 269 0 l 145 0 l 145 981 l 397 981 q 672 911 578 981 q 766 706 766 842 m 633 706 q 579 841 633 800 q 411 882 524 882 l 269 882 l 269 518 l 411 518 q 575 561 516 518 q 633 706 633 604 z "},"Ŕ":{"ha":855,"x_min":145,"x_max":817,"o":"m 766 706 q 697 527 766 595 q 526 435 627 459 l 817 0 l 669 0 l 401 421 l 269 421 l 269 0 l 145 0 l 145 981 l 397 981 q 672 911 578 981 q 766 706 766 842 m 633 706 q 579 841 633 800 q 411 882 524 882 l 269 882 l 269 518 l 411 518 q 575 561 516 518 q 633 706 633 604 m 544 1291 l 598 1188 l 294 1076 l 262 1140 l 544 1291 z "},"Ř":{"ha":855,"x_min":145,"x_max":817,"o":"m 766 706 q 697 527 766 595 q 526 435 627 459 l 817 0 l 669 0 l 401 421 l 269 421 l 269 0 l 145 0 l 145 981 l 397 981 q 672 911 578 981 q 766 706 766 842 m 633 706 q 579 841 633 800 q 411 882 524 882 l 269 882 l 269 518 l 411 518 q 575 561 516 518 q 633 706 633 604 m 608 1288 l 660 1228 l 469 1075 l 388 1075 l 195 1228 l 249 1288 l 427 1174 l 608 1288 z "},"Ŗ":{"ha":855,"x_min":145,"x_max":817,"o":"m 766 706 q 697 527 766 595 q 526 435 627 459 l 817 0 l 669 0 l 401 421 l 269 421 l 269 0 l 145 0 l 145 981 l 397 981 q 672 911 578 981 q 766 706 766 842 m 633 706 q 579 841 633 800 q 411 882 524 882 l 269 882 l 269 518 l 411 518 q 575 561 516 518 q 633 706 633 604 z "},"S":{"ha":855,"x_min":62,"x_max":764,"o":"m 764 271 q 722 122 764 187 q 600 20 680 57 q 406 -16 520 -16 q 211 16 298 -16 q 62 109 124 49 l 135 192 q 252 116 186 144 q 408 88 318 88 q 520 107 468 88 q 604 167 572 127 q 636 269 636 207 q 618 350 636 316 q 552 410 599 384 q 421 461 505 436 q 253 525 324 489 q 144 614 182 561 q 105 744 105 666 q 145 875 105 818 q 257 964 186 932 q 422 996 329 996 q 599 968 524 996 q 736 885 675 939 l 663 804 q 550 872 610 850 q 427 893 489 893 q 288 858 346 893 q 231 749 231 822 q 254 676 231 706 q 330 620 276 645 q 478 567 385 594 q 619 512 554 545 q 724 422 684 479 q 764 271 764 365 z "},"Ś":{"ha":855,"x_min":62,"x_max":764,"o":"m 764 271 q 722 122 764 187 q 600 20 680 57 q 406 -16 520 -16 q 211 16 298 -16 q 62 109 124 49 l 135 192 q 252 116 186 144 q 408 88 318 88 q 520 107 468 88 q 604 167 572 127 q 636 269 636 207 q 618 350 636 316 q 552 410 599 384 q 421 461 505 436 q 253 525 324 489 q 144 614 182 561 q 105 744 105 666 q 145 875 105 818 q 257 964 186 932 q 422 996 329 996 q 599 968 524 996 q 736 885 675 939 l 663 804 q 550 872 610 850 q 427 893 489 893 q 288 858 346 893 q 231 749 231 822 q 254 676 231 706 q 330 620 276 645 q 478 567 385 594 q 619 512 554 545 q 724 422 684 479 q 764 271 764 365 m 552 1291 l 606 1188 l 302 1076 l 270 1140 l 552 1291 z "},"Š":{"ha":855,"x_min":62,"x_max":764,"o":"m 764 271 q 722 122 764 187 q 600 20 680 57 q 406 -16 520 -16 q 211 16 298 -16 q 62 109 124 49 l 135 192 q 252 116 186 144 q 408 88 318 88 q 520 107 468 88 q 604 167 572 127 q 636 269 636 207 q 618 350 636 316 q 552 410 599 384 q 421 461 505 436 q 253 525 324 489 q 144 614 182 561 q 105 744 105 666 q 145 875 105 818 q 257 964 186 932 q 422 996 329 996 q 599 968 524 996 q 736 885 675 939 l 663 804 q 550 872 610 850 q 427 893 489 893 q 288 858 346 893 q 231 749 231 822 q 254 676 231 706 q 330 620 276 645 q 478 567 385 594 q 619 512 554 545 q 724 422 684 479 q 764 271 764 365 m 615 1288 l 668 1228 l 476 1075 l 396 1075 l 203 1228 l 256 1288 l 435 1174 l 615 1288 z "},"Ş":{"ha":855,"x_min":62,"x_max":764,"o":"m 764 271 q 722 122 764 187 q 600 20 680 57 q 406 -16 520 -16 q 211 16 298 -16 q 62 109 124 49 l 135 192 q 252 116 186 144 q 408 88 318 88 q 520 107 468 88 q 604 167 572 127 q 636 269 636 207 q 618 350 636 316 q 552 410 599 384 q 421 461 505 436 q 253 525 324 489 q 144 614 182 561 q 105 744 105 666 q 145 875 105 818 q 257 964 186 932 q 422 996 329 996 q 599 968 524 996 q 736 885 675 939 l 663 804 q 550 872 610 850 q 427 893 489 893 q 288 858 346 893 q 231 749 231 822 q 254 676 231 706 q 330 620 276 645 q 478 567 385 594 q 619 512 554 545 q 724 422 684 479 q 764 271 764 365 z "},"Ŝ":{"ha":855,"x_min":62,"x_max":764,"o":"m 764 271 q 722 122 764 187 q 600 20 680 57 q 406 -16 520 -16 q 211 16 298 -16 q 62 109 124 49 l 135 192 q 252 116 186 144 q 408 88 318 88 q 520 107 468 88 q 604 167 572 127 q 636 269 636 207 q 618 350 636 316 q 552 410 599 384 q 421 461 505 436 q 253 525 324 489 q 144 614 182 561 q 105 744 105 666 q 145 875 105 818 q 257 964 186 932 q 422 996 329 996 q 599 968 524 996 q 736 885 675 939 l 663 804 q 550 872 610 850 q 427 893 489 893 q 288 858 346 893 q 231 749 231 822 q 254 676 231 706 q 330 620 276 645 q 478 567 385 594 q 619 512 554 545 q 724 422 684 479 q 764 271 764 365 m 476 1297 l 668 1144 l 615 1083 l 435 1197 l 256 1083 l 203 1144 l 396 1297 l 476 1297 z "},"Ș":{"ha":855,"x_min":62,"x_max":764,"o":"m 764 271 q 722 122 764 187 q 600 20 680 57 q 406 -16 520 -16 q 211 16 298 -16 q 62 109 124 49 l 135 192 q 252 116 186 144 q 408 88 318 88 q 520 107 468 88 q 604 167 572 127 q 636 269 636 207 q 618 350 636 316 q 552 410 599 384 q 421 461 505 436 q 253 525 324 489 q 144 614 182 561 q 105 744 105 666 q 145 875 105 818 q 257 964 186 932 q 422 996 329 996 q 599 968 524 996 q 736 885 675 939 l 663 804 q 550 872 610 850 q 427 893 489 893 q 288 858 346 893 q 231 749 231 822 q 254 676 231 706 q 330 620 276 645 q 478 567 385 594 q 619 512 554 545 q 724 422 684 479 q 764 271 764 365 z "},"ẞ":{"ha":855,"x_min":105,"x_max":825,"o":"m 414 1005 q 600 977 514 1005 q 764 907 687 949 l 764 838 l 508 560 q 744 473 662 542 q 825 277 825 404 q 787 123 825 187 q 679 25 748 58 q 519 -9 610 -9 q 422 1 465 -9 q 350 25 380 10 l 387 109 q 439 94 411 100 q 509 88 468 88 q 649 135 597 88 q 701 278 701 183 q 625 430 701 381 q 397 488 549 479 l 397 571 l 652 855 q 542 894 600 878 q 418 910 485 910 q 274 861 325 910 q 224 707 224 812 l 224 9 l 105 9 l 105 707 q 185 927 105 849 q 414 1005 266 1005 z "},"T":{"ha":855,"x_min":57,"x_max":797,"o":"m 486 875 l 486 0 l 363 0 l 363 875 l 57 875 l 57 981 l 797 981 l 784 875 l 486 875 z "},"Ŧ":{"ha":855,"x_min":57,"x_max":797,"o":"m 177 499 l 177 595 l 363 595 l 363 875 l 57 875 l 57 981 l 797 981 l 784 875 l 486 875 l 486 595 l 675 595 l 675 499 l 486 499 l 486 0 l 363 0 l 363 499 l 177 499 z "},"Ť":{"ha":855,"x_min":57,"x_max":797,"o":"m 486 875 l 486 0 l 363 0 l 363 875 l 57 875 l 57 981 l 797 981 l 784 875 l 486 875 m 606 1288 l 659 1228 l 467 1075 l 387 1075 l 194 1228 l 247 1288 l 426 1174 l 606 1288 z "},"Ţ":{"ha":855,"x_min":57,"x_max":797,"o":"m 486 875 l 486 0 l 363 0 l 363 875 l 57 875 l 57 981 l 797 981 l 784 875 l 486 875 z "},"Ț":{"ha":855,"x_min":57,"x_max":797,"o":"m 486 875 l 486 0 l 363 0 l 363 875 l 57 875 l 57 981 l 797 981 l 784 875 l 486 875 z "},"U":{"ha":855,"x_min":103,"x_max":751,"o":"m 751 981 l 751 318 q 712 143 751 219 q 598 26 672 68 q 426 -16 525 -16 q 252 26 325 -16 q 142 144 180 68 q 103 318 103 219 l 103 981 l 226 981 l 226 313 q 278 146 226 202 q 426 90 330 90 q 574 146 522 90 q 627 313 627 202 l 627 981 l 751 981 z "},"Ú":{"ha":855,"x_min":103,"x_max":751,"o":"m 751 981 l 751 318 q 712 143 751 219 q 598 26 672 68 q 426 -16 525 -16 q 252 26 325 -16 q 142 144 180 68 q 103 318 103 219 l 103 981 l 226 981 l 226 313 q 278 146 226 202 q 426 90 330 90 q 574 146 522 90 q 627 313 627 202 l 627 981 l 751 981 m 544 1291 l 598 1188 l 294 1076 l 262 1140 l 544 1291 z "},"Ŭ":{"ha":855,"x_min":103,"x_max":751,"o":"m 751 981 l 751 318 q 712 143 751 219 q 598 26 672 68 q 426 -16 525 -16 q 252 26 325 -16 q 142 144 180 68 q 103 318 103 219 l 103 981 l 226 981 l 226 313 q 278 146 226 202 q 426 90 330 90 q 574 146 522 90 q 627 313 627 202 l 627 981 l 751 981 m 425 1080 q 283 1127 343 1080 q 214 1251 223 1174 l 297 1269 q 343 1200 312 1226 q 425 1174 374 1174 q 508 1200 474 1174 q 556 1269 541 1226 l 639 1251 q 569 1127 630 1174 q 425 1080 507 1080 z "},"Û":{"ha":855,"x_min":103,"x_max":751,"o":"m 751 981 l 751 318 q 712 143 751 219 q 598 26 672 68 q 426 -16 525 -16 q 252 26 325 -16 q 142 144 180 68 q 103 318 103 219 l 103 981 l 226 981 l 226 313 q 278 146 226 202 q 426 90 330 90 q 574 146 522 90 q 627 313 627 202 l 627 981 l 751 981 m 469 1297 l 660 1144 l 608 1083 l 427 1197 l 249 1083 l 195 1144 l 388 1297 l 469 1297 z "},"Ü":{"ha":855,"x_min":103,"x_max":751,"o":"m 751 981 l 751 318 q 712 143 751 219 q 598 26 672 68 q 426 -16 525 -16 q 252 26 325 -16 q 142 144 180 68 q 103 318 103 219 l 103 981 l 226 981 l 226 313 q 278 146 226 202 q 426 90 330 90 q 574 146 522 90 q 627 313 627 202 l 627 981 l 751 981 z "},"Ù":{"ha":855,"x_min":103,"x_max":751,"o":"m 751 981 l 751 318 q 712 143 751 219 q 598 26 672 68 q 426 -16 525 -16 q 252 26 325 -16 q 142 144 180 68 q 103 318 103 219 l 103 981 l 226 981 l 226 313 q 278 146 226 202 q 426 90 330 90 q 574 146 522 90 q 627 313 627 202 l 627 981 l 751 981 m 329 1296 l 592 1140 l 556 1076 l 262 1193 l 329 1296 z "},"Ű":{"ha":855,"x_min":103,"x_max":751,"o":"m 751 981 l 751 318 q 712 143 751 219 q 598 26 672 68 q 426 -16 525 -16 q 252 26 325 -16 q 142 144 180 68 q 103 318 103 219 l 103 981 l 226 981 l 226 313 q 278 146 226 202 q 426 90 330 90 q 574 146 522 90 q 627 313 627 202 l 627 981 l 751 981 z "},"Ū":{"ha":855,"x_min":103,"x_max":751,"o":"m 751 981 l 751 318 q 712 143 751 219 q 598 26 672 68 q 426 -16 525 -16 q 252 26 325 -16 q 142 144 180 68 q 103 318 103 219 l 103 981 l 226 981 l 226 313 q 278 146 226 202 q 426 90 330 90 q 574 146 522 90 q 627 313 627 202 l 627 981 l 751 981 z "},"Ų":{"ha":855,"x_min":103,"x_max":751,"o":"m 751 981 l 751 318 q 712 143 751 219 q 598 26 672 68 q 426 -16 525 -16 q 252 26 325 -16 q 142 144 180 68 q 103 318 103 219 l 103 981 l 226 981 l 226 313 q 278 146 226 202 q 426 90 330 90 q 574 146 522 90 q 627 313 627 202 l 627 981 l 751 981 m 516 43 l 535 0 q 423 -60 462 -33 q 372 -113 385 -88 q 358 -163 358 -138 q 376 -213 358 -195 q 438 -231 393 -231 q 526 -222 478 -231 l 514 -317 q 472 -324 492 -321 q 424 -327 452 -327 q 296 -286 343 -327 q 250 -187 250 -246 q 313 -54 250 -112 q 516 43 376 3 z "},"Ů":{"ha":855,"x_min":103,"x_max":751,"o":"m 751 981 l 751 318 q 712 143 751 219 q 598 26 672 68 q 426 -16 525 -16 q 252 26 325 -16 q 142 144 180 68 q 103 318 103 219 l 103 981 l 226 981 l 226 313 q 278 146 226 202 q 426 90 330 90 q 574 146 522 90 q 627 313 627 202 l 627 981 l 751 981 z "},"Ũ":{"ha":855,"x_min":103,"x_max":751,"o":"m 751 981 l 751 318 q 712 143 751 219 q 598 26 672 68 q 426 -16 525 -16 q 252 26 325 -16 q 142 144 180 68 q 103 318 103 219 l 103 981 l 226 981 l 226 313 q 278 146 226 202 q 426 90 330 90 q 574 146 522 90 q 627 313 627 202 l 627 981 l 751 981 z "},"V":{"ha":855,"x_min":35,"x_max":820,"o":"m 430 140 l 695 981 l 820 981 l 491 0 l 363 0 l 35 981 l 168 981 l 430 140 z "},"W":{"ha":855,"x_min":6,"x_max":848,"o":"m 848 981 l 699 0 l 536 0 l 424 740 l 311 0 l 145 0 l 6 981 l 130 981 l 235 136 l 353 867 l 504 867 l 616 136 l 734 981 l 848 981 z "},"Ẃ":{"ha":855,"x_min":6,"x_max":848,"o":"m 848 981 l 699 0 l 536 0 l 424 740 l 311 0 l 145 0 l 6 981 l 130 981 l 235 136 l 353 867 l 504 867 l 616 136 l 734 981 l 848 981 m 544 1291 l 598 1188 l 294 1076 l 262 1140 l 544 1291 z "},"Ŵ":{"ha":855,"x_min":6,"x_max":848,"o":"m 848 981 l 699 0 l 536 0 l 424 740 l 311 0 l 145 0 l 6 981 l 130 981 l 235 136 l 353 867 l 504 867 l 616 136 l 734 981 l 848 981 m 469 1297 l 660 1144 l 608 1083 l 427 1197 l 249 1083 l 195 1144 l 388 1297 l 469 1297 z "},"Ẅ":{"ha":855,"x_min":6,"x_max":848,"o":"m 848 981 l 699 0 l 536 0 l 424 740 l 311 0 l 145 0 l 6 981 l 130 981 l 235 136 l 353 867 l 504 867 l 616 136 l 734 981 l 848 981 z "},"Ẁ":{"ha":855,"x_min":6,"x_max":848,"o":"m 848 981 l 699 0 l 536 0 l 424 740 l 311 0 l 145 0 l 6 981 l 130 981 l 235 136 l 353 867 l 504 867 l 616 136 l 734 981 l 848 981 m 329 1296 l 592 1140 l 556 1076 l 262 1193 l 329 1296 z "},"X":{"ha":855,"x_min":44,"x_max":811,"o":"m 71 981 l 212 981 l 427 604 l 643 981 l 777 981 l 499 529 l 811 0 l 669 0 l 425 443 l 177 0 l 44 0 l 352 523 l 71 981 z "},"Y":{"ha":855,"x_min":33,"x_max":821,"o":"m 490 378 l 490 0 l 365 0 l 365 377 l 33 981 l 170 981 l 430 489 l 693 981 l 821 981 l 490 378 z "},"Ý":{"ha":855,"x_min":33,"x_max":821,"o":"m 490 378 l 490 0 l 365 0 l 365 377 l 33 981 l 170 981 l 430 489 l 693 981 l 821 981 l 490 378 m 549 1291 l 603 1188 l 299 1076 l 267 1140 l 549 1291 z "},"Ŷ":{"ha":855,"x_min":33,"x_max":821,"o":"m 490 378 l 490 0 l 365 0 l 365 377 l 33 981 l 170 981 l 430 489 l 693 981 l 821 981 l 490 378 m 474 1297 l 665 1144 l 613 1083 l 432 1197 l 254 1083 l 200 1144 l 393 1297 l 474 1297 z "},"Ÿ":{"ha":855,"x_min":33,"x_max":821,"o":"m 490 378 l 490 0 l 365 0 l 365 377 l 33 981 l 170 981 l 430 489 l 693 981 l 821 981 l 490 378 z "},"Ỳ":{"ha":855,"x_min":33,"x_max":821,"o":"m 490 378 l 490 0 l 365 0 l 365 377 l 33 981 l 170 981 l 430 489 l 693 981 l 821 981 l 490 378 m 334 1296 l 597 1140 l 561 1076 l 267 1193 l 334 1296 z "},"Z":{"ha":855,"x_min":102,"x_max":753,"o":"m 238 107 l 751 107 l 736 0 l 102 0 l 102 100 l 620 875 l 153 875 l 153 981 l 753 981 l 753 880 l 238 107 z "},"Ź":{"ha":855,"x_min":102,"x_max":753,"o":"m 238 107 l 751 107 l 736 0 l 102 0 l 102 100 l 620 875 l 153 875 l 153 981 l 753 981 l 753 880 l 238 107 m 571 1291 l 625 1188 l 321 1076 l 288 1140 l 571 1291 z "},"Ž":{"ha":855,"x_min":102,"x_max":753,"o":"m 238 107 l 751 107 l 736 0 l 102 0 l 102 100 l 620 875 l 153 875 l 153 981 l 753 981 l 753 880 l 238 107 m 634 1288 l 687 1228 l 495 1075 l 415 1075 l 222 1228 l 275 1288 l 454 1174 l 634 1288 z "},"Ż":{"ha":855,"x_min":102,"x_max":753,"o":"m 238 107 l 751 107 l 736 0 l 102 0 l 102 100 l 620 875 l 153 875 l 153 981 l 753 981 l 753 880 l 238 107 z "},"a":{"ha":855,"x_min":98,"x_max":741,"o":"m 680 164 q 695 98 680 118 q 741 68 710 77 l 712 -16 q 627 15 664 -10 q 575 89 591 39 q 473 10 534 37 q 340 -16 412 -16 q 162 47 227 -16 q 98 215 98 110 q 188 393 98 331 q 449 455 278 455 l 560 455 l 560 518 q 512 633 560 599 q 381 667 465 667 q 294 658 344 667 q 186 628 244 649 l 155 719 q 284 755 223 744 q 400 766 345 766 q 610 700 539 766 q 680 524 680 635 l 680 164 m 370 75 q 476 103 426 75 q 560 181 526 131 l 560 374 l 452 374 q 277 331 328 374 q 226 217 226 288 q 370 75 226 75 z "},"á":{"ha":855,"x_min":98,"x_max":741,"o":"m 680 164 q 695 98 680 118 q 741 68 710 77 l 712 -16 q 627 15 664 -10 q 575 89 591 39 q 473 10 534 37 q 340 -16 412 -16 q 162 47 227 -16 q 98 215 98 110 q 188 393 98 331 q 449 455 278 455 l 560 455 l 560 518 q 512 633 560 599 q 381 667 465 667 q 294 658 344 667 q 186 628 244 649 l 155 719 q 284 755 223 744 q 400 766 345 766 q 610 700 539 766 q 680 524 680 635 l 680 164 m 370 75 q 476 103 426 75 q 560 181 526 131 l 560 374 l 452 374 q 277 331 328 374 q 226 217 226 288 q 370 75 226 75 m 535 1135 l 590 1033 l 293 912 l 256 976 l 535 1135 z "},"ă":{"ha":855,"x_min":98,"x_max":741,"o":"m 680 164 q 695 98 680 118 q 741 68 710 77 l 712 -16 q 627 15 664 -10 q 575 89 591 39 q 473 10 534 37 q 340 -16 412 -16 q 162 47 227 -16 q 98 215 98 110 q 188 393 98 331 q 449 455 278 455 l 560 455 l 560 518 q 512 633 560 599 q 381 667 465 667 q 294 658 344 667 q 186 628 244 649 l 155 719 q 284 755 223 744 q 400 766 345 766 q 610 700 539 766 q 680 524 680 635 l 680 164 m 370 75 q 476 103 426 75 q 560 181 526 131 l 560 374 l 452 374 q 277 331 328 374 q 226 217 226 288 q 370 75 226 75 m 412 897 q 303 928 348 897 q 234 1002 259 958 q 203 1090 209 1047 l 286 1109 q 332 1022 301 1056 q 412 989 363 989 q 497 1022 464 989 q 545 1109 530 1056 l 627 1090 q 596 1002 622 1047 q 524 928 570 958 q 412 897 479 897 z "},"â":{"ha":855,"x_min":98,"x_max":741,"o":"m 680 164 q 695 98 680 118 q 741 68 710 77 l 712 -16 q 627 15 664 -10 q 575 89 591 39 q 473 10 534 37 q 340 -16 412 -16 q 162 47 227 -16 q 98 215 98 110 q 188 393 98 331 q 449 455 278 455 l 560 455 l 560 518 q 512 633 560 599 q 381 667 465 667 q 294 658 344 667 q 186 628 244 649 l 155 719 q 284 755 223 744 q 400 766 345 766 q 610 700 539 766 q 680 524 680 635 l 680 164 m 370 75 q 476 103 426 75 q 560 181 526 131 l 560 374 l 452 374 q 277 331 328 374 q 226 217 226 288 q 370 75 226 75 m 241 896 l 184 955 l 377 1125 l 457 1125 l 649 955 l 595 896 l 417 1025 l 241 896 z "},"ä":{"ha":855,"x_min":98,"x_max":741,"o":"m 680 164 q 695 98 680 118 q 741 68 710 77 l 712 -16 q 627 15 664 -10 q 575 89 591 39 q 473 10 534 37 q 340 -16 412 -16 q 162 47 227 -16 q 98 215 98 110 q 188 393 98 331 q 449 455 278 455 l 560 455 l 560 518 q 512 633 560 599 q 381 667 465 667 q 294 658 344 667 q 186 628 244 649 l 155 719 q 284 755 223 744 q 400 766 345 766 q 610 700 539 766 q 680 524 680 635 l 680 164 m 370 75 q 476 103 426 75 q 560 181 526 131 l 560 374 l 452 374 q 277 331 328 374 q 226 217 226 288 q 370 75 226 75 m 269 924 q 212 945 234 924 q 190 999 190 967 q 212 1054 190 1033 q 269 1076 234 1076 q 323 1054 301 1076 q 345 999 345 1033 q 323 945 345 967 q 269 924 301 924 m 562 924 q 507 945 529 924 q 485 999 485 967 q 507 1054 485 1033 q 562 1076 529 1076 q 618 1054 595 1076 q 640 999 640 1033 q 618 945 640 967 q 562 924 595 924 z "},"à":{"ha":855,"x_min":98,"x_max":741,"o":"m 680 164 q 695 98 680 118 q 741 68 710 77 l 712 -16 q 627 15 664 -10 q 575 89 591 39 q 473 10 534 37 q 340 -16 412 -16 q 162 47 227 -16 q 98 215 98 110 q 188 393 98 331 q 449 455 278 455 l 560 455 l 560 518 q 512 633 560 599 q 381 667 465 667 q 294 658 344 667 q 186 628 244 649 l 155 719 q 284 755 223 744 q 400 766 345 766 q 610 700 539 766 q 680 524 680 635 l 680 164 m 370 75 q 476 103 426 75 q 560 181 526 131 l 560 374 l 452 374 q 277 331 328 374 q 226 217 226 288 q 370 75 226 75 m 539 886 l 251 1019 l 316 1120 l 578 952 l 539 886 z "},"ā":{"ha":855,"x_min":98,"x_max":741,"o":"m 680 164 q 695 98 680 118 q 741 68 710 77 l 712 -16 q 627 15 664 -10 q 575 89 591 39 q 473 10 534 37 q 340 -16 412 -16 q 162 47 227 -16 q 98 215 98 110 q 188 393 98 331 q 449 455 278 455 l 560 455 l 560 518 q 512 633 560 599 q 381 667 465 667 q 294 658 344 667 q 186 628 244 649 l 155 719 q 284 755 223 744 q 400 766 345 766 q 610 700 539 766 q 680 524 680 635 l 680 164 m 370 75 q 476 103 426 75 q 560 181 526 131 l 560 374 l 452 374 q 277 331 328 374 q 226 217 226 288 q 370 75 226 75 m 607 963 l 224 963 l 224 1054 l 607 1054 l 607 963 z "},"ą":{"ha":855,"x_min":98,"x_max":741,"o":"m 680 164 q 695 98 680 118 q 741 68 710 77 l 712 -16 q 627 15 664 -10 q 575 89 591 39 q 473 10 534 37 q 340 -16 412 -16 q 162 47 227 -16 q 98 215 98 110 q 188 393 98 331 q 449 455 278 455 l 560 455 l 560 518 q 512 633 560 599 q 381 667 465 667 q 294 658 344 667 q 186 628 244 649 l 155 719 q 284 755 223 744 q 400 766 345 766 q 610 700 539 766 q 680 524 680 635 l 680 164 m 370 75 q 476 103 426 75 q 560 181 526 131 l 560 374 l 452 374 q 277 331 328 374 q 226 217 226 288 q 370 75 226 75 m 694 27 l 712 -16 q 601 -77 639 -49 q 549 -129 563 -104 q 536 -179 536 -155 q 553 -230 536 -212 q 615 -248 571 -248 q 704 -238 655 -248 l 691 -333 q 649 -340 670 -338 q 601 -343 629 -343 q 474 -303 520 -343 q 427 -203 427 -262 q 490 -71 427 -128 q 694 27 553 -14 z "},"å":{"ha":855,"x_min":98,"x_max":741,"o":"m 680 164 q 695 98 680 118 q 741 68 710 77 l 712 -16 q 627 15 664 -10 q 575 89 591 39 q 473 10 534 37 q 340 -16 412 -16 q 162 47 227 -16 q 98 215 98 110 q 188 393 98 331 q 449 455 278 455 l 560 455 l 560 518 q 512 633 560 599 q 381 667 465 667 q 294 658 344 667 q 186 628 244 649 l 155 719 q 284 755 223 744 q 400 766 345 766 q 610 700 539 766 q 680 524 680 635 l 680 164 m 370 75 q 476 103 426 75 q 560 181 526 131 l 560 374 l 452 374 q 277 331 328 374 q 226 217 226 288 q 370 75 226 75 m 416 1173 q 530 1131 485 1173 q 574 1026 574 1088 q 530 924 574 966 q 416 882 485 882 q 302 924 347 882 q 258 1026 258 966 q 302 1131 258 1088 q 416 1173 347 1173 m 416 1108 q 360 1086 381 1108 q 339 1026 339 1064 q 360 968 339 989 q 416 946 381 946 q 473 968 452 946 q 493 1026 493 989 q 473 1086 493 1064 q 416 1108 452 1108 z "},"ã":{"ha":855,"x_min":98,"x_max":741,"o":"m 680 164 q 695 98 680 118 q 741 68 710 77 l 712 -16 q 627 15 664 -10 q 575 89 591 39 q 473 10 534 37 q 340 -16 412 -16 q 162 47 227 -16 q 98 215 98 110 q 188 393 98 331 q 449 455 278 455 l 560 455 l 560 518 q 512 633 560 599 q 381 667 465 667 q 294 658 344 667 q 186 628 244 649 l 155 719 q 284 755 223 744 q 400 766 345 766 q 610 700 539 766 q 680 524 680 635 l 680 164 m 370 75 q 476 103 426 75 q 560 181 526 131 l 560 374 l 452 374 q 277 331 328 374 q 226 217 226 288 q 370 75 226 75 m 499 938 q 434 955 462 938 q 383 990 407 972 q 333 1007 359 1007 q 292 990 309 1007 q 258 941 275 973 l 182 979 q 244 1064 206 1030 q 334 1099 282 1099 q 400 1082 373 1099 q 450 1048 427 1065 q 499 1031 472 1031 q 575 1093 537 1031 l 650 1055 q 499 938 595 938 z "},"æ":{"ha":855,"x_min":-9,"x_max":864,"o":"m 619 766 q 806 667 747 766 q 864 398 864 569 q 861 331 864 359 l 478 331 q 526 144 488 204 q 639 84 563 84 q 713 99 680 84 q 780 140 745 114 l 835 58 q 745 4 793 25 q 637 -16 698 -16 q 510 17 562 -16 q 418 120 457 51 q 327 15 373 46 q 209 -16 280 -16 q 50 47 109 -16 q -9 215 -9 110 q 69 394 -9 332 q 297 457 147 457 l 361 457 l 361 518 q 327 631 361 596 q 231 666 293 666 q 162 657 194 666 q 83 627 130 647 l 51 718 q 148 753 98 740 q 243 766 197 766 q 369 732 325 766 q 432 641 412 698 q 501 732 454 699 q 619 766 548 766 m 615 667 q 519 613 551 667 q 478 425 487 559 l 747 425 q 717 605 745 543 q 615 667 689 667 m 361 374 l 301 374 q 160 332 199 374 q 120 222 120 291 q 149 113 120 150 q 226 76 178 76 q 309 110 274 76 q 379 209 344 144 q 366 288 370 247 q 361 374 361 330 z "},"ǽ":{"ha":855,"x_min":-9,"x_max":864,"o":"m 619 766 q 806 667 747 766 q 864 398 864 569 q 861 331 864 359 l 478 331 q 526 144 488 204 q 639 84 563 84 q 713 99 680 84 q 780 140 745 114 l 835 58 q 745 4 793 25 q 637 -16 698 -16 q 510 17 562 -16 q 418 120 457 51 q 327 15 373 46 q 209 -16 280 -16 q 50 47 109 -16 q -9 215 -9 110 q 69 394 -9 332 q 297 457 147 457 l 361 457 l 361 518 q 327 631 361 596 q 231 666 293 666 q 162 657 194 666 q 83 627 130 647 l 51 718 q 148 753 98 740 q 243 766 197 766 q 369 732 325 766 q 432 641 412 698 q 501 732 454 699 q 619 766 548 766 m 615 667 q 519 613 551 667 q 478 425 487 559 l 747 425 q 717 605 745 543 q 615 667 689 667 m 361 374 l 301 374 q 160 332 199 374 q 120 222 120 291 q 149 113 120 150 q 226 76 178 76 q 309 110 274 76 q 379 209 344 144 q 366 288 370 247 q 361 374 361 330 m 558 1135 l 614 1033 l 316 912 l 279 976 l 558 1135 z "},"b":{"ha":855,"x_min":143,"x_max":758,"o":"m 263 652 q 358 736 303 707 q 476 766 412 766 q 639 717 577 766 q 729 581 701 669 q 758 375 758 493 q 724 173 758 262 q 624 34 690 85 q 461 -16 558 -16 q 256 78 330 -16 l 248 0 l 143 0 l 143 1052 l 263 1067 l 263 652 m 432 80 q 577 153 526 80 q 627 376 627 226 q 451 670 627 670 q 340 632 388 670 q 263 549 293 595 l 263 177 q 337 106 292 132 q 432 80 381 80 z "},"c":{"ha":855,"x_min":130,"x_max":736,"o":"m 482 87 q 587 105 538 87 q 677 152 636 123 l 736 74 q 618 8 687 32 q 482 -16 548 -16 q 292 32 370 -16 q 172 167 213 80 q 130 372 130 254 q 172 573 130 484 q 292 714 213 662 q 484 766 371 766 q 734 679 627 766 l 676 599 q 482 666 578 666 q 323 593 385 666 q 260 372 260 520 q 323 154 260 222 q 482 87 385 87 z "},"ć":{"ha":855,"x_min":130,"x_max":736,"o":"m 482 87 q 587 105 538 87 q 677 152 636 123 l 736 74 q 618 8 687 32 q 482 -16 548 -16 q 292 32 370 -16 q 172 167 213 80 q 130 372 130 254 q 172 573 130 484 q 292 714 213 662 q 484 766 371 766 q 734 679 627 766 l 676 599 q 482 666 578 666 q 323 593 385 666 q 260 372 260 520 q 323 154 260 222 q 482 87 385 87 m 609 1123 l 665 1021 l 367 900 l 330 964 l 609 1123 z "},"č":{"ha":855,"x_min":130,"x_max":736,"o":"m 482 87 q 587 105 538 87 q 677 152 636 123 l 736 74 q 618 8 687 32 q 482 -16 548 -16 q 292 32 370 -16 q 172 167 213 80 q 130 372 130 254 q 172 573 130 484 q 292 714 213 662 q 484 766 371 766 q 734 679 627 766 l 676 599 q 482 666 578 666 q 323 593 385 666 q 260 372 260 520 q 323 154 260 222 q 482 87 385 87 m 669 1113 l 723 1053 l 531 884 l 451 884 l 258 1053 l 315 1113 l 491 983 l 669 1113 z "},"ç":{"ha":855,"x_min":130,"x_max":736,"o":"m 482 87 q 587 105 538 87 q 677 152 636 123 l 736 74 q 618 8 687 32 q 482 -16 548 -16 q 292 32 370 -16 q 172 167 213 80 q 130 372 130 254 q 172 573 130 484 q 292 714 213 662 q 484 766 371 766 q 734 679 627 766 l 676 599 q 482 666 578 666 q 323 593 385 666 q 260 372 260 520 q 323 154 260 222 q 482 87 385 87 m 541 -200 q 507 -150 541 -162 q 417 -139 474 -139 l 429 23 l 511 23 l 511 -81 q 612 -122 581 -87 q 643 -200 643 -157 q 591 -305 643 -270 q 469 -340 538 -340 q 387 -330 427 -340 q 321 -305 348 -321 l 359 -236 q 405 -252 379 -246 q 455 -259 432 -259 q 517 -245 493 -259 q 541 -200 541 -232 z "},"ĉ":{"ha":855,"x_min":130,"x_max":736,"o":"m 482 87 q 587 105 538 87 q 677 152 636 123 l 736 74 q 618 8 687 32 q 482 -16 548 -16 q 292 32 370 -16 q 172 167 213 80 q 130 372 130 254 q 172 573 130 484 q 292 714 213 662 q 484 766 371 766 q 734 679 627 766 l 676 599 q 482 666 578 666 q 323 593 385 666 q 260 372 260 520 q 323 154 260 222 q 482 87 385 87 m 315 884 l 258 943 l 451 1113 l 531 1113 l 723 943 l 669 884 l 491 1013 l 315 884 z "},"ċ":{"ha":855,"x_min":130,"x_max":736,"o":"m 482 87 q 587 105 538 87 q 677 152 636 123 l 736 74 q 618 8 687 32 q 482 -16 548 -16 q 292 32 370 -16 q 172 167 213 80 q 130 372 130 254 q 172 573 130 484 q 292 714 213 662 q 484 766 371 766 q 734 679 627 766 l 676 599 q 482 666 578 666 q 323 593 385 666 q 260 372 260 520 q 323 154 260 222 q 482 87 385 87 m 489 1089 q 552 1065 528 1089 q 576 1006 576 1041 q 552 945 576 969 q 489 920 528 920 q 426 945 450 920 q 402 1006 402 969 q 426 1065 402 1041 q 489 1089 450 1089 z "},"d":{"ha":855,"x_min":97,"x_max":712,"o":"m 592 1067 l 712 1052 l 712 0 l 607 0 l 595 99 q 499 11 553 39 q 382 -16 444 -16 q 222 33 285 -16 q 127 170 158 82 q 97 374 97 258 q 132 575 97 486 q 233 715 167 664 q 391 766 298 766 q 592 677 516 766 l 592 1067 m 422 670 q 278 596 328 670 q 227 374 227 523 q 407 80 227 80 q 516 116 471 80 q 592 199 562 152 l 592 573 q 518 644 561 619 q 422 670 474 670 z "},"ð":{"ha":855,"x_min":95,"x_max":759,"o":"m 241 801 l 357 921 q 280 950 321 938 q 190 973 239 963 l 217 1067 q 332 1037 279 1053 q 429 996 385 1020 l 528 1102 l 600 1039 l 512 948 q 699 720 640 860 q 759 375 759 580 q 717 168 759 256 q 599 32 675 80 q 420 -16 523 -16 q 257 25 330 -16 q 139 144 183 66 q 95 335 95 222 q 137 519 95 440 q 248 641 179 598 q 398 685 317 685 q 526 660 471 685 q 623 587 582 634 q 555 750 603 677 q 438 873 506 823 l 327 757 l 241 801 m 637 381 q 636 429 637 406 q 633 474 635 452 q 540 559 597 530 q 414 589 483 589 q 317 563 362 589 q 245 482 273 537 q 217 341 217 427 q 274 147 217 214 q 418 80 330 80 q 578 157 519 80 q 637 381 637 233 z "},"ď":{"ha":855,"x_min":56,"x_max":874,"o":"m 551 1067 l 670 1052 l 670 0 l 566 0 l 554 99 q 458 11 512 39 q 341 -16 403 -16 q 180 33 244 -16 q 86 170 117 82 q 56 374 56 258 q 90 575 56 486 q 191 715 125 664 q 350 766 257 766 q 551 677 474 766 l 551 1067 m 381 670 q 236 596 287 670 q 186 374 186 523 q 366 80 186 80 q 475 116 429 80 q 551 199 521 152 l 551 573 q 476 644 520 619 q 381 670 433 670 m 765 1064 l 874 1051 l 798 798 l 730 808 l 765 1064 z "},"đ":{"ha":855,"x_min":100,"x_max":827,"o":"m 715 947 l 827 947 l 827 851 l 715 851 l 715 0 l 610 0 l 598 99 q 502 11 557 39 q 386 -16 448 -16 q 225 33 288 -16 q 131 170 162 82 q 100 374 100 258 q 135 575 100 486 q 236 715 170 664 q 395 766 302 766 q 595 677 519 766 l 595 851 l 351 851 l 351 947 l 595 947 l 595 1067 l 715 1052 l 715 947 m 425 670 q 281 596 332 670 q 231 374 231 523 q 411 80 231 80 q 520 116 474 80 q 595 199 565 152 l 595 573 q 521 644 565 619 q 425 670 477 670 z "},"e":{"ha":855,"x_min":112,"x_max":744,"o":"m 237 333 q 306 143 242 202 q 457 83 370 83 q 561 100 514 83 q 657 151 607 118 l 713 72 q 593 7 661 31 q 455 -16 526 -16 q 269 33 345 -16 q 152 170 192 82 q 112 374 112 258 q 152 576 112 488 q 266 715 192 665 q 439 766 340 766 q 663 667 581 766 q 744 398 744 569 q 743 362 744 379 q 741 333 742 345 l 237 333 m 441 667 q 301 608 358 667 q 238 425 245 549 l 629 425 q 576 606 627 546 q 441 667 526 667 z "},"é":{"ha":855,"x_min":112,"x_max":744,"o":"m 237 333 q 306 143 242 202 q 457 83 370 83 q 561 100 514 83 q 657 151 607 118 l 713 72 q 593 7 661 31 q 455 -16 526 -16 q 269 33 345 -16 q 152 170 192 82 q 112 374 112 258 q 152 576 112 488 q 266 715 192 665 q 439 766 340 766 q 663 667 581 766 q 744 398 744 569 q 743 362 744 379 q 741 333 742 345 l 237 333 m 441 667 q 301 608 358 667 q 238 425 245 549 l 629 425 q 576 606 627 546 q 441 667 526 667 m 561 1135 l 617 1033 l 319 912 l 282 976 l 561 1135 z "},"ĕ":{"ha":855,"x_min":112,"x_max":744,"o":"m 237 333 q 306 143 242 202 q 457 83 370 83 q 561 100 514 83 q 657 151 607 118 l 713 72 q 593 7 661 31 q 455 -16 526 -16 q 269 33 345 -16 q 152 170 192 82 q 112 374 112 258 q 152 576 112 488 q 266 715 192 665 q 439 766 340 766 q 663 667 581 766 q 744 398 744 569 q 743 362 744 379 q 741 333 742 345 l 237 333 m 441 667 q 301 608 358 667 q 238 425 245 549 l 629 425 q 576 606 627 546 q 441 667 526 667 m 439 897 q 330 928 375 897 q 260 1002 285 958 q 229 1090 235 1047 l 312 1109 q 358 1022 327 1056 q 439 989 389 989 q 524 1022 491 989 q 571 1109 556 1056 l 654 1090 q 622 1002 648 1047 q 551 928 596 958 q 439 897 505 897 z "},"ě":{"ha":855,"x_min":112,"x_max":744,"o":"m 237 333 q 306 143 242 202 q 457 83 370 83 q 561 100 514 83 q 657 151 607 118 l 713 72 q 593 7 661 31 q 455 -16 526 -16 q 269 33 345 -16 q 152 170 192 82 q 112 374 112 258 q 152 576 112 488 q 266 715 192 665 q 439 766 340 766 q 663 667 581 766 q 744 398 744 569 q 743 362 744 379 q 741 333 742 345 l 237 333 m 441 667 q 301 608 358 667 q 238 425 245 549 l 629 425 q 576 606 627 546 q 441 667 526 667 m 621 1125 l 675 1065 l 484 896 l 403 896 l 210 1065 l 267 1125 l 444 995 l 621 1125 z "},"ê":{"ha":855,"x_min":112,"x_max":744,"o":"m 237 333 q 306 143 242 202 q 457 83 370 83 q 561 100 514 83 q 657 151 607 118 l 713 72 q 593 7 661 31 q 455 -16 526 -16 q 269 33 345 -16 q 152 170 192 82 q 112 374 112 258 q 152 576 112 488 q 266 715 192 665 q 439 766 340 766 q 663 667 581 766 q 744 398 744 569 q 743 362 744 379 q 741 333 742 345 l 237 333 m 441 667 q 301 608 358 667 q 238 425 245 549 l 629 425 q 576 606 627 546 q 441 667 526 667 m 267 896 l 210 955 l 403 1125 l 484 1125 l 675 955 l 621 896 l 444 1025 l 267 896 z "},"ë":{"ha":855,"x_min":112,"x_max":744,"o":"m 237 333 q 306 143 242 202 q 457 83 370 83 q 561 100 514 83 q 657 151 607 118 l 713 72 q 593 7 661 31 q 455 -16 526 -16 q 269 33 345 -16 q 152 170 192 82 q 112 374 112 258 q 152 576 112 488 q 266 715 192 665 q 439 766 340 766 q 663 667 581 766 q 744 398 744 569 q 743 362 744 379 q 741 333 742 345 l 237 333 m 441 667 q 301 608 358 667 q 238 425 245 549 l 629 425 q 576 606 627 546 q 441 667 526 667 m 295 924 q 239 945 261 924 q 217 999 217 967 q 239 1054 217 1033 q 295 1076 261 1076 q 349 1054 327 1076 q 372 999 372 1033 q 349 945 372 967 q 295 924 327 924 m 588 924 q 533 945 556 924 q 511 999 511 967 q 533 1054 511 1033 q 588 1076 556 1076 q 644 1054 622 1076 q 667 999 667 1033 q 644 945 667 967 q 588 924 622 924 z "},"ė":{"ha":855,"x_min":112,"x_max":744,"o":"m 237 333 q 306 143 242 202 q 457 83 370 83 q 561 100 514 83 q 657 151 607 118 l 713 72 q 593 7 661 31 q 455 -16 526 -16 q 269 33 345 -16 q 152 170 192 82 q 112 374 112 258 q 152 576 112 488 q 266 715 192 665 q 439 766 340 766 q 663 667 581 766 q 744 398 744 569 q 743 362 744 379 q 741 333 742 345 l 237 333 m 441 667 q 301 608 358 667 q 238 425 245 549 l 629 425 q 576 606 627 546 q 441 667 526 667 m 441 1101 q 504 1077 480 1101 q 528 1018 528 1053 q 504 957 528 981 q 441 932 480 932 q 379 957 402 932 q 355 1018 355 981 q 379 1077 355 1053 q 441 1101 402 1101 z "},"è":{"ha":855,"x_min":112,"x_max":744,"o":"m 237 333 q 306 143 242 202 q 457 83 370 83 q 561 100 514 83 q 657 151 607 118 l 713 72 q 593 7 661 31 q 455 -16 526 -16 q 269 33 345 -16 q 152 170 192 82 q 112 374 112 258 q 152 576 112 488 q 266 715 192 665 q 439 766 340 766 q 663 667 581 766 q 744 398 744 569 q 743 362 744 379 q 741 333 742 345 l 237 333 m 441 667 q 301 608 358 667 q 238 425 245 549 l 629 425 q 576 606 627 546 q 441 667 526 667 m 566 886 l 278 1019 l 342 1120 l 605 952 l 566 886 z "},"ē":{"ha":855,"x_min":112,"x_max":744,"o":"m 237 333 q 306 143 242 202 q 457 83 370 83 q 561 100 514 83 q 657 151 607 118 l 713 72 q 593 7 661 31 q 455 -16 526 -16 q 269 33 345 -16 q 152 170 192 82 q 112 374 112 258 q 152 576 112 488 q 266 715 192 665 q 439 766 340 766 q 663 667 581 766 q 744 398 744 569 q 743 362 744 379 q 741 333 742 345 l 237 333 m 441 667 q 301 608 358 667 q 238 425 245 549 l 629 425 q 576 606 627 546 q 441 667 526 667 m 633 963 l 250 963 l 250 1054 l 633 1054 l 633 963 z "},"ę":{"ha":855,"x_min":112,"x_max":744,"o":"m 237 333 q 306 143 242 202 q 457 83 370 83 q 561 100 514 83 q 657 151 607 118 l 713 72 q 565 -1 649 21 q 456 -61 493 -33 q 406 -113 419 -88 q 392 -163 392 -138 q 410 -213 392 -195 q 472 -231 427 -231 q 560 -222 511 -231 l 547 -317 q 505 -324 526 -321 q 457 -327 485 -327 q 330 -286 376 -327 q 283 -187 283 -246 q 425 -16 283 -74 q 193 101 275 -5 q 112 374 112 207 q 152 576 112 488 q 266 715 192 665 q 439 766 340 766 q 663 667 581 766 q 744 398 744 569 q 743 362 744 379 q 741 333 742 345 l 237 333 m 441 667 q 301 608 358 667 q 238 425 245 549 l 629 425 q 576 606 627 546 q 441 667 526 667 z "},"f":{"ha":855,"x_min":134,"x_max":789,"o":"m 586 1067 q 696 1056 647 1067 q 789 1026 745 1046 l 751 937 q 673 961 714 953 q 590 969 632 969 q 432 844 432 969 l 432 692 l 687 692 l 674 598 l 432 598 l 432 0 l 313 0 l 313 598 l 134 598 l 134 692 l 313 692 l 313 841 q 349 962 313 911 q 447 1040 385 1012 q 586 1067 509 1067 z "},"g":{"ha":855,"x_min":93,"x_max":790,"o":"m 753 830 l 790 717 q 688 699 741 702 q 571 695 634 695 q 701 506 701 635 q 626 323 701 395 q 419 251 552 251 q 356 255 381 251 q 307 266 330 259 q 279 234 290 254 q 268 193 268 214 q 289 148 268 166 q 368 130 311 130 l 504 130 q 639 103 579 130 q 734 30 699 76 q 769 -73 769 -16 q 675 -243 769 -184 q 410 -302 581 -302 q 222 -277 291 -302 q 123 -203 152 -253 q 93 -76 93 -152 l 202 -76 q 219 -148 202 -120 q 281 -191 236 -177 q 410 -204 325 -204 q 590 -173 533 -204 q 647 -81 647 -142 q 599 -1 647 -28 q 478 26 551 26 l 344 26 q 201 69 246 26 q 155 167 155 112 q 238 298 155 244 q 112 506 112 365 q 150 641 112 582 q 255 733 187 699 q 411 766 323 766 q 565 774 506 766 q 666 796 624 782 q 753 830 709 811 m 411 679 q 277 630 321 679 q 234 506 234 580 q 278 380 234 429 q 414 331 322 331 q 535 377 493 331 q 577 506 577 424 q 411 679 577 679 z "},"ğ":{"ha":855,"x_min":93,"x_max":790,"o":"m 753 830 l 790 717 q 688 699 741 702 q 571 695 634 695 q 701 506 701 635 q 626 323 701 395 q 419 251 552 251 q 356 255 381 251 q 307 266 330 259 q 279 234 290 254 q 268 193 268 214 q 289 148 268 166 q 368 130 311 130 l 504 130 q 639 103 579 130 q 734 30 699 76 q 769 -73 769 -16 q 675 -243 769 -184 q 410 -302 581 -302 q 222 -277 291 -302 q 123 -203 152 -253 q 93 -76 93 -152 l 202 -76 q 219 -148 202 -120 q 281 -191 236 -177 q 410 -204 325 -204 q 590 -173 533 -204 q 647 -81 647 -142 q 599 -1 647 -28 q 478 26 551 26 l 344 26 q 201 69 246 26 q 155 167 155 112 q 238 298 155 244 q 112 506 112 365 q 150 641 112 582 q 255 733 187 699 q 411 766 323 766 q 565 774 506 766 q 666 796 624 782 q 753 830 709 811 m 411 679 q 277 630 321 679 q 234 506 234 580 q 278 380 234 429 q 414 331 322 331 q 535 377 493 331 q 577 506 577 424 q 411 679 577 679 m 415 897 q 306 928 350 897 q 236 1002 261 958 q 205 1090 211 1047 l 288 1109 q 334 1022 303 1056 q 415 989 365 989 q 499 1022 467 989 q 547 1109 532 1056 l 630 1090 q 598 1002 624 1047 q 526 928 572 958 q 415 897 481 897 z "},"ĝ":{"ha":855,"x_min":93,"x_max":790,"o":"m 753 830 l 790 717 q 688 699 741 702 q 571 695 634 695 q 701 506 701 635 q 626 323 701 395 q 419 251 552 251 q 356 255 381 251 q 307 266 330 259 q 279 234 290 254 q 268 193 268 214 q 289 148 268 166 q 368 130 311 130 l 504 130 q 639 103 579 130 q 734 30 699 76 q 769 -73 769 -16 q 675 -243 769 -184 q 410 -302 581 -302 q 222 -277 291 -302 q 123 -203 152 -253 q 93 -76 93 -152 l 202 -76 q 219 -148 202 -120 q 281 -191 236 -177 q 410 -204 325 -204 q 590 -173 533 -204 q 647 -81 647 -142 q 599 -1 647 -28 q 478 26 551 26 l 344 26 q 201 69 246 26 q 155 167 155 112 q 238 298 155 244 q 112 506 112 365 q 150 641 112 582 q 255 733 187 699 q 411 766 323 766 q 565 774 506 766 q 666 796 624 782 q 753 830 709 811 m 411 679 q 277 630 321 679 q 234 506 234 580 q 278 380 234 429 q 414 331 322 331 q 535 377 493 331 q 577 506 577 424 q 411 679 577 679 m 243 896 l 186 955 l 379 1125 l 459 1125 l 651 955 l 597 896 l 420 1025 l 243 896 z "},"ģ":{"ha":855,"x_min":93,"x_max":790,"o":"m 753 830 l 790 717 q 688 699 741 702 q 571 695 634 695 q 701 506 701 635 q 626 323 701 395 q 419 251 552 251 q 356 255 381 251 q 307 266 330 259 q 279 234 290 254 q 268 193 268 214 q 289 148 268 166 q 368 130 311 130 l 504 130 q 639 103 579 130 q 734 30 699 76 q 769 -73 769 -16 q 675 -243 769 -184 q 410 -302 581 -302 q 222 -277 291 -302 q 123 -203 152 -253 q 93 -76 93 -152 l 202 -76 q 219 -148 202 -120 q 281 -191 236 -177 q 410 -204 325 -204 q 590 -173 533 -204 q 647 -81 647 -142 q 599 -1 647 -28 q 478 26 551 26 l 344 26 q 201 69 246 26 q 155 167 155 112 q 238 298 155 244 q 112 506 112 365 q 150 641 112 582 q 255 733 187 699 q 411 766 323 766 q 565 774 506 766 q 666 796 624 782 q 753 830 709 811 m 411 679 q 277 630 321 679 q 234 506 234 580 q 278 380 234 429 q 414 331 322 331 q 535 377 493 331 q 577 506 577 424 q 411 679 577 679 m 412 850 q 358 872 380 850 q 335 927 335 894 q 357 1005 335 958 l 428 1157 l 501 1157 l 459 991 q 490 927 490 966 q 468 872 490 894 q 412 850 445 850 z "},"ġ":{"ha":855,"x_min":93,"x_max":790,"o":"m 753 830 l 790 717 q 688 699 741 702 q 571 695 634 695 q 701 506 701 635 q 626 323 701 395 q 419 251 552 251 q 356 255 381 251 q 307 266 330 259 q 279 234 290 254 q 268 193 268 214 q 289 148 268 166 q 368 130 311 130 l 504 130 q 639 103 579 130 q 734 30 699 76 q 769 -73 769 -16 q 675 -243 769 -184 q 410 -302 581 -302 q 222 -277 291 -302 q 123 -203 152 -253 q 93 -76 93 -152 l 202 -76 q 219 -148 202 -120 q 281 -191 236 -177 q 410 -204 325 -204 q 590 -173 533 -204 q 647 -81 647 -142 q 599 -1 647 -28 q 478 26 551 26 l 344 26 q 201 69 246 26 q 155 167 155 112 q 238 298 155 244 q 112 506 112 365 q 150 641 112 582 q 255 733 187 699 q 411 766 323 766 q 565 774 506 766 q 666 796 624 782 q 753 830 709 811 m 411 679 q 277 630 321 679 q 234 506 234 580 q 278 380 234 429 q 414 331 322 331 q 535 377 493 331 q 577 506 577 424 q 411 679 577 679 m 417 1101 q 480 1077 456 1101 q 504 1018 504 1053 q 480 957 504 981 q 417 932 456 932 q 354 957 378 932 q 330 1018 330 981 q 354 1077 330 1053 q 417 1101 378 1101 z "},"h":{"ha":855,"x_min":143,"x_max":713,"o":"m 263 1063 l 263 647 q 371 736 307 706 q 502 766 436 766 q 662 707 612 766 q 713 545 713 649 l 713 0 l 593 0 l 593 542 q 562 641 593 610 q 464 672 531 672 q 382 652 421 672 q 313 605 344 633 q 263 546 283 576 l 263 0 l 143 0 l 143 1051 l 263 1063 z "},"ħ":{"ha":855,"x_min":28,"x_max":713,"o":"m 504 947 l 504 851 l 263 851 l 263 647 q 371 736 307 706 q 502 766 436 766 q 662 707 612 766 q 713 545 713 649 l 713 0 l 593 0 l 593 542 q 562 641 593 610 q 464 672 531 672 q 382 652 421 672 q 313 605 344 633 q 263 546 283 576 l 263 0 l 143 0 l 143 851 l 28 851 l 28 947 l 143 947 l 143 1051 l 263 1063 l 263 947 l 504 947 z "},"ĥ":{"ha":855,"x_min":143,"x_max":713,"o":"m 263 1063 l 263 647 q 371 736 307 706 q 502 766 436 766 q 662 707 612 766 q 713 545 713 649 l 713 0 l 593 0 l 593 542 q 562 641 593 610 q 464 672 531 672 q 382 652 421 672 q 313 605 344 633 q 263 546 283 576 l 263 0 l 143 0 l 143 1051 l 263 1063 m 469 1368 l 660 1215 l 608 1155 l 427 1269 l 249 1155 l 195 1215 l 388 1368 l 469 1368 z "},"i":{"ha":855,"x_min":172,"x_max":734,"o":"m 427 1101 q 491 1077 467 1101 q 515 1018 515 1053 q 491 957 515 981 q 427 932 467 932 q 365 957 390 932 q 341 1018 341 981 q 365 1077 341 1053 q 427 1101 390 1101 m 523 750 l 523 95 l 734 95 l 734 0 l 172 0 l 172 95 l 403 95 l 403 655 l 179 655 l 179 750 l 523 750 z "},"ı":{"ha":855,"x_min":172,"x_max":734,"o":"m 523 750 l 523 95 l 734 95 l 734 0 l 172 0 l 172 95 l 403 95 l 403 655 l 179 655 l 179 750 l 523 750 z "},"í":{"ha":855,"x_min":172,"x_max":734,"o":"m 523 750 l 523 95 l 734 95 l 734 0 l 172 0 l 172 95 l 403 95 l 403 655 l 179 655 l 179 750 l 523 750 m 548 1135 l 604 1033 l 306 912 l 269 976 l 548 1135 z "},"ĭ":{"ha":855,"x_min":172,"x_max":734,"o":"m 523 750 l 523 95 l 734 95 l 734 0 l 172 0 l 172 95 l 403 95 l 403 655 l 179 655 l 179 750 l 523 750 m 426 897 q 317 928 362 897 q 247 1002 272 958 q 217 1090 222 1047 l 299 1109 q 345 1022 314 1056 q 426 989 376 989 q 511 1022 478 989 q 558 1109 543 1056 l 641 1090 q 609 1002 635 1047 q 538 928 583 958 q 426 897 492 897 z "},"î":{"ha":855,"x_min":172,"x_max":734,"o":"m 523 750 l 523 95 l 734 95 l 734 0 l 172 0 l 172 95 l 403 95 l 403 655 l 179 655 l 179 750 l 523 750 m 254 896 l 197 955 l 390 1125 l 471 1125 l 662 955 l 608 896 l 431 1025 l 254 896 z "},"ï":{"ha":855,"x_min":172,"x_max":734,"o":"m 523 750 l 523 95 l 734 95 l 734 0 l 172 0 l 172 95 l 403 95 l 403 655 l 179 655 l 179 750 l 523 750 m 282 924 q 226 945 248 924 q 204 999 204 967 q 226 1054 204 1033 q 282 1076 248 1076 q 337 1054 314 1076 q 359 999 359 1033 q 337 945 359 967 q 282 924 314 924 m 575 924 q 521 945 543 924 q 499 999 499 967 q 521 1054 499 1033 q 575 1076 543 1076 q 631 1054 609 1076 q 654 999 654 1033 q 631 945 654 967 q 575 924 609 924 z "},"ì":{"ha":855,"x_min":172,"x_max":734,"o":"m 523 750 l 523 95 l 734 95 l 734 0 l 172 0 l 172 95 l 403 95 l 403 655 l 179 655 l 179 750 l 523 750 m 553 886 l 265 1019 l 329 1120 l 592 952 l 553 886 z "},"ĳ":{"ha":855,"x_min":69,"x_max":726,"o":"m 263 1101 q 325 1077 301 1101 q 350 1018 350 1053 q 325 957 350 981 q 263 932 301 932 q 200 957 224 932 q 176 1018 176 981 q 200 1077 176 1053 q 263 1101 224 1101 m 639 1101 q 702 1077 677 1101 q 726 1018 726 1053 q 702 957 726 981 q 639 932 677 932 q 576 957 600 932 q 552 1018 552 981 q 576 1077 552 1053 q 639 1101 600 1101 m 713 750 l 713 78 q 663 -98 713 -26 q 531 -220 614 -171 q 349 -302 449 -269 l 313 -209 q 446 -147 381 -182 q 554 -60 511 -113 q 596 71 596 -8 l 596 658 l 318 658 l 318 95 l 454 95 l 454 0 l 69 0 l 69 95 l 202 95 l 202 658 l 76 658 l 76 750 l 713 750 z "},"ī":{"ha":855,"x_min":172,"x_max":734,"o":"m 523 750 l 523 95 l 734 95 l 734 0 l 172 0 l 172 95 l 403 95 l 403 655 l 179 655 l 179 750 l 523 750 m 620 963 l 237 963 l 237 1054 l 620 1054 l 620 963 z "},"į":{"ha":855,"x_min":172,"x_max":734,"o":"m 523 750 l 523 95 l 734 95 l 734 0 l 172 0 l 172 95 l 403 95 l 403 655 l 179 655 l 179 750 l 523 750 m 428 1101 q 491 1077 467 1101 q 516 1018 516 1053 q 491 957 516 981 q 428 932 467 932 q 366 957 390 932 q 342 1018 342 981 q 366 1077 342 1053 q 428 1101 390 1101 m 504 43 l 523 0 q 411 -60 449 -33 q 360 -113 373 -88 q 346 -163 346 -138 q 364 -213 346 -195 q 426 -231 381 -231 q 514 -222 466 -231 l 501 -317 q 460 -324 480 -321 q 412 -327 439 -327 q 284 -286 330 -327 q 238 -187 238 -246 q 301 -54 238 -112 q 504 43 364 3 z "},"ĩ":{"ha":855,"x_min":172,"x_max":734,"o":"m 523 750 l 523 95 l 734 95 l 734 0 l 172 0 l 172 95 l 403 95 l 403 655 l 179 655 l 179 750 l 523 750 m 513 938 q 448 955 475 938 q 396 990 420 972 q 347 1007 373 1007 q 306 990 323 1007 q 271 941 288 973 l 195 979 q 257 1064 219 1030 q 348 1099 296 1099 q 414 1082 387 1099 q 463 1048 441 1065 q 513 1031 486 1031 q 588 1093 551 1031 l 664 1055 q 513 938 609 938 z "},"j":{"ha":855,"x_min":136,"x_max":634,"o":"m 522 1101 q 586 1077 562 1101 q 610 1018 610 1053 q 586 957 610 981 q 522 932 562 932 q 460 957 484 932 q 437 1018 437 981 q 460 1077 437 1053 q 522 1101 484 1101 m 634 750 l 634 120 q 577 -90 634 -5 q 414 -225 521 -175 q 156 -302 307 -276 l 136 -209 q 333 -154 247 -191 q 466 -53 418 -117 q 514 113 514 11 l 514 655 l 202 655 l 202 750 l 634 750 z "},"ȷ":{"ha":855,"x_min":136,"x_max":634,"o":"m 634 750 l 634 120 q 577 -90 634 -5 q 414 -225 521 -175 q 156 -302 307 -276 l 136 -209 q 333 -154 247 -191 q 466 -53 418 -117 q 514 113 514 11 l 514 655 l 202 655 l 202 750 l 634 750 z "},"ĵ":{"ha":855,"x_min":136,"x_max":756,"o":"m 634 750 l 634 120 q 577 -90 634 -5 q 414 -225 521 -175 q 156 -302 307 -276 l 136 -209 q 333 -154 247 -191 q 466 -53 418 -117 q 514 113 514 11 l 514 655 l 202 655 l 202 750 l 634 750 m 348 896 l 291 955 l 484 1125 l 565 1125 l 756 955 l 702 896 l 525 1025 l 348 896 z "},"k":{"ha":855,"x_min":151,"x_max":811,"o":"m 271 1067 l 271 0 l 151 0 l 151 1052 l 271 1067 m 771 750 l 434 412 l 811 0 l 653 0 l 284 410 l 616 750 l 771 750 z "},"ķ":{"ha":855,"x_min":151,"x_max":811,"o":"m 271 1067 l 271 0 l 151 0 l 151 1052 l 271 1067 m 771 750 l 434 412 l 811 0 l 653 0 l 284 410 l 616 750 l 771 750 m 440 -100 q 495 -122 472 -100 q 517 -177 517 -144 q 496 -255 517 -208 l 425 -407 l 352 -407 l 393 -241 q 363 -177 363 -216 q 385 -122 363 -144 q 440 -100 407 -100 z "},"ĸ":{"ha":855,"x_min":143,"x_max":803,"o":"m 764 750 l 423 410 l 803 0 l 645 0 l 276 402 l 608 750 l 764 750 m 263 750 l 263 0 l 143 0 l 143 750 l 263 750 z "},"l":{"ha":855,"x_min":85,"x_max":717,"o":"m 435 1052 l 435 185 q 470 106 435 130 q 559 83 504 83 q 624 90 593 83 q 685 110 655 98 l 717 22 q 641 -5 687 7 q 539 -16 596 -16 q 377 39 439 -16 q 316 192 316 94 l 316 957 l 85 957 l 85 1052 l 435 1052 z "},"ĺ":{"ha":855,"x_min":85,"x_max":717,"o":"m 435 1052 l 435 185 q 470 106 435 130 q 559 83 504 83 q 624 90 593 83 q 685 110 655 98 l 717 22 q 641 -5 687 7 q 539 -16 596 -16 q 377 39 439 -16 q 316 192 316 94 l 316 957 l 85 957 l 85 1052 l 435 1052 m 496 1437 l 552 1335 l 254 1214 l 217 1278 l 496 1437 z "},"ľ":{"ha":855,"x_min":85,"x_max":717,"o":"m 435 1052 l 435 185 q 470 106 435 130 q 559 83 504 83 q 624 90 593 83 q 685 110 655 98 l 717 22 q 641 -5 687 7 q 539 -16 596 -16 q 377 39 439 -16 q 316 192 316 94 l 316 957 l 85 957 l 85 1052 l 435 1052 m 543 1064 l 652 1051 l 576 798 l 509 808 l 543 1064 z "},"ļ":{"ha":855,"x_min":85,"x_max":717,"o":"m 435 1052 l 435 185 q 470 106 435 130 q 559 83 504 83 q 624 90 593 83 q 685 110 655 98 l 717 22 q 641 -5 687 7 q 539 -16 596 -16 q 377 39 439 -16 q 316 192 316 94 l 316 957 l 85 957 l 85 1052 l 435 1052 m 519 -100 q 573 -122 551 -100 q 595 -177 595 -144 q 574 -255 595 -208 l 503 -407 l 430 -407 l 472 -241 q 441 -177 441 -216 q 463 -122 441 -144 q 519 -100 486 -100 z "},"ŀ":{"ha":855,"x_min":85,"x_max":886,"o":"m 435 1052 l 435 185 q 470 106 435 130 q 559 83 504 83 q 624 90 593 83 q 685 110 655 98 l 717 22 q 641 -5 687 7 q 539 -16 596 -16 q 377 39 439 -16 q 316 192 316 94 l 316 957 l 85 957 l 85 1052 l 435 1052 m 798 627 q 862 603 838 627 q 886 544 886 579 q 862 483 886 508 q 798 459 838 459 q 736 483 760 459 q 712 544 712 508 q 736 603 712 579 q 798 627 760 627 z "},"ł":{"ha":855,"x_min":85,"x_max":717,"o":"m 561 697 l 611 619 l 435 511 l 435 185 q 470 106 435 130 q 559 83 504 83 q 624 90 593 83 q 685 110 655 98 l 717 22 q 641 -5 687 7 q 539 -16 596 -16 q 377 39 439 -16 q 316 192 316 94 l 316 437 l 217 377 l 166 454 l 316 546 l 316 957 l 85 957 l 85 1052 l 435 1052 l 435 620 l 561 697 z "},"m":{"ha":855,"x_min":72,"x_max":783,"o":"m 637 766 q 707 750 673 766 q 761 689 740 734 q 783 558 783 645 l 783 0 l 672 0 l 672 539 q 663 641 672 610 q 614 672 655 672 q 547 651 580 672 q 483 583 514 630 l 483 0 l 371 0 l 371 539 q 363 641 371 610 q 313 672 354 672 q 246 651 278 672 q 182 583 213 630 l 182 0 l 72 0 l 72 750 l 166 750 l 173 663 q 242 736 204 707 q 336 766 280 766 q 417 745 379 766 q 472 667 454 725 q 541 738 503 711 q 637 766 580 766 z "},"n":{"ha":855,"x_min":143,"x_max":713,"o":"m 143 0 l 143 750 l 245 750 l 254 646 q 368 735 300 704 q 502 766 437 766 q 663 707 613 766 q 713 545 713 649 l 713 0 l 593 0 l 593 457 q 585 580 593 533 q 549 650 576 627 q 465 672 521 672 q 382 652 421 672 q 313 604 343 633 q 263 546 283 575 l 263 0 l 143 0 z "},"ń":{"ha":855,"x_min":143,"x_max":713,"o":"m 143 0 l 143 750 l 245 750 l 254 646 q 368 735 300 704 q 502 766 437 766 q 663 707 613 766 q 713 545 713 649 l 713 0 l 593 0 l 593 457 q 585 580 593 533 q 549 650 576 627 q 465 672 521 672 q 382 652 421 672 q 313 604 343 633 q 263 546 283 575 l 263 0 l 143 0 m 546 1135 l 602 1033 l 304 912 l 267 976 l 546 1135 z "},"ŉ":{"ha":855,"x_min":1,"x_max":726,"o":"m 90 1071 q 146 1049 123 1071 q 168 994 168 1027 q 161 955 168 977 q 130 884 154 933 l 72 761 l 1 761 l 43 929 q 20 959 29 942 q 11 994 11 975 q 34 1049 11 1027 q 90 1071 58 1071 m 155 0 l 155 750 l 258 750 l 266 646 q 381 735 313 704 q 514 766 449 766 q 676 707 625 766 q 726 545 726 649 l 726 0 l 606 0 l 606 457 q 598 580 606 533 q 562 650 589 627 q 477 672 534 672 q 395 652 433 672 q 325 604 356 633 q 275 546 295 575 l 275 0 l 155 0 z "},"ň":{"ha":855,"x_min":143,"x_max":713,"o":"m 143 0 l 143 750 l 245 750 l 254 646 q 368 735 300 704 q 502 766 437 766 q 663 707 613 766 q 713 545 713 649 l 713 0 l 593 0 l 593 457 q 585 580 593 533 q 549 650 576 627 q 465 672 521 672 q 382 652 421 672 q 313 604 343 633 q 263 546 283 575 l 263 0 l 143 0 m 606 1125 l 660 1065 l 469 896 l 388 896 l 195 1065 l 252 1125 l 429 995 l 606 1125 z "},"ņ":{"ha":855,"x_min":143,"x_max":713,"o":"m 143 0 l 143 750 l 245 750 l 254 646 q 368 735 300 704 q 502 766 437 766 q 663 707 613 766 q 713 545 713 649 l 713 0 l 593 0 l 593 457 q 585 580 593 533 q 549 650 576 627 q 465 672 521 672 q 382 652 421 672 q 313 604 343 633 q 263 546 283 575 l 263 0 l 143 0 m 434 -100 q 488 -122 466 -100 q 511 -177 511 -144 q 489 -255 511 -208 l 418 -407 l 345 -407 l 387 -241 q 356 -177 356 -216 q 379 -122 356 -144 q 434 -100 401 -100 z "},"ñ":{"ha":855,"x_min":143,"x_max":713,"o":"m 143 0 l 143 750 l 245 750 l 254 646 q 368 735 300 704 q 502 766 437 766 q 663 707 613 766 q 713 545 713 649 l 713 0 l 593 0 l 593 457 q 585 580 593 533 q 549 650 576 627 q 465 672 521 672 q 382 652 421 672 q 313 604 343 633 q 263 546 283 575 l 263 0 l 143 0 m 511 938 q 446 955 473 938 q 394 990 418 972 q 345 1007 370 1007 q 303 990 321 1007 q 269 941 286 973 l 193 979 q 255 1064 217 1030 q 345 1099 293 1099 q 412 1082 385 1099 q 461 1048 439 1065 q 511 1031 484 1031 q 586 1093 548 1031 l 662 1055 q 511 938 607 938 z "},"ŋ":{"ha":855,"x_min":143,"x_max":713,"o":"m 713 41 q 689 -128 713 -66 q 615 -229 665 -191 q 493 -300 566 -267 l 448 -213 q 530 -165 497 -190 q 578 -94 562 -140 q 593 33 593 -49 l 593 457 q 585 580 593 533 q 549 650 577 627 q 464 672 521 672 q 382 652 421 672 q 313 605 344 633 q 263 546 283 576 l 263 0 l 143 0 l 143 750 l 245 750 l 254 646 q 368 735 300 704 q 502 766 436 766 q 662 707 612 766 q 713 545 713 649 l 713 41 z "},"o":{"ha":855,"x_min":105,"x_max":750,"o":"m 429 766 q 669 660 588 766 q 750 375 750 553 q 713 172 750 261 q 604 34 676 84 q 427 -16 532 -16 q 187 90 269 -16 q 105 374 105 197 q 142 578 105 489 q 251 716 179 667 q 429 766 323 766 m 429 668 q 282 596 332 668 q 233 374 233 524 q 282 153 233 225 q 427 82 330 82 q 573 154 524 82 q 622 375 622 226 q 573 597 622 525 q 429 668 525 668 z "},"ó":{"ha":855,"x_min":105,"x_max":750,"o":"m 429 766 q 669 660 588 766 q 750 375 750 553 q 713 172 750 261 q 604 34 676 84 q 427 -16 532 -16 q 187 90 269 -16 q 105 374 105 197 q 142 578 105 489 q 251 716 179 667 q 429 766 323 766 m 429 668 q 282 596 332 668 q 233 374 233 524 q 282 153 233 225 q 427 82 330 82 q 573 154 524 82 q 622 375 622 226 q 573 597 622 525 q 429 668 525 668 m 546 1135 l 602 1033 l 304 912 l 267 976 l 546 1135 z "},"ŏ":{"ha":855,"x_min":105,"x_max":750,"o":"m 429 766 q 669 660 588 766 q 750 375 750 553 q 713 172 750 261 q 604 34 676 84 q 427 -16 532 -16 q 187 90 269 -16 q 105 374 105 197 q 142 578 105 489 q 251 716 179 667 q 429 766 323 766 m 429 668 q 282 596 332 668 q 233 374 233 524 q 282 153 233 225 q 427 82 330 82 q 573 154 524 82 q 622 375 622 226 q 573 597 622 525 q 429 668 525 668 m 424 897 q 315 928 360 897 q 245 1002 270 958 q 214 1090 220 1047 l 297 1109 q 343 1022 312 1056 q 424 989 374 989 q 509 1022 476 989 q 556 1109 541 1056 l 639 1090 q 607 1002 633 1047 q 536 928 581 958 q 424 897 490 897 z "},"ô":{"ha":855,"x_min":105,"x_max":750,"o":"m 429 766 q 669 660 588 766 q 750 375 750 553 q 713 172 750 261 q 604 34 676 84 q 427 -16 532 -16 q 187 90 269 -16 q 105 374 105 197 q 142 578 105 489 q 251 716 179 667 q 429 766 323 766 m 429 668 q 282 596 332 668 q 233 374 233 524 q 282 153 233 225 q 427 82 330 82 q 573 154 524 82 q 622 375 622 226 q 573 597 622 525 q 429 668 525 668 m 252 896 l 195 955 l 388 1125 l 469 1125 l 660 955 l 606 896 l 429 1025 l 252 896 z "},"ö":{"ha":855,"x_min":105,"x_max":750,"o":"m 429 766 q 669 660 588 766 q 750 375 750 553 q 713 172 750 261 q 604 34 676 84 q 427 -16 532 -16 q 187 90 269 -16 q 105 374 105 197 q 142 578 105 489 q 251 716 179 667 q 429 766 323 766 m 429 668 q 282 596 332 668 q 233 374 233 524 q 282 153 233 225 q 427 82 330 82 q 573 154 524 82 q 622 375 622 226 q 573 597 622 525 q 429 668 525 668 m 280 924 q 224 945 246 924 q 202 999 202 967 q 224 1054 202 1033 q 280 1076 246 1076 q 334 1054 312 1076 q 357 999 357 1033 q 334 945 357 967 q 280 924 312 924 m 573 924 q 519 945 541 924 q 496 999 496 967 q 519 1054 496 1033 q 573 1076 541 1076 q 629 1054 607 1076 q 652 999 652 1033 q 629 945 652 967 q 573 924 607 924 z "},"ò":{"ha":855,"x_min":105,"x_max":750,"o":"m 429 766 q 669 660 588 766 q 750 375 750 553 q 713 172 750 261 q 604 34 676 84 q 427 -16 532 -16 q 187 90 269 -16 q 105 374 105 197 q 142 578 105 489 q 251 716 179 667 q 429 766 323 766 m 429 668 q 282 596 332 668 q 233 374 233 524 q 282 153 233 225 q 427 82 330 82 q 573 154 524 82 q 622 375 622 226 q 573 597 622 525 q 429 668 525 668 m 551 886 l 263 1019 l 327 1120 l 590 952 l 551 886 z "},"ő":{"ha":855,"x_min":105,"x_max":750,"o":"m 429 766 q 669 660 588 766 q 750 375 750 553 q 713 172 750 261 q 604 34 676 84 q 427 -16 532 -16 q 187 90 269 -16 q 105 374 105 197 q 142 578 105 489 q 251 716 179 667 q 429 766 323 766 m 429 668 q 282 596 332 668 q 233 374 233 524 q 282 153 233 225 q 427 82 330 82 q 573 154 524 82 q 622 375 622 226 q 573 597 622 525 q 429 668 525 668 m 252 943 l 363 1190 l 469 1140 l 330 907 l 252 943 m 486 943 l 611 1190 l 715 1135 l 561 903 l 486 943 z "},"ō":{"ha":855,"x_min":105,"x_max":750,"o":"m 429 766 q 669 660 588 766 q 750 375 750 553 q 713 172 750 261 q 604 34 676 84 q 427 -16 532 -16 q 187 90 269 -16 q 105 374 105 197 q 142 578 105 489 q 251 716 179 667 q 429 766 323 766 m 429 668 q 282 596 332 668 q 233 374 233 524 q 282 153 233 225 q 427 82 330 82 q 573 154 524 82 q 622 375 622 226 q 573 597 622 525 q 429 668 525 668 m 618 963 l 235 963 l 235 1054 l 618 1054 l 618 963 z "},"ø":{"ha":855,"x_min":105,"x_max":750,"o":"m 429 766 q 499 759 465 766 l 553 932 l 653 902 l 593 723 q 709 588 669 677 q 750 375 750 498 q 713 172 750 261 q 604 34 676 84 q 427 -16 532 -16 q 355 -9 390 -16 l 303 -186 l 204 -156 l 264 26 q 146 162 187 72 q 105 374 105 252 q 142 578 105 489 q 251 716 179 667 q 429 766 323 766 m 429 667 q 283 596 332 667 q 234 374 234 524 q 252 214 234 276 q 308 120 271 152 l 476 663 q 429 667 454 667 m 621 375 q 603 535 621 473 q 548 628 584 597 l 380 87 q 427 83 402 83 q 573 154 524 83 q 621 375 621 226 z "},"ǿ":{"ha":855,"x_min":105,"x_max":750,"o":"m 429 766 q 499 759 465 766 l 553 932 l 653 902 l 593 723 q 709 588 669 677 q 750 375 750 498 q 713 172 750 261 q 604 34 676 84 q 427 -16 532 -16 q 355 -9 390 -16 l 303 -186 l 204 -156 l 264 26 q 146 162 187 72 q 105 374 105 252 q 142 578 105 489 q 251 716 179 667 q 429 766 323 766 m 429 667 q 283 596 332 667 q 234 374 234 524 q 252 214 234 276 q 308 120 271 152 l 476 663 q 429 667 454 667 m 621 375 q 603 535 621 473 q 548 628 584 597 l 380 87 q 427 83 402 83 q 573 154 524 83 q 621 375 621 226 m 546 1135 l 602 1033 l 304 912 l 267 976 l 546 1135 z "},"õ":{"ha":855,"x_min":105,"x_max":750,"o":"m 429 766 q 669 660 588 766 q 750 375 750 553 q 713 172 750 261 q 604 34 676 84 q 427 -16 532 -16 q 187 90 269 -16 q 105 374 105 197 q 142 578 105 489 q 251 716 179 667 q 429 766 323 766 m 429 668 q 282 596 332 668 q 233 374 233 524 q 282 153 233 225 q 427 82 330 82 q 573 154 524 82 q 622 375 622 226 q 573 597 622 525 q 429 668 525 668 m 511 938 q 446 955 473 938 q 394 990 418 972 q 345 1007 370 1007 q 303 990 321 1007 q 269 941 286 973 l 193 979 q 255 1064 217 1030 q 345 1099 293 1099 q 412 1082 385 1099 q 461 1048 439 1065 q 511 1031 484 1031 q 586 1093 548 1031 l 662 1055 q 511 938 607 938 z "},"œ":{"ha":855,"x_min":-4,"x_max":876,"o":"m 640 766 q 820 667 764 766 q 876 398 876 569 q 875 362 876 379 q 873 331 874 345 l 499 331 q 545 144 509 204 q 655 84 580 84 q 726 99 695 84 q 792 140 756 114 l 847 58 q 759 4 804 25 q 653 -16 713 -16 q 521 21 575 -16 q 439 128 468 59 q 367 24 412 63 q 238 -16 322 -16 q 101 32 155 -16 q 22 168 48 80 q -4 374 -4 256 q 21 578 -4 489 q 100 716 46 667 q 238 766 153 766 q 371 725 326 766 q 441 619 416 685 q 513 724 467 682 q 640 766 560 766 m 253 670 q 153 597 183 670 q 124 374 124 524 q 153 151 124 220 q 253 82 183 82 q 350 149 323 82 q 378 375 378 215 q 350 597 378 525 q 253 670 321 670 m 636 667 q 540 613 572 667 q 499 425 508 559 l 759 425 q 731 605 756 543 q 636 667 706 667 z "},"p":{"ha":855,"x_min":143,"x_max":750,"o":"m 479 766 q 638 717 578 766 q 724 581 697 669 q 750 375 750 493 q 718 173 750 262 q 623 34 687 85 q 461 -16 558 -16 q 263 71 338 -16 l 263 -287 l 143 -302 l 143 750 l 245 750 l 255 645 q 353 734 296 703 q 479 766 410 766 m 450 670 q 340 632 388 670 q 263 549 293 595 l 263 177 q 337 109 292 134 q 434 83 381 83 q 575 155 528 83 q 622 376 622 226 q 450 670 622 670 z "},"þ":{"ha":855,"x_min":143,"x_max":750,"o":"m 263 1067 l 263 657 q 479 766 348 766 q 638 717 578 766 q 724 581 697 669 q 750 375 750 493 q 718 173 750 262 q 623 34 687 85 q 461 -16 558 -16 q 263 71 338 -16 l 263 -287 l 143 -302 l 143 1052 l 263 1067 m 450 670 q 340 632 388 670 q 263 549 293 595 l 263 177 q 337 109 292 134 q 434 83 381 83 q 575 155 528 83 q 622 376 622 226 q 450 670 622 670 z "},"q":{"ha":855,"x_min":105,"x_max":712,"o":"m 390 766 q 510 741 458 766 q 600 668 561 716 l 610 750 l 712 750 l 712 -302 l 592 -287 l 592 95 q 496 10 551 37 q 381 -16 442 -16 q 219 32 280 -16 q 132 168 159 80 q 105 374 105 256 q 137 575 105 486 q 234 715 170 664 q 390 766 298 766 m 420 670 q 233 374 233 670 q 406 83 233 83 q 515 118 468 83 q 592 199 561 152 l 592 573 q 518 644 563 619 q 420 670 473 670 z "},"r":{"ha":855,"x_min":150,"x_max":756,"o":"m 150 0 l 150 92 l 267 92 l 267 658 l 150 658 l 150 750 l 358 750 l 380 573 q 486 716 424 665 q 650 766 548 766 q 705 762 681 766 q 756 750 730 757 l 739 496 l 640 496 l 640 656 q 634 656 637 656 q 387 410 462 656 l 387 92 l 539 92 l 539 0 l 150 0 z "},"ŕ":{"ha":855,"x_min":150,"x_max":756,"o":"m 150 0 l 150 92 l 267 92 l 267 658 l 150 658 l 150 750 l 358 750 l 380 573 q 486 716 424 665 q 650 766 548 766 q 705 762 681 766 q 756 750 730 757 l 739 496 l 640 496 l 640 656 q 634 656 637 656 q 387 410 462 656 l 387 92 l 539 92 l 539 0 l 150 0 m 590 1135 l 645 1033 l 348 912 l 311 976 l 590 1135 z "},"ř":{"ha":855,"x_min":150,"x_max":756,"o":"m 150 0 l 150 92 l 267 92 l 267 658 l 150 658 l 150 750 l 358 750 l 380 573 q 486 716 424 665 q 650 766 548 766 q 705 762 681 766 q 756 750 730 757 l 739 496 l 640 496 l 640 656 q 634 656 637 656 q 387 410 462 656 l 387 92 l 539 92 l 539 0 l 150 0 m 650 1125 l 704 1065 l 512 896 l 432 896 l 239 1065 l 296 1125 l 472 995 l 650 1125 z "},"ŗ":{"ha":855,"x_min":150,"x_max":756,"o":"m 150 0 l 150 92 l 267 92 l 267 658 l 150 658 l 150 750 l 358 750 l 380 573 q 486 716 424 665 q 650 766 548 766 q 705 762 681 766 q 756 750 730 757 l 739 496 l 640 496 l 640 656 q 634 656 637 656 q 387 410 462 656 l 387 92 l 539 92 l 539 0 l 150 0 m 332 -100 q 386 -122 364 -100 q 409 -177 409 -144 q 387 -255 409 -208 l 316 -407 l 244 -407 l 285 -241 q 254 -177 254 -216 q 277 -122 254 -144 q 332 -100 299 -100 z "},"s":{"ha":855,"x_min":105,"x_max":714,"o":"m 398 83 q 535 115 485 83 q 585 202 585 147 q 572 260 585 235 q 521 305 560 285 q 403 345 483 325 q 268 390 325 365 q 179 456 211 415 q 147 561 147 496 q 226 711 147 656 q 432 766 306 766 q 590 741 523 766 q 704 683 657 717 l 652 602 q 558 650 610 631 q 434 669 506 669 q 308 641 345 669 q 271 571 271 614 q 290 515 271 537 q 351 476 308 494 q 471 439 395 459 q 599 392 544 419 q 684 321 654 365 q 714 207 714 277 q 669 78 714 127 q 551 6 623 28 q 398 -16 479 -16 q 225 13 296 -16 q 105 85 153 43 l 173 164 q 275 105 217 127 q 398 83 332 83 z "},"ś":{"ha":855,"x_min":105,"x_max":714,"o":"m 398 83 q 535 115 485 83 q 585 202 585 147 q 572 260 585 235 q 521 305 560 285 q 403 345 483 325 q 268 390 325 365 q 179 456 211 415 q 147 561 147 496 q 226 711 147 656 q 432 766 306 766 q 590 741 523 766 q 704 683 657 717 l 652 602 q 558 650 610 631 q 434 669 506 669 q 308 641 345 669 q 271 571 271 614 q 290 515 271 537 q 351 476 308 494 q 471 439 395 459 q 599 392 544 419 q 684 321 654 365 q 714 207 714 277 q 669 78 714 127 q 551 6 623 28 q 398 -16 479 -16 q 225 13 296 -16 q 105 85 153 43 l 173 164 q 275 105 217 127 q 398 83 332 83 m 557 1135 l 613 1033 l 315 912 l 278 976 l 557 1135 z "},"š":{"ha":855,"x_min":105,"x_max":714,"o":"m 398 83 q 535 115 485 83 q 585 202 585 147 q 572 260 585 235 q 521 305 560 285 q 403 345 483 325 q 268 390 325 365 q 179 456 211 415 q 147 561 147 496 q 226 711 147 656 q 432 766 306 766 q 590 741 523 766 q 704 683 657 717 l 652 602 q 558 650 610 631 q 434 669 506 669 q 308 641 345 669 q 271 571 271 614 q 290 515 271 537 q 351 476 308 494 q 471 439 395 459 q 599 392 544 419 q 684 321 654 365 q 714 207 714 277 q 669 78 714 127 q 551 6 623 28 q 398 -16 479 -16 q 225 13 296 -16 q 105 85 153 43 l 173 164 q 275 105 217 127 q 398 83 332 83 m 617 1125 l 671 1065 l 479 896 l 399 896 l 206 1065 l 263 1125 l 439 995 l 617 1125 z "},"ş":{"ha":855,"x_min":105,"x_max":714,"o":"m 398 83 q 535 115 485 83 q 585 202 585 147 q 572 260 585 235 q 521 305 560 285 q 403 345 483 325 q 268 390 325 365 q 179 456 211 415 q 147 561 147 496 q 226 711 147 656 q 432 766 306 766 q 590 741 523 766 q 704 683 657 717 l 652 602 q 558 650 610 631 q 434 669 506 669 q 308 641 345 669 q 271 571 271 614 q 290 515 271 537 q 351 476 308 494 q 471 439 395 459 q 599 392 544 419 q 684 321 654 365 q 714 207 714 277 q 669 78 714 127 q 551 6 623 28 q 398 -16 479 -16 q 225 13 296 -16 q 105 85 153 43 l 173 164 q 275 105 217 127 q 398 83 332 83 m 480 -200 q 447 -150 480 -162 q 356 -139 413 -139 l 369 23 l 451 23 l 451 -81 q 552 -122 521 -87 q 583 -200 583 -157 q 530 -305 583 -270 q 409 -340 478 -340 q 327 -330 366 -340 q 260 -305 288 -321 l 298 -236 q 345 -252 318 -246 q 395 -259 371 -259 q 456 -245 432 -259 q 480 -200 480 -232 z "},"ŝ":{"ha":855,"x_min":105,"x_max":714,"o":"m 398 83 q 535 115 485 83 q 585 202 585 147 q 572 260 585 235 q 521 305 560 285 q 403 345 483 325 q 268 390 325 365 q 179 456 211 415 q 147 561 147 496 q 226 711 147 656 q 432 766 306 766 q 590 741 523 766 q 704 683 657 717 l 652 602 q 558 650 610 631 q 434 669 506 669 q 308 641 345 669 q 271 571 271 614 q 290 515 271 537 q 351 476 308 494 q 471 439 395 459 q 599 392 544 419 q 684 321 654 365 q 714 207 714 277 q 669 78 714 127 q 551 6 623 28 q 398 -16 479 -16 q 225 13 296 -16 q 105 85 153 43 l 173 164 q 275 105 217 127 q 398 83 332 83 m 263 896 l 206 955 l 399 1125 l 479 1125 l 671 955 l 617 896 l 439 1025 l 263 896 z "},"ș":{"ha":855,"x_min":105,"x_max":714,"o":"m 398 83 q 535 115 485 83 q 585 202 585 147 q 572 260 585 235 q 521 305 560 285 q 403 345 483 325 q 268 390 325 365 q 179 456 211 415 q 147 561 147 496 q 226 711 147 656 q 432 766 306 766 q 590 741 523 766 q 704 683 657 717 l 652 602 q 558 650 610 631 q 434 669 506 669 q 308 641 345 669 q 271 571 271 614 q 290 515 271 537 q 351 476 308 494 q 471 439 395 459 q 599 392 544 419 q 684 321 654 365 q 714 207 714 277 q 669 78 714 127 q 551 6 623 28 q 398 -16 479 -16 q 225 13 296 -16 q 105 85 153 43 l 173 164 q 275 105 217 127 q 398 83 332 83 m 427 -100 q 482 -122 459 -100 q 504 -177 504 -144 q 483 -255 504 -208 l 412 -407 l 339 -407 l 380 -241 q 350 -177 350 -216 q 372 -122 350 -144 q 427 -100 395 -100 z "},"ß":{"ha":855,"x_min":137,"x_max":795,"o":"m 422 1067 q 601 1010 533 1067 q 670 863 670 953 q 646 776 670 810 q 589 717 621 742 q 533 668 558 692 q 509 610 509 644 q 537 547 509 573 q 609 495 566 520 q 694 437 652 469 q 766 357 737 405 q 795 238 795 310 q 758 99 795 155 q 661 13 722 42 q 529 -16 600 -16 q 427 -4 472 -16 q 345 33 382 9 l 394 115 q 454 90 420 100 q 518 80 487 80 q 631 118 590 80 q 673 231 673 155 q 644 322 673 286 q 573 385 615 358 q 489 439 531 412 q 419 503 447 467 q 390 596 390 540 q 407 665 390 637 q 448 714 424 693 q 498 754 473 735 q 540 796 523 774 q 556 850 556 819 q 544 905 556 877 q 502 952 532 932 q 422 971 473 971 q 299 925 342 971 q 256 768 256 878 l 256 0 l 137 0 l 137 760 q 213 989 137 911 q 422 1067 288 1067 z "},"t":{"ha":855,"x_min":113,"x_max":739,"o":"m 739 38 q 645 -2 700 12 q 538 -16 590 -16 q 351 47 417 -16 q 286 210 286 110 l 286 657 l 113 657 l 113 750 l 286 750 l 286 920 l 405 934 l 405 750 l 665 750 l 650 657 l 405 657 l 405 212 q 438 116 405 149 q 548 83 472 83 q 626 93 590 83 q 692 119 662 103 l 739 38 z "},"ŧ":{"ha":855,"x_min":113,"x_max":739,"o":"m 739 38 q 645 -2 700 12 q 538 -16 590 -16 q 351 47 417 -16 q 286 210 286 110 l 286 410 l 129 410 l 129 501 l 286 501 l 286 657 l 113 657 l 113 750 l 286 750 l 286 920 l 405 934 l 405 750 l 665 750 l 650 657 l 405 657 l 405 501 l 652 501 l 652 410 l 405 410 l 405 212 q 438 116 405 149 q 548 83 472 83 q 626 93 590 83 q 692 119 662 103 l 739 38 z "},"ť":{"ha":855,"x_min":113,"x_max":739,"o":"m 739 38 q 645 -2 700 12 q 538 -16 590 -16 q 351 47 417 -16 q 286 210 286 110 l 286 657 l 113 657 l 113 750 l 286 750 l 286 920 l 405 934 l 405 750 l 665 750 l 650 657 l 405 657 l 405 212 q 438 116 405 149 q 548 83 472 83 q 626 93 590 83 q 692 119 662 103 l 739 38 m 517 1084 l 626 1071 l 550 818 l 482 828 l 517 1084 z "},"ţ":{"ha":855,"x_min":113,"x_max":739,"o":"m 739 38 q 645 -2 700 12 q 538 -16 590 -16 q 351 47 417 -16 q 286 210 286 110 l 286 657 l 113 657 l 113 750 l 286 750 l 286 920 l 405 934 l 405 750 l 665 750 l 650 657 l 405 657 l 405 212 q 438 116 405 149 q 548 83 472 83 q 626 93 590 83 q 692 119 662 103 l 739 38 m 587 -200 q 553 -150 587 -162 q 463 -139 520 -139 l 476 23 l 558 23 l 558 -81 q 658 -122 627 -87 q 689 -200 689 -157 q 637 -305 689 -270 q 516 -340 585 -340 q 434 -330 473 -340 q 367 -305 395 -321 l 405 -236 q 452 -252 425 -246 q 501 -259 478 -259 q 563 -245 539 -259 q 587 -200 587 -232 z "},"ț":{"ha":855,"x_min":113,"x_max":739,"o":"m 739 38 q 645 -2 700 12 q 538 -16 590 -16 q 351 47 417 -16 q 286 210 286 110 l 286 657 l 113 657 l 113 750 l 286 750 l 286 920 l 405 934 l 405 750 l 665 750 l 650 657 l 405 657 l 405 212 q 438 116 405 149 q 548 83 472 83 q 626 93 590 83 q 692 119 662 103 l 739 38 m 534 -100 q 589 -122 566 -100 q 611 -177 611 -144 q 590 -255 611 -208 l 519 -407 l 446 -407 l 487 -241 q 457 -177 457 -216 q 479 -122 457 -144 q 534 -100 501 -100 z "},"u":{"ha":855,"x_min":143,"x_max":712,"o":"m 263 750 l 263 219 q 293 112 263 145 q 389 79 324 79 q 506 114 451 79 q 592 198 561 150 l 592 750 l 712 750 l 712 0 l 610 0 l 600 101 q 490 14 556 44 q 360 -16 425 -16 q 197 42 251 -16 q 143 204 143 100 l 143 750 l 263 750 z "},"ú":{"ha":855,"x_min":143,"x_max":712,"o":"m 263 750 l 263 219 q 293 112 263 145 q 389 79 324 79 q 506 114 451 79 q 592 198 561 150 l 592 750 l 712 750 l 712 0 l 610 0 l 600 101 q 490 14 556 44 q 360 -16 425 -16 q 197 42 251 -16 q 143 204 143 100 l 143 750 l 263 750 m 546 1135 l 602 1033 l 304 912 l 267 976 l 546 1135 z "},"ŭ":{"ha":855,"x_min":143,"x_max":712,"o":"m 263 750 l 263 219 q 293 112 263 145 q 389 79 324 79 q 506 114 451 79 q 592 198 561 150 l 592 750 l 712 750 l 712 0 l 610 0 l 600 101 q 490 14 556 44 q 360 -16 425 -16 q 197 42 251 -16 q 143 204 143 100 l 143 750 l 263 750 m 424 897 q 315 928 360 897 q 245 1002 270 958 q 214 1090 220 1047 l 297 1109 q 343 1022 312 1056 q 424 989 374 989 q 509 1022 476 989 q 556 1109 541 1056 l 639 1090 q 607 1002 633 1047 q 536 928 581 958 q 424 897 490 897 z "},"û":{"ha":855,"x_min":143,"x_max":712,"o":"m 263 750 l 263 219 q 293 112 263 145 q 389 79 324 79 q 506 114 451 79 q 592 198 561 150 l 592 750 l 712 750 l 712 0 l 610 0 l 600 101 q 490 14 556 44 q 360 -16 425 -16 q 197 42 251 -16 q 143 204 143 100 l 143 750 l 263 750 m 252 896 l 195 955 l 388 1125 l 469 1125 l 660 955 l 606 896 l 429 1025 l 252 896 z "},"ü":{"ha":855,"x_min":143,"x_max":712,"o":"m 263 750 l 263 219 q 293 112 263 145 q 389 79 324 79 q 506 114 451 79 q 592 198 561 150 l 592 750 l 712 750 l 712 0 l 610 0 l 600 101 q 490 14 556 44 q 360 -16 425 -16 q 197 42 251 -16 q 143 204 143 100 l 143 750 l 263 750 m 280 924 q 224 945 246 924 q 202 999 202 967 q 224 1054 202 1033 q 280 1076 246 1076 q 334 1054 312 1076 q 357 999 357 1033 q 334 945 357 967 q 280 924 312 924 m 573 924 q 519 945 541 924 q 496 999 496 967 q 519 1054 496 1033 q 573 1076 541 1076 q 629 1054 607 1076 q 652 999 652 1033 q 629 945 652 967 q 573 924 607 924 z "},"ù":{"ha":855,"x_min":143,"x_max":712,"o":"m 263 750 l 263 219 q 293 112 263 145 q 389 79 324 79 q 506 114 451 79 q 592 198 561 150 l 592 750 l 712 750 l 712 0 l 610 0 l 600 101 q 490 14 556 44 q 360 -16 425 -16 q 197 42 251 -16 q 143 204 143 100 l 143 750 l 263 750 m 551 886 l 263 1019 l 327 1120 l 590 952 l 551 886 z "},"ű":{"ha":855,"x_min":143,"x_max":715,"o":"m 263 750 l 263 219 q 293 112 263 145 q 389 79 324 79 q 506 114 451 79 q 592 198 561 150 l 592 750 l 712 750 l 712 0 l 610 0 l 600 101 q 490 14 556 44 q 360 -16 425 -16 q 197 42 251 -16 q 143 204 143 100 l 143 750 l 263 750 m 252 943 l 363 1190 l 469 1140 l 330 907 l 252 943 m 486 943 l 611 1190 l 715 1135 l 561 903 l 486 943 z "},"ū":{"ha":855,"x_min":143,"x_max":712,"o":"m 263 750 l 263 219 q 293 112 263 145 q 389 79 324 79 q 506 114 451 79 q 592 198 561 150 l 592 750 l 712 750 l 712 0 l 610 0 l 600 101 q 490 14 556 44 q 360 -16 425 -16 q 197 42 251 -16 q 143 204 143 100 l 143 750 l 263 750 m 618 963 l 235 963 l 235 1054 l 618 1054 l 618 963 z "},"ų":{"ha":855,"x_min":143,"x_max":712,"o":"m 263 750 l 263 219 q 293 112 263 145 q 389 79 324 79 q 506 114 451 79 q 592 198 561 150 l 592 750 l 712 750 l 712 0 l 610 0 l 600 101 q 490 14 556 44 q 360 -16 425 -16 q 197 42 251 -16 q 143 204 143 100 l 143 750 l 263 750 m 693 43 l 712 0 q 600 -60 638 -33 q 548 -113 562 -88 q 535 -163 535 -138 q 552 -213 535 -195 q 615 -231 570 -231 q 703 -222 655 -231 l 690 -317 q 649 -324 669 -321 q 600 -327 628 -327 q 473 -286 519 -327 q 427 -187 427 -246 q 490 -54 427 -112 q 693 43 553 3 z "},"ů":{"ha":855,"x_min":143,"x_max":712,"o":"m 263 750 l 263 219 q 293 112 263 145 q 389 79 324 79 q 506 114 451 79 q 592 198 561 150 l 592 750 l 712 750 l 712 0 l 610 0 l 600 101 q 490 14 556 44 q 360 -16 425 -16 q 197 42 251 -16 q 143 204 143 100 l 143 750 l 263 750 m 427 1173 q 541 1131 496 1173 q 585 1026 585 1088 q 541 924 585 966 q 427 882 496 882 q 314 924 358 882 q 269 1026 269 966 q 314 1131 269 1088 q 427 1173 358 1173 m 427 1108 q 371 1086 392 1108 q 350 1026 350 1064 q 371 968 350 989 q 427 946 392 946 q 484 968 464 946 q 504 1026 504 989 q 484 1086 504 1064 q 427 1108 464 1108 z "},"ũ":{"ha":855,"x_min":143,"x_max":712,"o":"m 263 750 l 263 219 q 293 112 263 145 q 389 79 324 79 q 506 114 451 79 q 592 198 561 150 l 592 750 l 712 750 l 712 0 l 610 0 l 600 101 q 490 14 556 44 q 360 -16 425 -16 q 197 42 251 -16 q 143 204 143 100 l 143 750 l 263 750 m 511 938 q 446 955 473 938 q 394 990 418 972 q 345 1007 370 1007 q 303 990 321 1007 q 269 941 286 973 l 193 979 q 255 1064 217 1030 q 345 1099 293 1099 q 412 1082 385 1099 q 461 1048 439 1065 q 511 1031 484 1031 q 586 1093 548 1031 l 662 1055 q 511 938 607 938 z "},"v":{"ha":855,"x_min":86,"x_max":769,"o":"m 769 750 l 496 0 l 357 0 l 86 750 l 213 750 l 430 109 l 645 750 l 769 750 z "},"w":{"ha":855,"x_min":25,"x_max":830,"o":"m 699 0 l 529 0 l 432 551 l 327 0 l 162 0 l 25 750 l 147 750 l 243 74 l 363 655 l 504 655 l 618 74 l 713 750 l 830 750 l 699 0 z "},"ẃ":{"ha":855,"x_min":25,"x_max":830,"o":"m 699 0 l 529 0 l 432 551 l 327 0 l 162 0 l 25 750 l 147 750 l 243 74 l 363 655 l 504 655 l 618 74 l 713 750 l 830 750 l 699 0 m 546 1135 l 602 1033 l 304 912 l 267 976 l 546 1135 z "},"ŵ":{"ha":855,"x_min":25,"x_max":830,"o":"m 699 0 l 529 0 l 432 551 l 327 0 l 162 0 l 25 750 l 147 750 l 243 74 l 363 655 l 504 655 l 618 74 l 713 750 l 830 750 l 699 0 m 252 896 l 195 955 l 388 1125 l 469 1125 l 660 955 l 606 896 l 429 1025 l 252 896 z "},"ẅ":{"ha":855,"x_min":25,"x_max":830,"o":"m 699 0 l 529 0 l 432 551 l 327 0 l 162 0 l 25 750 l 147 750 l 243 74 l 363 655 l 504 655 l 618 74 l 713 750 l 830 750 l 699 0 m 280 924 q 224 945 246 924 q 202 999 202 967 q 224 1054 202 1033 q 280 1076 246 1076 q 334 1054 312 1076 q 357 999 357 1033 q 334 945 357 967 q 280 924 312 924 m 573 924 q 519 945 541 924 q 496 999 496 967 q 519 1054 496 1033 q 573 1076 541 1076 q 629 1054 607 1076 q 652 999 652 1033 q 629 945 652 967 q 573 924 607 924 z "},"ẁ":{"ha":855,"x_min":25,"x_max":830,"o":"m 699 0 l 529 0 l 432 551 l 327 0 l 162 0 l 25 750 l 147 750 l 243 74 l 363 655 l 504 655 l 618 74 l 713 750 l 830 750 l 699 0 m 551 886 l 263 1019 l 327 1120 l 590 952 l 551 886 z "},"x":{"ha":855,"x_min":79,"x_max":776,"o":"m 216 0 l 79 0 l 356 396 l 113 750 l 255 750 l 429 471 l 605 750 l 741 750 l 499 401 l 776 0 l 629 0 l 424 322 l 216 0 z "},"y":{"ha":855,"x_min":88,"x_max":767,"o":"m 767 750 l 504 -5 q 437 -145 477 -81 q 332 -250 397 -208 q 169 -301 268 -291 l 150 -206 q 273 -167 228 -193 q 344 -99 318 -140 q 390 0 370 -58 l 350 0 l 88 750 l 216 750 l 431 91 l 643 750 l 767 750 z "},"ý":{"ha":855,"x_min":88,"x_max":767,"o":"m 767 750 l 504 -5 q 437 -145 477 -81 q 332 -250 397 -208 q 169 -301 268 -291 l 150 -206 q 273 -167 228 -193 q 344 -99 318 -140 q 390 0 370 -58 l 350 0 l 88 750 l 216 750 l 431 91 l 643 750 l 767 750 m 546 1135 l 602 1033 l 304 912 l 267 976 l 546 1135 z "},"ŷ":{"ha":855,"x_min":88,"x_max":767,"o":"m 767 750 l 504 -5 q 437 -145 477 -81 q 332 -250 397 -208 q 169 -301 268 -291 l 150 -206 q 273 -167 228 -193 q 344 -99 318 -140 q 390 0 370 -58 l 350 0 l 88 750 l 216 750 l 431 91 l 643 750 l 767 750 m 252 896 l 195 955 l 388 1125 l 469 1125 l 660 955 l 606 896 l 429 1025 l 252 896 z "},"ÿ":{"ha":855,"x_min":88,"x_max":767,"o":"m 767 750 l 504 -5 q 437 -145 477 -81 q 332 -250 397 -208 q 169 -301 268 -291 l 150 -206 q 273 -167 228 -193 q 344 -99 318 -140 q 390 0 370 -58 l 350 0 l 88 750 l 216 750 l 431 91 l 643 750 l 767 750 m 280 924 q 224 945 246 924 q 202 999 202 967 q 224 1054 202 1033 q 280 1076 246 1076 q 334 1054 312 1076 q 357 999 357 1033 q 334 945 357 967 q 280 924 312 924 m 573 924 q 519 945 541 924 q 496 999 496 967 q 519 1054 496 1033 q 573 1076 541 1076 q 629 1054 607 1076 q 652 999 652 1033 q 629 945 652 967 q 573 924 607 924 z "},"ỳ":{"ha":855,"x_min":88,"x_max":767,"o":"m 767 750 l 504 -5 q 437 -145 477 -81 q 332 -250 397 -208 q 169 -301 268 -291 l 150 -206 q 273 -167 228 -193 q 344 -99 318 -140 q 390 0 370 -58 l 350 0 l 88 750 l 216 750 l 431 91 l 643 750 l 767 750 m 551 886 l 263 1019 l 327 1120 l 590 952 l 551 886 z "},"z":{"ha":855,"x_min":146,"x_max":710,"o":"m 293 102 l 710 102 l 694 0 l 146 0 l 146 90 l 562 646 l 179 646 l 179 750 l 706 750 l 706 657 l 293 102 z "},"ź":{"ha":855,"x_min":146,"x_max":710,"o":"m 293 102 l 710 102 l 694 0 l 146 0 l 146 90 l 562 646 l 179 646 l 179 750 l 706 750 l 706 657 l 293 102 m 561 1135 l 617 1033 l 319 912 l 282 976 l 561 1135 z "},"ž":{"ha":855,"x_min":146,"x_max":710,"o":"m 293 102 l 710 102 l 694 0 l 146 0 l 146 90 l 562 646 l 179 646 l 179 750 l 706 750 l 706 657 l 293 102 m 621 1125 l 675 1065 l 484 896 l 403 896 l 210 1065 l 267 1125 l 444 995 l 621 1125 z "},"ż":{"ha":855,"x_min":146,"x_max":710,"o":"m 293 102 l 710 102 l 694 0 l 146 0 l 146 90 l 562 646 l 179 646 l 179 750 l 706 750 l 706 657 l 293 102 m 441 1101 q 504 1077 480 1101 q 528 1018 528 1053 q 504 957 528 981 q 441 932 480 932 q 379 957 402 932 q 355 1018 355 981 q 379 1077 355 1053 q 441 1101 402 1101 z "},"ⁿ":{"ha":855,"x_min":239,"x_max":618,"o":"m 473 1030 q 583 991 548 1030 q 618 883 618 952 l 618 538 l 516 538 l 516 828 q 504 921 516 892 q 449 949 492 949 q 388 927 417 949 q 340 881 359 906 l 340 538 l 239 538 l 239 1021 l 330 1021 l 334 962 q 401 1014 363 997 q 473 1030 439 1030 z "},"ª":{"ha":855,"x_min":145,"x_max":710,"o":"m 413 1067 q 592 1014 533 1067 q 650 868 650 961 l 650 586 q 662 538 650 554 q 697 515 674 523 l 670 437 q 597 463 626 443 q 553 522 568 482 q 467 460 517 481 q 362 438 416 438 q 205 490 264 438 q 145 626 145 541 q 228 771 145 722 q 454 821 310 821 l 538 821 l 538 864 q 501 949 538 924 q 397 975 464 975 q 321 967 367 975 q 224 941 276 959 l 192 1024 q 309 1058 254 1048 q 413 1067 365 1067 m 538 741 l 455 741 q 311 713 355 741 q 266 632 266 684 q 298 550 266 577 q 388 522 330 522 q 470 543 431 522 q 538 602 510 565 l 538 741 m 710 108 l 710 0 l 150 0 l 150 108 l 710 108 z "},"º":{"ha":855,"x_min":137,"x_max":717,"o":"m 427 1067 q 639 982 561 1067 q 717 753 717 897 q 681 589 717 660 q 580 478 645 518 q 427 438 516 438 q 273 477 338 438 q 172 587 208 516 q 137 753 137 657 q 173 916 137 845 q 274 1027 209 987 q 427 1067 339 1067 m 427 975 q 303 921 349 975 q 256 753 256 867 q 303 584 256 638 q 427 529 349 529 q 551 584 506 529 q 597 753 597 638 q 551 921 597 867 q 427 975 506 975 m 708 108 l 708 0 l 149 0 l 149 108 l 708 108 z "},"А":{"ha":855,"x_min":29,"x_max":825,"o":"m 618 250 l 229 250 l 151 0 l 29 0 l 348 981 l 506 981 l 825 0 l 696 0 l 618 250 m 261 353 l 585 353 l 425 877 l 261 353 z "},"Б":{"ha":855,"x_min":143,"x_max":773,"o":"m 692 981 l 679 878 l 267 878 l 267 599 l 391 599 q 671 530 568 599 q 773 306 773 461 q 724 126 773 193 q 589 30 675 59 q 392 0 504 0 l 143 0 l 143 981 l 692 981 m 408 501 l 267 501 l 267 100 l 408 100 q 529 117 476 100 q 613 177 582 133 q 643 304 643 222 q 577 457 643 413 q 408 501 511 501 z "},"В":{"ha":855,"x_min":137,"x_max":769,"o":"m 769 280 q 737 146 769 199 q 652 60 705 92 q 534 14 599 28 q 401 0 469 0 l 137 0 l 137 981 l 379 981 q 505 969 443 981 q 617 929 567 957 q 696 853 667 901 q 726 734 726 806 q 700 626 726 670 q 632 556 674 583 q 543 519 590 530 q 649 485 598 510 q 735 412 701 461 q 769 280 769 363 m 599 727 q 547 846 599 811 q 407 881 496 881 l 261 881 l 261 563 l 419 563 q 552 602 506 563 q 599 727 599 641 m 638 276 q 609 390 638 350 q 533 446 580 430 q 428 462 485 462 l 261 462 l 261 102 l 422 102 q 521 115 471 102 q 604 166 571 128 q 638 276 638 203 z "},"Г":{"ha":855,"x_min":194,"x_max":776,"o":"m 776 981 l 763 873 l 317 873 l 317 0 l 194 0 l 194 981 l 776 981 z "},"Ѓ":{"ha":855,"x_min":194,"x_max":776,"o":"m 776 981 l 763 873 l 317 873 l 317 0 l 194 0 l 194 981 l 776 981 m 614 1291 l 668 1188 l 364 1076 l 332 1140 l 614 1291 z "},"Ґ":{"ha":855,"x_min":194,"x_max":776,"o":"m 776 981 l 763 873 l 317 873 l 317 0 l 194 0 l 194 981 l 655 981 l 655 1189 l 776 1189 l 776 981 z "},"Ӷ":{"ha":855,"x_min":194,"x_max":776,"o":"m 402 103 l 402 -209 l 303 -209 l 283 0 l 194 0 l 194 981 l 776 981 l 763 873 l 317 873 l 317 103 l 402 103 z "},"Ғ":{"ha":855,"x_min":94,"x_max":819,"o":"m 585 617 l 585 522 l 360 522 l 360 0 l 237 0 l 237 522 l 94 522 l 94 617 l 237 617 l 237 981 l 819 981 l 806 873 l 360 873 l 360 617 l 585 617 z "},"Ҕ":{"ha":855,"x_min":121,"x_max":783,"o":"m 576 -301 q 481 -285 521 -301 q 416 -249 442 -268 l 462 -167 q 511 -191 488 -182 q 571 -200 535 -200 q 660 -93 660 -200 l 660 1 l 660 1 l 660 334 q 615 481 660 429 q 482 532 571 532 q 348 502 403 532 q 244 418 292 472 l 244 0 l 121 0 l 121 981 l 669 981 l 653 878 l 244 878 l 244 532 q 356 612 293 584 q 503 640 418 640 q 707 559 631 640 q 783 335 783 479 l 783 0 l 783 0 l 783 -86 q 726 -248 783 -194 q 576 -301 670 -301 z "},"Д":{"ha":855,"x_min":0,"x_max":804,"o":"m 0 103 l 61 103 q 108 171 90 132 q 140 273 127 209 q 168 439 154 337 q 203 699 182 542 l 240 981 l 731 981 l 731 103 l 804 103 l 804 -209 l 706 -209 l 685 0 l 655 0 l 655 0 l 150 0 l 150 0 l 119 0 l 98 -209 l 0 -209 l 0 103 m 606 876 l 348 876 l 327 690 q 297 442 310 542 q 269 278 283 343 q 233 173 254 214 q 180 103 212 132 l 606 103 l 606 876 z "},"Е":{"ha":855,"x_min":179,"x_max":749,"o":"m 303 880 l 303 549 l 666 549 l 666 447 l 303 447 l 303 99 l 749 99 l 749 0 l 179 0 l 179 981 l 736 981 l 722 880 l 303 880 z "},"Ѐ":{"ha":855,"x_min":179,"x_max":749,"o":"m 303 880 l 303 549 l 666 549 l 666 447 l 303 447 l 303 99 l 749 99 l 749 0 l 179 0 l 179 981 l 736 981 l 722 880 l 303 880 m 359 1296 l 622 1140 l 585 1076 l 292 1193 l 359 1296 z "},"Ё":{"ha":855,"x_min":179,"x_max":749,"o":"m 303 880 l 303 549 l 666 549 l 666 447 l 303 447 l 303 99 l 749 99 l 749 0 l 179 0 l 179 981 l 736 981 l 722 880 l 303 880 z "},"Ж":{"ha":855,"x_min":17,"x_max":838,"o":"m 373 465 l 284 465 l 137 0 l 17 0 l 192 519 l 38 981 l 157 981 l 286 566 l 373 566 l 373 981 l 482 981 l 482 566 l 569 566 l 699 981 l 817 981 l 663 519 l 838 0 l 715 0 l 569 465 l 482 465 l 482 0 l 373 0 l 373 465 z "},"З":{"ha":855,"x_min":50,"x_max":770,"o":"m 400 996 q 579 964 504 996 q 696 874 655 932 q 737 741 737 817 q 709 637 737 681 q 636 567 682 593 q 534 533 590 541 q 649 500 595 528 q 736 420 703 472 q 770 291 770 368 q 725 134 770 204 q 595 24 679 64 q 395 -16 511 -16 q 203 20 291 -16 q 50 123 114 56 l 126 192 q 251 115 184 142 q 397 88 318 88 q 574 141 511 88 q 637 287 637 195 q 572 430 637 386 q 408 474 506 474 l 234 474 l 249 578 l 398 578 q 501 595 453 578 q 580 647 550 612 q 610 739 610 682 q 549 857 610 818 q 398 896 488 896 q 255 870 316 896 q 139 801 194 845 l 69 875 q 223 966 142 936 q 400 996 305 996 z "},"И":{"ha":855,"x_min":119,"x_max":736,"o":"m 119 0 l 119 981 l 241 981 l 241 485 q 239 334 241 398 q 232 217 236 270 q 221 109 227 164 l 577 981 l 736 981 l 736 0 l 613 0 l 613 496 q 620 703 613 609 q 635 864 627 796 l 280 0 l 119 0 z "},"Й":{"ha":855,"x_min":119,"x_max":736,"o":"m 119 0 l 119 981 l 241 981 l 241 485 q 239 334 241 398 q 232 217 236 270 q 221 109 227 164 l 577 981 l 736 981 l 736 0 l 613 0 l 613 496 q 620 703 613 609 q 635 864 627 796 l 280 0 l 119 0 z "},"Ѝ":{"ha":855,"x_min":119,"x_max":736,"o":"m 119 0 l 119 981 l 241 981 l 241 485 q 239 334 241 398 q 232 217 236 270 q 221 109 227 164 l 577 981 l 736 981 l 736 0 l 613 0 l 613 496 q 620 703 613 609 q 635 864 627 796 l 280 0 l 119 0 m 329 1296 l 592 1140 l 556 1076 l 262 1193 l 329 1296 z "},"Ҋ":{"ha":855,"x_min":119,"x_max":864,"o":"m 424 1100 q 282 1141 343 1100 q 214 1261 222 1182 l 297 1279 q 343 1213 312 1233 q 424 1194 374 1194 q 507 1213 474 1194 q 556 1279 541 1233 l 638 1261 q 568 1141 630 1182 q 424 1100 507 1100 m 119 0 l 119 981 l 241 981 l 241 485 q 239 334 241 398 q 232 217 236 270 q 221 109 227 164 l 577 981 l 736 981 l 736 98 l 864 98 l 754 -209 l 657 -209 l 706 0 l 613 0 l 613 496 q 620 703 613 609 q 635 864 627 796 l 280 0 l 119 0 z "},"К":{"ha":855,"x_min":135,"x_max":835,"o":"m 372 464 l 259 464 l 259 0 l 135 0 l 135 981 l 259 981 l 259 568 l 374 568 l 675 981 l 808 981 l 478 519 l 835 0 l 686 0 l 372 464 z "},"Ќ":{"ha":855,"x_min":135,"x_max":835,"o":"m 372 464 l 259 464 l 259 0 l 135 0 l 135 981 l 259 981 l 259 568 l 374 568 l 675 981 l 808 981 l 478 519 l 835 0 l 686 0 l 372 464 m 572 1291 l 626 1188 l 322 1076 l 290 1140 l 572 1291 z "},"Л":{"ha":855,"x_min":21,"x_max":736,"o":"m 736 981 l 736 0 l 613 0 l 613 875 l 348 875 l 314 584 q 280 355 297 448 q 243 202 263 263 q 199 103 223 142 q 144 37 175 64 q 75 -16 114 11 l 21 76 q 67 120 45 96 q 108 191 88 145 q 147 322 128 237 q 185 549 167 407 l 241 981 l 736 981 z "},"М":{"ha":855,"x_min":43,"x_max":811,"o":"m 756 981 l 811 0 l 692 0 l 662 512 q 656 652 658 580 q 654 781 655 723 q 654 868 653 839 l 489 176 l 365 176 l 187 868 q 189 779 189 840 q 189 647 190 719 q 186 514 189 575 l 160 0 l 43 0 l 99 981 l 271 981 l 430 309 l 582 981 l 756 981 z "},"Н":{"ha":855,"x_min":119,"x_max":736,"o":"m 613 0 l 613 465 l 242 465 l 242 0 l 119 0 l 119 981 l 242 981 l 242 566 l 613 566 l 613 981 l 736 981 l 736 0 l 613 0 z "},"О":{"ha":855,"x_min":66,"x_max":788,"o":"m 788 489 q 748 226 788 340 q 627 48 707 113 q 427 -16 547 -16 q 228 47 308 -16 q 107 223 147 110 q 66 488 66 336 q 107 751 66 637 q 228 931 147 866 q 427 996 308 996 q 627 933 547 996 q 748 755 707 870 q 788 489 788 641 m 659 489 q 605 789 659 685 q 427 893 551 893 q 250 788 303 893 q 196 488 196 684 q 251 190 196 292 q 427 88 307 88 q 605 191 551 88 q 659 489 659 293 z "},"П":{"ha":855,"x_min":119,"x_max":736,"o":"m 613 0 l 613 873 l 242 873 l 242 0 l 119 0 l 119 981 l 736 981 l 736 0 l 613 0 z "},"Р":{"ha":855,"x_min":165,"x_max":793,"o":"m 793 679 q 745 496 793 565 q 610 395 696 427 q 414 364 525 364 l 288 364 l 288 0 l 165 0 l 165 981 l 415 981 q 692 907 590 981 q 793 679 793 834 m 661 678 q 631 798 661 754 q 549 863 601 843 q 430 882 496 882 l 288 882 l 288 464 l 425 464 q 547 482 494 464 q 631 547 600 501 q 661 678 661 594 z "},"С":{"ha":855,"x_min":90,"x_max":808,"o":"m 510 996 q 671 972 606 996 q 794 901 736 948 l 725 821 q 627 876 679 860 q 519 893 575 893 q 370 855 439 893 q 260 729 302 817 q 219 491 219 641 q 258 256 219 345 q 365 129 298 168 q 516 90 433 90 q 652 115 598 90 q 744 172 706 140 l 808 90 q 692 15 764 47 q 515 -16 620 -16 q 299 42 395 -16 q 147 213 203 100 q 90 491 90 326 q 148 769 90 656 q 301 939 205 882 q 510 996 396 996 z "},"Т":{"ha":855,"x_min":57,"x_max":797,"o":"m 486 875 l 486 0 l 363 0 l 363 875 l 57 875 l 57 981 l 797 981 l 784 875 l 486 875 z "},"У":{"ha":855,"x_min":38,"x_max":826,"o":"m 826 981 l 526 256 q 450 119 492 175 q 342 30 407 63 q 173 -16 276 -4 l 155 83 q 275 113 229 93 q 352 171 321 133 q 410 270 382 208 l 361 270 l 38 981 l 166 981 l 447 350 l 702 981 l 826 981 z "},"Ў":{"ha":855,"x_min":38,"x_max":826,"o":"m 826 981 l 526 256 q 450 119 492 175 q 342 30 407 63 q 173 -16 276 -4 l 155 83 q 275 113 229 93 q 352 171 321 133 q 410 270 382 208 l 361 270 l 38 981 l 166 981 l 447 350 l 702 981 l 826 981 m 439 1080 q 297 1127 357 1080 q 229 1251 237 1174 l 311 1269 q 357 1200 326 1226 q 439 1174 388 1174 q 522 1200 489 1174 q 571 1269 556 1226 l 653 1251 q 583 1127 645 1174 q 439 1080 521 1080 z "},"Ф":{"ha":855,"x_min":19,"x_max":836,"o":"m 488 1022 l 488 939 q 751 816 666 927 q 836 494 836 704 q 746 164 836 276 q 488 45 655 53 l 488 -41 l 367 -41 l 367 45 q 109 163 199 52 q 19 494 19 275 q 104 816 19 704 q 367 939 189 927 l 367 1022 l 488 1022 m 368 848 q 199 765 254 844 q 144 494 144 685 q 197 229 144 313 q 368 136 250 145 l 368 848 m 486 848 l 486 136 q 658 229 605 145 q 711 494 711 313 q 656 765 711 685 q 486 848 600 844 z "},"Х":{"ha":855,"x_min":44,"x_max":811,"o":"m 71 981 l 212 981 l 427 604 l 643 981 l 777 981 l 499 529 l 811 0 l 669 0 l 425 443 l 177 0 l 44 0 l 352 523 l 71 981 z "},"Ч":{"ha":855,"x_min":72,"x_max":736,"o":"m 196 981 l 196 613 q 246 468 196 514 q 388 421 296 421 q 521 446 467 421 q 613 507 575 471 l 613 981 l 736 981 l 736 0 l 613 0 l 613 401 q 493 334 549 355 q 358 313 436 313 q 208 348 272 313 q 108 449 144 384 q 72 602 72 514 l 72 981 l 196 981 z "},"Ц":{"ha":855,"x_min":119,"x_max":823,"o":"m 119 0 l 119 981 l 242 981 l 242 103 l 613 103 l 613 981 l 736 981 l 736 103 l 823 103 l 823 -209 l 725 -209 l 704 0 l 119 0 z "},"Ш":{"ha":855,"x_min":66,"x_max":788,"o":"m 788 981 l 788 0 l 66 0 l 66 981 l 182 981 l 182 103 l 372 103 l 372 981 l 483 981 l 483 103 l 672 103 l 672 981 l 788 981 z "},"Щ":{"ha":855,"x_min":66,"x_max":877,"o":"m 877 103 l 877 -209 l 778 -209 l 758 0 l 66 0 l 66 981 l 182 981 l 182 103 l 372 103 l 372 981 l 483 981 l 483 103 l 672 103 l 672 981 l 788 981 l 788 103 l 877 103 z "},"Џ":{"ha":855,"x_min":119,"x_max":736,"o":"m 119 0 l 119 981 l 242 981 l 242 103 l 613 103 l 613 981 l 736 981 l 736 0 l 486 0 l 474 -209 l 380 -209 l 368 0 l 119 0 z "},"Ь":{"ha":855,"x_min":135,"x_max":786,"o":"m 258 981 l 258 618 l 405 618 q 684 546 583 618 q 786 316 786 474 q 737 132 786 202 q 603 31 688 63 q 407 0 517 0 l 135 0 l 135 981 l 258 981 m 422 519 l 258 519 l 258 100 l 422 100 q 540 118 487 100 q 623 182 592 135 q 653 314 653 228 q 623 435 653 390 q 541 500 593 480 q 422 519 489 519 z "},"Ы":{"ha":855,"x_min":44,"x_max":811,"o":"m 170 981 l 170 616 l 259 616 q 526 538 438 616 q 613 316 613 461 q 521 78 613 156 q 262 0 429 0 l 44 0 l 44 981 l 170 981 m 811 981 l 811 0 l 685 0 l 685 981 l 811 981 m 273 522 l 170 522 l 170 99 l 274 99 q 428 148 375 99 q 482 314 482 197 q 273 522 482 522 z "},"Ъ":{"ha":855,"x_min":1,"x_max":828,"o":"m 298 981 l 298 618 l 449 618 q 727 546 625 618 q 828 316 828 474 q 780 131 828 201 q 646 31 731 62 q 449 0 560 0 l 173 0 l 173 873 l 1 873 l 1 981 l 298 981 m 469 519 l 298 519 l 298 101 l 471 101 q 587 119 536 101 q 669 182 639 136 q 699 314 699 228 q 669 434 699 390 q 587 499 639 479 q 469 519 535 519 z "},"Љ":{"ha":855,"x_min":2,"x_max":855,"o":"m 506 981 l 506 618 q 768 545 681 618 q 855 316 855 472 q 764 73 855 146 q 516 0 673 0 l 384 0 l 384 879 l 250 879 l 217 442 q 194 231 207 311 q 163 106 181 152 q 121 35 145 61 q 66 -16 98 9 l 2 66 q 32 106 19 83 q 58 169 46 130 q 80 275 71 209 q 98 446 90 341 l 141 981 l 506 981 m 528 521 l 506 521 l 506 100 l 527 100 q 635 118 590 100 q 703 182 679 135 q 726 314 726 228 q 675 475 726 429 q 528 521 625 521 z "},"Њ":{"ha":855,"x_min":59,"x_max":855,"o":"m 505 981 l 505 589 q 767 521 680 590 q 855 303 855 452 q 813 125 855 191 q 696 29 772 58 q 518 0 620 0 l 383 0 l 383 497 l 180 497 l 180 0 l 59 0 l 59 981 l 180 981 l 180 589 l 383 589 l 383 981 l 505 981 m 528 496 l 505 496 l 505 98 l 528 98 q 635 113 590 97 q 702 172 679 128 q 726 301 726 217 q 675 454 726 412 q 528 496 625 496 z "},"Ѕ":{"ha":855,"x_min":62,"x_max":764,"o":"m 764 271 q 722 122 764 187 q 600 20 680 57 q 406 -16 520 -16 q 211 16 298 -16 q 62 109 124 49 l 135 192 q 252 116 186 144 q 408 88 318 88 q 520 107 468 88 q 604 167 572 127 q 636 269 636 207 q 618 350 636 316 q 552 410 599 384 q 421 461 505 436 q 253 525 324 489 q 144 614 182 561 q 105 744 105 666 q 145 875 105 818 q 257 964 186 932 q 422 996 329 996 q 599 968 524 996 q 736 885 675 939 l 663 804 q 550 872 610 850 q 427 893 489 893 q 288 858 346 893 q 231 749 231 822 q 254 676 231 706 q 330 620 276 645 q 478 567 385 594 q 619 512 554 545 q 724 422 684 479 q 764 271 764 365 z "},"Є":{"ha":855,"x_min":82,"x_max":801,"o":"m 502 996 q 663 972 597 996 q 786 902 729 947 l 723 825 q 620 879 673 862 q 509 896 566 896 q 371 863 435 896 q 265 756 307 830 q 213 556 222 681 l 646 556 l 646 452 l 210 452 q 256 242 216 323 q 363 124 297 162 q 509 87 429 87 q 645 113 591 87 q 735 172 699 140 l 801 91 q 683 17 756 50 q 504 -16 610 -16 q 286 42 382 -16 q 136 213 191 100 q 82 491 82 326 q 140 769 82 656 q 293 939 197 882 q 502 996 389 996 z "},"Э":{"ha":855,"x_min":60,"x_max":767,"o":"m 383 996 q 663 874 560 996 q 767 504 767 751 q 660 115 767 246 q 372 -16 553 -16 q 195 18 275 -16 q 60 109 115 53 l 135 180 q 240 110 185 134 q 364 87 296 87 q 561 175 492 87 q 640 452 630 264 l 208 452 l 208 556 l 640 556 q 562 819 630 742 q 377 896 494 896 q 239 868 295 896 q 140 803 184 839 l 71 876 q 203 960 127 925 q 383 996 279 996 z "},"І":{"ha":855,"x_min":147,"x_max":708,"o":"m 708 981 l 708 882 l 490 882 l 490 99 l 708 99 l 708 0 l 147 0 l 147 99 l 365 99 l 365 882 l 147 882 l 147 981 l 708 981 z "},"Ї":{"ha":855,"x_min":147,"x_max":708,"o":"m 708 981 l 708 882 l 490 882 l 490 99 l 708 99 l 708 0 l 147 0 l 147 99 l 365 99 l 365 882 l 147 882 l 147 981 l 708 981 z "},"Ј":{"ha":855,"x_min":103,"x_max":707,"o":"m 707 981 l 707 325 q 691 204 707 264 q 637 93 675 143 q 534 14 599 43 q 373 -16 469 -16 q 103 73 222 -16 l 158 155 q 275 100 222 114 q 371 87 328 87 q 528 152 473 87 q 584 333 584 218 l 584 880 l 293 880 l 293 981 l 707 981 z "},"Ћ":{"ha":855,"x_min":-6,"x_max":807,"o":"m 588 981 l 575 878 l 347 878 l 347 556 q 436 616 386 593 q 553 640 486 640 q 744 567 682 640 q 807 351 807 493 l 807 0 l 683 0 l 683 343 q 647 489 683 444 q 526 533 612 533 q 417 508 459 533 q 347 457 375 482 l 347 0 l 223 0 l 223 878 l -6 878 l -6 981 l 588 981 z "},"Ю":{"ha":855,"x_min":66,"x_max":825,"o":"m 553 996 q 766 868 707 996 q 825 489 825 739 q 762 114 825 245 q 553 -16 699 -16 q 392 43 451 -16 q 309 209 334 102 q 281 457 283 316 l 186 457 l 186 0 l 66 0 l 66 981 l 186 981 l 186 559 l 283 559 q 353 884 291 771 q 553 996 414 996 m 553 895 q 469 858 501 895 q 422 731 437 820 q 408 491 408 642 q 423 250 408 339 q 469 123 437 161 q 553 85 501 85 q 635 123 603 85 q 683 249 667 160 q 698 489 698 338 q 682 730 698 641 q 635 857 667 819 q 553 895 603 895 z "},"Я":{"ha":855,"x_min":48,"x_max":736,"o":"m 736 981 l 736 0 l 613 0 l 613 394 l 394 394 l 186 0 l 48 0 l 278 422 q 150 531 192 461 q 107 690 107 600 q 202 904 107 828 q 478 981 296 981 l 736 981 m 613 882 l 463 882 q 295 836 350 882 q 239 690 239 790 q 290 543 239 590 q 437 495 340 495 l 613 495 l 613 882 z "},"Ђ":{"ha":855,"x_min":-6,"x_max":807,"o":"m 347 878 l 347 556 q 438 615 386 590 q 553 640 489 640 q 744 567 682 640 q 807 351 807 493 l 807 136 q 778 -26 807 37 q 693 -128 749 -89 q 561 -193 638 -167 l 529 -93 q 625 -40 592 -68 q 671 30 658 -11 q 683 136 683 72 l 683 343 q 647 489 683 444 q 526 533 612 533 q 417 508 459 533 q 347 457 375 482 l 347 0 l 223 0 l 223 878 l -6 878 l -6 981 l 588 981 l 575 878 l 347 878 z "},"Ѡ":{"ha":855,"x_min":24,"x_max":833,"o":"m 731 981 q 773 854 749 931 q 815 671 797 777 q 833 425 833 564 q 804 166 833 263 q 723 27 775 69 q 603 -16 671 -16 q 493 22 534 -16 q 429 132 451 61 q 367 23 407 61 q 256 -16 327 -16 q 146 25 199 -16 q 58 163 93 66 q 24 425 24 259 q 42 671 24 564 q 84 854 60 777 q 126 981 108 931 l 246 981 q 192 818 215 901 q 157 640 170 735 q 145 429 145 546 q 162 225 145 300 q 208 118 179 150 q 277 86 238 86 q 340 120 313 86 q 368 241 368 153 l 368 567 l 489 567 l 489 242 q 519 122 489 157 q 589 86 548 86 q 636 99 614 86 q 675 149 658 113 q 702 251 692 184 q 712 427 712 318 q 698 640 712 544 q 662 819 684 736 q 611 981 639 902 l 731 981 z "},"Ѣ":{"ha":855,"x_min":14,"x_max":809,"o":"m 219 0 l 219 756 l 14 756 l 14 848 l 219 848 l 219 981 l 343 981 l 343 848 l 561 848 l 561 756 l 343 756 l 343 610 l 445 610 q 709 537 610 610 q 809 315 809 464 q 760 134 809 204 q 625 32 712 65 q 427 0 539 0 l 219 0 m 343 100 l 442 100 q 563 119 510 100 q 646 183 616 137 q 677 312 677 229 q 615 468 677 423 q 448 512 553 512 l 343 512 l 343 100 z "},"Ѥ":{"ha":855,"x_min":57,"x_max":847,"o":"m 847 53 q 761 4 808 24 q 636 -16 713 -16 q 385 104 480 -16 q 282 452 290 224 l 182 452 l 182 0 l 57 0 l 57 981 l 182 981 l 182 559 l 283 559 q 395 885 298 774 q 643 996 493 996 q 754 982 711 996 q 838 939 796 967 l 777 858 q 717 886 746 877 q 646 895 689 895 q 534 863 583 895 q 453 755 484 830 q 411 556 421 681 l 736 556 l 736 452 l 407 452 q 479 174 417 259 q 640 89 542 89 q 728 104 694 89 q 789 135 761 118 l 847 53 z "},"Ѧ":{"ha":855,"x_min":29,"x_max":825,"o":"m 29 0 l 348 981 l 506 981 l 825 0 l 693 0 l 566 413 l 482 413 l 482 0 l 365 0 l 365 413 l 283 413 l 156 0 l 29 0 m 425 871 l 316 518 l 533 518 l 425 871 z "},"Ѩ":{"ha":855,"x_min":53,"x_max":854,"o":"m 224 0 l 324 415 l 175 415 l 175 1 l 53 1 l 53 981 l 175 981 l 175 514 l 328 514 l 331 444 l 332 446 l 461 981 l 618 981 l 854 0 l 731 0 l 640 415 l 588 415 l 588 0 l 484 0 l 484 415 l 432 415 l 341 0 l 224 0 m 536 885 l 454 514 l 618 514 l 536 885 z "},"Ѫ":{"ha":855,"x_min":53,"x_max":801,"o":"m 53 0 l 213 539 l 316 539 l 132 899 l 132 981 l 730 981 l 730 899 l 538 539 l 653 539 l 801 0 l 686 0 l 570 443 l 489 443 l 489 0 l 368 0 l 368 443 l 287 443 l 169 0 l 53 0 m 432 539 l 606 891 l 261 891 l 432 539 z "},"Ѭ":{"ha":855,"x_min":26,"x_max":894,"o":"m 26 1 l 26 981 l 148 981 l 148 539 l 434 539 l 271 898 l 271 981 l 818 981 l 818 898 l 647 539 l 752 539 l 894 0 l 778 0 l 669 443 l 603 443 l 603 0 l 480 0 l 480 443 l 414 443 l 304 0 l 187 0 l 313 443 l 148 443 l 148 1 l 26 1 m 546 539 l 698 890 l 395 890 l 546 539 z "},"Ѯ":{"ha":855,"x_min":118,"x_max":737,"o":"m 583 1288 l 636 1228 l 444 1075 l 364 1075 l 171 1228 l 225 1288 l 403 1174 l 583 1288 m 318 -304 q 183 -219 229 -266 q 137 -111 137 -172 q 196 -1 137 -40 q 375 49 254 38 q 547 108 485 60 q 608 251 608 156 q 553 399 608 355 q 391 442 499 442 l 240 442 l 240 533 l 541 877 l 118 877 l 118 981 l 689 981 l 689 878 l 377 535 l 415 535 q 655 460 573 536 q 737 252 737 383 q 697 99 737 162 q 589 -1 657 36 q 438 -46 521 -38 q 295 -73 331 -57 q 259 -121 259 -89 q 286 -174 259 -149 q 363 -224 313 -199 l 318 -304 z "},"Ѱ":{"ha":855,"x_min":19,"x_max":835,"o":"m 365 0 l 365 274 q 168 329 245 283 q 56 448 92 375 q 19 612 19 521 l 19 981 l 145 981 l 145 619 q 193 452 145 514 q 366 378 241 390 l 366 981 l 490 981 l 490 380 q 661 452 611 391 q 710 619 710 513 l 710 981 l 835 981 l 835 612 q 751 382 835 474 q 491 275 667 290 l 491 0 l 365 0 z "},"Ѳ":{"ha":855,"x_min":66,"x_max":788,"o":"m 788 489 q 748 226 788 340 q 627 48 707 113 q 427 -16 547 -16 q 228 47 308 -16 q 107 223 147 110 q 66 488 66 336 q 107 751 66 637 q 228 931 147 866 q 427 996 308 996 q 627 933 547 996 q 748 755 707 870 q 788 489 788 641 m 427 893 q 261 805 315 893 q 198 547 207 717 l 655 547 q 594 805 647 717 q 427 893 540 893 m 427 88 q 599 181 546 88 q 657 452 653 275 l 196 452 q 256 181 200 275 q 427 88 311 88 z "},"Ѵ":{"ha":855,"x_min":40,"x_max":845,"o":"m 806 892 q 782 899 793 896 q 757 902 771 902 q 713 884 729 902 q 686 824 697 865 l 467 0 l 331 0 l 40 981 l 173 981 l 397 143 l 576 842 q 637 960 598 923 q 744 996 677 996 q 799 989 774 996 q 845 971 823 982 l 806 892 z "},"Ѷ":{"ha":855,"x_min":40,"x_max":845,"o":"m 806 892 q 782 899 793 896 q 757 902 771 902 q 713 884 729 902 q 686 824 697 865 l 467 0 l 331 0 l 40 981 l 173 981 l 397 143 l 576 842 q 637 960 598 923 q 744 996 677 996 q 799 989 774 996 q 845 971 823 982 l 806 892 z "},"Ѹ":{"ha":855,"x_min":13,"x_max":846,"o":"m 234 -16 q 62 116 112 -16 q 13 488 13 249 q 34 759 13 645 q 104 934 56 873 q 234 996 152 996 q 406 863 356 996 q 455 489 455 729 q 406 116 455 249 q 234 -16 356 -16 m 234 78 q 319 176 298 78 q 340 489 340 274 q 319 803 340 704 q 234 902 298 902 q 149 803 170 902 q 127 488 127 703 q 151 176 127 273 q 234 78 174 78 m 498 -301 l 481 -210 q 579 -144 542 -192 q 631 0 616 -96 l 580 0 l 462 750 l 569 750 l 656 91 l 736 750 l 846 750 l 729 -5 q 650 -204 709 -133 q 498 -301 591 -274 z "},"Җ":{"ha":855,"x_min":17,"x_max":870,"o":"m 373 465 l 284 465 l 137 0 l 17 0 l 192 519 l 38 981 l 157 981 l 286 566 l 373 566 l 373 981 l 482 981 l 482 566 l 569 566 l 699 981 l 817 981 l 663 519 l 803 103 l 870 103 l 870 -209 l 775 -209 l 755 0 l 715 0 l 569 465 l 482 465 l 482 0 l 373 0 l 373 465 z "},"Ҙ":{"ha":855,"x_min":50,"x_max":770,"o":"m 400 996 q 579 964 504 996 q 696 874 655 932 q 737 741 737 817 q 709 637 737 681 q 636 567 682 593 q 534 533 590 541 q 649 500 595 528 q 736 420 703 472 q 770 291 770 368 q 725 134 770 204 q 595 24 679 64 q 395 -16 511 -16 q 203 20 291 -16 q 50 123 114 56 l 126 192 q 251 115 184 142 q 397 88 318 88 q 574 141 511 88 q 637 287 637 195 q 572 430 637 386 q 408 474 506 474 l 234 474 l 249 578 l 398 578 q 501 595 453 578 q 580 647 550 612 q 610 739 610 682 q 549 857 610 818 q 398 896 488 896 q 255 870 316 896 q 139 801 194 845 l 69 875 q 223 966 142 936 q 400 996 305 996 z "},"Қ":{"ha":855,"x_min":135,"x_max":836,"o":"m 372 464 l 259 464 l 259 0 l 135 0 l 135 981 l 259 981 l 259 568 l 374 568 l 675 981 l 808 981 l 478 519 l 764 103 l 836 103 l 836 -209 l 738 -209 l 717 0 l 686 0 l 372 464 z "},"Ҝ":{"ha":855,"x_min":135,"x_max":837,"o":"m 325 214 l 325 464 l 256 464 l 256 0 l 135 0 l 135 981 l 256 981 l 256 568 l 325 568 l 325 811 l 402 811 l 402 568 l 439 568 l 680 981 l 810 981 l 536 519 l 837 0 l 699 0 l 438 464 l 402 464 l 402 214 l 325 214 z "},"Ҟ":{"ha":855,"x_min":53,"x_max":832,"o":"m 397 464 l 283 464 l 283 0 l 159 0 l 159 751 l 53 751 l 53 845 l 159 845 l 159 981 l 283 981 l 283 845 l 445 845 l 445 751 l 283 751 l 283 568 l 398 568 l 671 981 l 805 981 l 503 519 l 832 0 l 682 0 l 397 464 z "},"Ҡ":{"ha":855,"x_min":16,"x_max":854,"o":"m 412 464 l 314 464 l 314 0 l 188 0 l 188 873 l 16 873 l 16 981 l 314 981 l 314 568 l 414 568 l 692 981 l 827 981 l 520 519 l 854 0 l 703 0 l 412 464 z "},"Ң":{"ha":855,"x_min":121,"x_max":824,"o":"m 615 0 l 615 465 l 244 465 l 244 0 l 121 0 l 121 981 l 244 981 l 244 566 l 615 566 l 615 981 l 738 981 l 738 103 l 824 103 l 824 -209 l 726 -209 l 705 0 l 615 0 z "},"Ҥ":{"ha":855,"x_min":96,"x_max":861,"o":"m 535 0 l 535 466 l 220 466 l 220 0 l 96 0 l 96 981 l 220 981 l 220 566 l 535 566 l 535 981 l 861 981 l 848 878 l 658 878 l 658 0 l 535 0 z "},"Ҧ":{"ha":855,"x_min":39,"x_max":845,"o":"m 371 0 l 371 870 l 163 870 l 163 0 l 39 0 l 39 981 l 495 981 l 495 585 q 559 627 524 612 q 640 642 594 642 q 790 581 735 642 q 845 419 845 520 l 845 -83 q 786 -247 845 -192 q 638 -301 726 -301 q 543 -285 583 -301 q 478 -249 504 -268 l 526 -166 q 574 -191 551 -182 q 633 -199 597 -199 q 722 -93 722 -199 l 722 421 q 694 506 722 479 q 620 533 667 533 q 495 481 556 533 l 495 0 l 371 0 z "},"Ԥ":{"ha":855,"x_min":119,"x_max":823,"o":"m 613 0 l 613 873 l 242 873 l 242 0 l 119 0 l 119 981 l 736 981 l 736 103 l 823 103 l 823 -209 l 725 -209 l 704 0 l 613 0 z "},"Ҩ":{"ha":855,"x_min":51,"x_max":829,"o":"m 447 -16 q 239 42 328 -16 q 100 214 150 100 q 51 491 51 327 q 105 769 51 657 q 247 939 160 882 q 435 996 335 996 q 581 972 523 996 q 697 902 640 948 l 632 820 q 438 892 542 892 q 316 855 374 892 q 221 730 258 818 q 184 491 184 642 q 218 260 184 348 q 312 132 251 172 q 452 92 372 92 q 470 93 461 92 q 396 225 425 159 q 368 362 368 291 q 398 490 368 433 q 479 580 427 547 q 599 614 531 614 q 770 545 711 614 q 829 370 829 476 q 782 181 829 274 q 642 34 734 88 q 697 -33 669 1 q 754 -108 725 -68 l 672 -169 q 606 -85 639 -126 q 542 -5 573 -45 q 447 -16 496 -16 m 491 363 q 515 233 491 291 q 578 120 539 175 q 702 370 702 182 q 600 514 702 514 q 519 473 546 514 q 491 363 491 432 z "},"Ҫ":{"ha":855,"x_min":90,"x_max":808,"o":"m 510 996 q 671 972 606 996 q 794 901 736 948 l 725 821 q 627 876 679 860 q 519 893 575 893 q 370 855 439 893 q 260 729 302 817 q 219 491 219 641 q 258 256 219 345 q 365 129 298 168 q 516 90 433 90 q 652 115 598 90 q 744 172 706 140 l 808 90 q 708 22 769 52 q 562 -14 647 -7 q 639 -89 611 -46 q 667 -183 667 -131 q 619 -297 667 -254 q 489 -340 571 -340 q 407 -329 441 -340 q 351 -305 373 -318 l 382 -232 q 423 -250 400 -241 q 481 -259 446 -259 q 543 -236 522 -259 q 563 -177 563 -214 q 537 -90 563 -133 q 455 -13 510 -48 q 268 63 350 1 q 138 233 185 125 q 90 491 90 340 q 148 769 90 656 q 301 939 205 882 q 510 996 396 996 z "},"Ҭ":{"ha":855,"x_min":57,"x_max":797,"o":"m 575 103 l 575 -209 l 476 -209 l 456 0 l 363 0 l 363 875 l 57 875 l 57 981 l 797 981 l 784 875 l 486 875 l 486 103 l 575 103 z "},"Ү":{"ha":855,"x_min":33,"x_max":821,"o":"m 490 378 l 490 0 l 365 0 l 365 377 l 33 981 l 170 981 l 430 489 l 693 981 l 821 981 l 490 378 z "},"Ұ":{"ha":855,"x_min":33,"x_max":821,"o":"m 673 454 l 673 358 l 490 358 l 490 0 l 365 0 l 365 358 l 182 358 l 182 454 l 323 454 l 33 981 l 170 981 l 430 489 l 693 981 l 821 981 l 531 454 l 673 454 z "},"Ҳ":{"ha":855,"x_min":44,"x_max":819,"o":"m 819 103 l 819 -209 l 721 -209 l 700 0 l 669 0 l 425 443 l 177 0 l 44 0 l 352 523 l 71 981 l 212 981 l 427 604 l 643 981 l 777 981 l 499 529 l 749 103 l 819 103 z "},"Ҵ":{"ha":855,"x_min":0,"x_max":803,"o":"m 182 0 l 182 880 l 0 880 l 0 981 l 493 981 l 479 880 l 309 880 l 309 103 l 605 103 l 605 981 l 731 981 l 731 103 l 803 103 l 803 -209 l 702 -209 l 681 0 l 182 0 z "},"Ҷ":{"ha":855,"x_min":72,"x_max":823,"o":"m 823 103 l 823 -209 l 725 -209 l 704 0 l 613 0 l 613 401 q 493 334 549 355 q 358 313 436 313 q 208 348 272 313 q 108 449 144 384 q 72 602 72 514 l 72 981 l 196 981 l 196 613 q 246 468 196 514 q 388 421 296 421 q 521 446 467 421 q 613 507 575 471 l 613 981 l 736 981 l 736 103 l 823 103 z "},"Ҹ":{"ha":855,"x_min":72,"x_max":736,"o":"m 454 767 l 454 427 q 545 458 506 436 q 613 507 584 479 l 613 981 l 736 981 l 736 0 l 613 0 l 613 401 q 533 351 571 370 q 454 323 495 332 l 454 170 l 370 170 l 370 313 q 358 313 365 313 q 208 348 272 313 q 108 449 144 384 q 72 602 72 514 l 72 981 l 196 981 l 196 613 q 241 472 196 519 q 370 422 287 426 l 370 767 l 454 767 z "},"Һ":{"ha":855,"x_min":119,"x_max":781,"o":"m 501 640 q 705 559 629 640 q 781 335 781 479 l 781 0 l 657 0 l 657 334 q 613 481 657 429 q 481 532 568 532 q 345 502 401 532 q 242 418 290 472 l 242 0 l 119 0 l 119 981 l 242 981 l 242 532 q 354 612 291 584 q 501 640 416 640 z "},"Ԧ":{"ha":855,"x_min":119,"x_max":855,"o":"m 485 640 q 696 559 620 640 q 771 335 771 479 l 771 103 l 855 103 l 855 -209 l 757 -209 l 736 0 l 647 0 l 647 334 q 602 481 647 429 q 458 532 556 532 q 335 503 386 532 q 242 421 283 474 l 242 0 l 119 0 l 119 981 l 242 981 l 242 539 q 344 613 285 586 q 485 640 403 640 z "},"Ҽ":{"ha":855,"x_min":1,"x_max":808,"o":"m 1 602 q 19 685 1 649 q 56 750 36 722 l 137 713 q 117 662 125 687 q 108 612 108 638 q 182 539 108 539 l 190 539 q 240 785 198 682 q 353 942 283 887 q 514 996 423 996 q 727 874 646 996 q 808 509 808 752 q 807 477 808 496 q 804 439 806 459 l 314 439 q 345 233 316 311 q 422 120 375 155 q 526 85 469 85 q 633 105 593 85 q 707 149 674 125 l 766 75 q 670 12 727 41 q 528 -16 612 -16 q 289 97 381 -16 q 189 439 197 211 q 48 488 95 439 q 1 602 1 536 m 512 897 q 376 811 429 897 q 314 539 324 725 l 692 539 q 637 816 684 734 q 512 897 590 897 z "},"Ҿ":{"ha":855,"x_min":1,"x_max":808,"o":"m 1 602 q 19 685 1 649 q 56 750 36 722 l 137 713 q 117 662 125 687 q 108 612 108 638 q 182 539 108 539 l 190 539 q 240 785 198 682 q 353 942 283 887 q 514 996 423 996 q 727 874 646 996 q 808 509 808 752 q 807 477 808 496 q 804 439 806 459 l 314 439 q 345 233 316 311 q 422 120 375 155 q 526 85 469 85 q 633 105 593 85 q 707 149 674 125 l 766 75 q 670 12 727 41 q 528 -16 612 -16 q 289 97 381 -16 q 189 439 197 211 q 48 488 95 439 q 1 602 1 536 m 512 897 q 376 811 429 897 q 314 539 324 725 l 692 539 q 637 816 684 734 q 512 897 590 897 m 618 43 l 636 0 q 525 -60 563 -33 q 473 -113 486 -88 q 459 -163 459 -138 q 477 -213 459 -195 q 539 -231 494 -231 q 627 -222 579 -231 l 615 -317 q 573 -324 593 -321 q 525 -327 553 -327 q 397 -286 444 -327 q 351 -187 351 -246 q 414 -54 351 -112 q 618 43 477 3 z "},"Ӏ":{"ha":855,"x_min":147,"x_max":708,"o":"m 708 981 l 708 882 l 490 882 l 490 99 l 708 99 l 708 0 l 147 0 l 147 99 l 365 99 l 365 882 l 147 882 l 147 981 l 708 981 z "},"Ӂ":{"ha":855,"x_min":17,"x_max":838,"o":"m 373 465 l 284 465 l 137 0 l 17 0 l 192 519 l 38 981 l 157 981 l 286 566 l 373 566 l 373 981 l 482 981 l 482 566 l 569 566 l 699 981 l 817 981 l 663 519 l 838 0 l 715 0 l 569 465 l 482 465 l 482 0 l 373 0 l 373 465 z "},"Ӄ":{"ha":855,"x_min":119,"x_max":761,"o":"m 119 0 l 119 981 l 242 981 l 242 549 l 382 549 l 629 981 l 761 981 l 499 545 q 696 450 635 528 q 758 243 758 373 l 758 -86 q 702 -248 758 -194 q 551 -301 645 -301 q 457 -285 496 -301 q 392 -249 417 -268 l 438 -167 q 487 -191 464 -182 q 546 -200 510 -200 q 635 -93 635 -200 l 635 241 q 584 395 635 345 q 410 445 533 445 l 242 445 l 242 0 l 119 0 z "},"Ӆ":{"ha":855,"x_min":28,"x_max":827,"o":"m 827 98 l 717 -209 l 620 -209 l 670 0 l 576 0 l 576 875 l 355 875 l 320 584 q 286 355 303 448 q 249 202 269 263 q 205 103 229 142 q 151 37 181 64 q 82 -16 120 11 l 28 76 q 73 120 51 96 q 115 191 95 145 q 154 322 135 237 q 192 549 173 407 l 247 981 l 699 981 l 699 98 l 827 98 z "},"Ӈ":{"ha":855,"x_min":119,"x_max":736,"o":"m 529 -301 q 434 -285 474 -301 q 369 -249 395 -268 l 416 -167 q 464 -191 441 -182 q 524 -200 488 -200 q 613 -93 613 -200 l 613 465 l 242 465 l 242 0 l 119 0 l 119 981 l 242 981 l 242 566 l 613 566 l 613 981 l 736 981 l 736 -86 q 679 -248 736 -194 q 529 -301 623 -301 z "},"Ӊ":{"ha":855,"x_min":103,"x_max":821,"o":"m 570 0 l 570 466 l 226 466 l 226 0 l 103 0 l 103 981 l 226 981 l 226 566 l 570 566 l 570 981 l 693 981 l 693 98 l 821 98 l 711 -209 l 614 -209 l 663 0 l 570 0 z "},"Ӌ":{"ha":855,"x_min":72,"x_max":736,"o":"m 514 103 l 613 103 l 613 401 q 493 334 549 355 q 358 313 436 313 q 208 348 272 313 q 108 449 144 384 q 72 602 72 514 l 72 981 l 196 981 l 196 613 q 246 468 196 514 q 388 421 296 421 q 521 446 467 421 q 613 507 575 471 l 613 981 l 736 981 l 736 0 l 632 0 l 612 -209 l 514 -209 l 514 103 z "},"Ӎ":{"ha":855,"x_min":26,"x_max":861,"o":"m 861 98 l 750 -209 l 650 -209 l 699 0 l 635 0 l 605 512 q 599 653 600 580 q 597 782 597 725 q 596 858 596 838 l 452 176 l 328 176 l 175 858 q 175 804 175 842 q 174 715 175 766 q 173 612 174 665 q 169 514 172 559 l 143 0 l 26 0 l 82 981 l 254 981 l 393 309 l 525 981 l 698 981 l 748 98 l 861 98 z "},"Ӑ":{"ha":855,"x_min":29,"x_max":825,"o":"m 618 250 l 229 250 l 151 0 l 29 0 l 348 981 l 506 981 l 825 0 l 696 0 l 618 250 m 261 353 l 585 353 l 425 877 l 261 353 z "},"Ӓ":{"ha":855,"x_min":29,"x_max":825,"o":"m 618 250 l 229 250 l 151 0 l 29 0 l 348 981 l 506 981 l 825 0 l 696 0 l 618 250 m 261 353 l 585 353 l 425 877 l 261 353 z "},"Ӕ":{"ha":855,"x_min":-17,"x_max":865,"o":"m 469 250 l 179 250 l 109 0 l -17 0 l 271 981 l 806 981 l 791 880 l 456 880 l 528 548 l 793 548 l 793 447 l 548 447 l 621 100 l 865 100 l 865 0 l 521 0 l 469 250 m 212 354 l 447 354 l 343 883 l 212 354 z "},"Ӗ":{"ha":855,"x_min":179,"x_max":749,"o":"m 303 880 l 303 549 l 666 549 l 666 447 l 303 447 l 303 99 l 749 99 l 749 0 l 179 0 l 179 981 l 736 981 l 722 880 l 303 880 z "},"Ә":{"ha":855,"x_min":63,"x_max":786,"o":"m 63 472 q 64 504 63 485 q 68 542 66 523 l 659 542 q 588 816 652 734 q 414 897 524 897 q 290 874 342 897 q 189 814 238 850 l 125 887 q 253 966 182 935 q 417 996 324 996 q 691 873 597 996 q 786 504 786 749 q 741 224 786 340 q 616 46 697 108 q 423 -16 535 -16 q 160 106 257 -16 q 63 472 63 229 m 425 85 q 588 170 528 85 q 659 439 648 256 l 184 439 q 251 166 192 247 q 425 85 311 85 z "},"Ӛ":{"ha":855,"x_min":63,"x_max":786,"o":"m 63 472 q 64 504 63 485 q 68 542 66 523 l 659 542 q 588 816 652 734 q 414 897 524 897 q 290 874 342 897 q 189 814 238 850 l 125 887 q 253 966 182 935 q 417 996 324 996 q 691 873 597 996 q 786 504 786 749 q 741 224 786 340 q 616 46 697 108 q 423 -16 535 -16 q 160 106 257 -16 q 63 472 63 229 m 425 85 q 588 170 528 85 q 659 439 648 256 l 184 439 q 251 166 192 247 q 425 85 311 85 z "},"Ӝ":{"ha":855,"x_min":17,"x_max":838,"o":"m 373 465 l 284 465 l 137 0 l 17 0 l 192 519 l 38 981 l 157 981 l 286 566 l 373 566 l 373 981 l 482 981 l 482 566 l 569 566 l 699 981 l 817 981 l 663 519 l 838 0 l 715 0 l 569 465 l 482 465 l 482 0 l 373 0 l 373 465 z "},"Ӟ":{"ha":855,"x_min":50,"x_max":770,"o":"m 400 996 q 579 964 504 996 q 696 874 655 932 q 737 741 737 817 q 709 637 737 681 q 636 567 682 593 q 534 533 590 541 q 649 500 595 528 q 736 420 703 472 q 770 291 770 368 q 725 134 770 204 q 595 24 679 64 q 395 -16 511 -16 q 203 20 291 -16 q 50 123 114 56 l 126 192 q 251 115 184 142 q 397 88 318 88 q 574 141 511 88 q 637 287 637 195 q 572 430 637 386 q 408 474 506 474 l 234 474 l 249 578 l 398 578 q 501 595 453 578 q 580 647 550 612 q 610 739 610 682 q 549 857 610 818 q 398 896 488 896 q 255 870 316 896 q 139 801 194 845 l 69 875 q 223 966 142 936 q 400 996 305 996 z "},"Ӡ":{"ha":855,"x_min":100,"x_max":754,"o":"m 402 -16 q 227 12 296 -16 q 100 90 159 41 l 163 167 q 268 110 216 132 q 403 88 320 88 q 569 144 513 88 q 626 294 626 199 q 573 428 626 386 q 425 471 520 471 l 253 471 l 253 563 l 569 877 l 137 877 l 137 981 l 713 981 l 713 878 l 396 569 l 421 569 q 615 534 541 569 q 721 437 688 499 q 754 293 754 374 q 711 131 754 201 q 589 23 668 62 q 402 -16 510 -16 z "},"Ӣ":{"ha":855,"x_min":119,"x_max":736,"o":"m 119 0 l 119 981 l 241 981 l 241 485 q 239 334 241 398 q 232 217 236 270 q 221 109 227 164 l 577 981 l 736 981 l 736 0 l 613 0 l 613 496 q 620 703 613 609 q 635 864 627 796 l 280 0 l 119 0 z "},"Ӥ":{"ha":855,"x_min":119,"x_max":736,"o":"m 119 0 l 119 981 l 241 981 l 241 485 q 239 334 241 398 q 232 217 236 270 q 221 109 227 164 l 577 981 l 736 981 l 736 0 l 613 0 l 613 496 q 620 703 613 609 q 635 864 627 796 l 280 0 l 119 0 z "},"Ӧ":{"ha":855,"x_min":66,"x_max":788,"o":"m 788 489 q 748 226 788 340 q 627 48 707 113 q 427 -16 547 -16 q 228 47 308 -16 q 107 223 147 110 q 66 488 66 336 q 107 751 66 637 q 228 931 147 866 q 427 996 308 996 q 627 933 547 996 q 748 755 707 870 q 788 489 788 641 m 659 489 q 605 789 659 685 q 427 893 551 893 q 250 788 303 893 q 196 488 196 684 q 251 190 196 292 q 427 88 307 88 q 605 191 551 88 q 659 489 659 293 z "},"Ө":{"ha":855,"x_min":66,"x_max":788,"o":"m 788 489 q 748 226 788 340 q 627 48 707 113 q 427 -16 547 -16 q 228 47 308 -16 q 107 223 147 110 q 66 488 66 336 q 107 751 66 637 q 228 931 147 866 q 427 996 308 996 q 627 933 547 996 q 748 755 707 870 q 788 489 788 641 m 427 893 q 261 805 315 893 q 198 547 207 717 l 655 547 q 594 805 647 717 q 427 893 540 893 m 427 88 q 599 181 546 88 q 657 452 653 275 l 196 452 q 256 181 200 275 q 427 88 311 88 z "},"Ӫ":{"ha":855,"x_min":66,"x_max":788,"o":"m 788 489 q 748 226 788 340 q 627 48 707 113 q 427 -16 547 -16 q 228 47 308 -16 q 107 223 147 110 q 66 488 66 336 q 107 751 66 637 q 228 931 147 866 q 427 996 308 996 q 627 933 547 996 q 748 755 707 870 q 788 489 788 641 m 427 893 q 261 805 315 893 q 198 547 207 717 l 655 547 q 594 805 647 717 q 427 893 540 893 m 427 88 q 599 181 546 88 q 657 452 653 275 l 196 452 q 256 181 200 275 q 427 88 311 88 z "},"Ӭ":{"ha":855,"x_min":60,"x_max":767,"o":"m 383 996 q 663 874 560 996 q 767 504 767 751 q 660 115 767 246 q 372 -16 553 -16 q 195 18 275 -16 q 60 109 115 53 l 135 180 q 240 110 185 134 q 364 87 296 87 q 561 175 492 87 q 640 452 630 264 l 208 452 l 208 556 l 640 556 q 562 819 630 742 q 377 896 494 896 q 239 868 295 896 q 140 803 184 839 l 71 876 q 203 960 127 925 q 383 996 279 996 z "},"Ӯ":{"ha":855,"x_min":38,"x_max":826,"o":"m 826 981 l 526 256 q 450 119 492 175 q 342 30 407 63 q 173 -16 276 -4 l 155 83 q 275 113 229 93 q 352 171 321 133 q 410 270 382 208 l 361 270 l 38 981 l 166 981 l 447 350 l 702 981 l 826 981 z "},"Ӱ":{"ha":855,"x_min":38,"x_max":826,"o":"m 826 981 l 526 256 q 450 119 492 175 q 342 30 407 63 q 173 -16 276 -4 l 155 83 q 275 113 229 93 q 352 171 321 133 q 410 270 382 208 l 361 270 l 38 981 l 166 981 l 447 350 l 702 981 l 826 981 z "},"Ӳ":{"ha":855,"x_min":38,"x_max":826,"o":"m 826 981 l 526 256 q 450 119 492 175 q 342 30 407 63 q 173 -16 276 -4 l 155 83 q 275 113 229 93 q 352 171 321 133 q 410 270 382 208 l 361 270 l 38 981 l 166 981 l 447 350 l 702 981 l 826 981 z "},"Ӵ":{"ha":855,"x_min":72,"x_max":736,"o":"m 196 981 l 196 613 q 246 468 196 514 q 388 421 296 421 q 521 446 467 421 q 613 507 575 471 l 613 981 l 736 981 l 736 0 l 613 0 l 613 401 q 493 334 549 355 q 358 313 436 313 q 208 348 272 313 q 108 449 144 384 q 72 602 72 514 l 72 981 l 196 981 z "},"Ӹ":{"ha":855,"x_min":44,"x_max":811,"o":"m 170 981 l 170 616 l 259 616 q 526 538 438 616 q 613 316 613 461 q 521 78 613 156 q 262 0 429 0 l 44 0 l 44 981 l 170 981 m 811 981 l 811 0 l 685 0 l 685 981 l 811 981 m 273 522 l 170 522 l 170 99 l 274 99 q 428 148 375 99 q 482 314 482 197 q 273 522 482 522 z "},"Ӻ":{"ha":855,"x_min":90,"x_max":830,"o":"m 250 -301 q 155 -285 195 -301 q 90 -249 115 -268 l 137 -167 q 186 -191 162 -182 q 245 -200 209 -200 q 333 -93 333 -200 l 333 0 l 249 0 l 249 522 l 106 522 l 106 617 l 249 617 l 249 981 l 830 981 l 818 873 l 372 873 l 372 617 l 597 617 l 597 522 l 372 522 l 372 103 l 457 103 l 457 -86 q 400 -248 457 -194 q 250 -301 344 -301 z "},"Ӽ":{"ha":855,"x_min":21,"x_max":821,"o":"m 615 -301 q 520 -285 559 -301 q 455 -249 480 -268 l 501 -167 q 550 -191 527 -182 q 610 -200 573 -200 q 698 -93 698 -200 l 698 0 l 645 0 l 401 443 l 154 0 l 21 0 l 328 523 l 47 981 l 189 981 l 404 604 l 620 981 l 754 981 l 475 529 l 726 103 l 821 103 l 821 -86 q 765 -248 821 -194 q 615 -301 709 -301 z "},"Ӿ":{"ha":855,"x_min":44,"x_max":811,"o":"m 71 981 l 212 981 l 427 604 l 643 981 l 777 981 l 499 529 l 811 0 l 669 0 l 425 443 l 177 0 l 44 0 l 352 523 l 71 981 m 56 477 l 56 571 l 799 571 l 799 477 l 56 477 z "},"Ԁ":{"ha":855,"x_min":69,"x_max":720,"o":"m 432 0 q 247 32 329 0 q 117 131 165 65 q 69 298 69 197 q 169 526 69 445 q 439 608 269 608 l 597 608 l 597 981 l 720 981 l 720 0 l 432 0 m 433 100 l 597 100 l 597 509 l 437 509 q 264 459 327 509 q 202 298 202 409 q 232 181 202 224 q 315 119 263 137 q 433 100 368 100 z "},"Ԃ":{"ha":855,"x_min":13,"x_max":834,"o":"m 234 -20 q 125 12 176 -20 q 44 109 75 44 q 13 271 13 173 q 92 518 13 429 q 330 608 172 608 l 395 608 l 395 981 l 519 981 l 519 220 q 600 80 519 80 q 655 105 630 80 q 695 188 679 129 q 710 354 710 248 q 708 449 710 406 q 703 536 707 491 l 827 536 q 832 451 830 495 q 834 357 834 407 q 802 141 834 224 q 717 19 771 58 q 598 -19 664 -19 q 422 94 474 -19 q 234 -20 354 -20 m 256 80 q 335 111 303 80 q 395 202 367 142 l 395 511 l 328 511 q 188 453 240 511 q 136 270 136 395 q 171 123 136 166 q 256 80 206 80 z "},"Ԅ":{"ha":855,"x_min":36,"x_max":819,"o":"m 78 421 l 78 518 l 180 518 q 344 561 286 518 q 402 706 402 604 q 346 841 402 800 q 164 882 289 882 l 36 882 l 36 981 l 166 981 q 441 911 348 981 q 535 706 535 840 q 482 538 535 602 q 321 443 429 474 l 422 214 q 486 111 454 142 q 565 80 518 80 q 632 106 602 80 q 679 192 662 131 q 697 363 697 254 q 695 453 697 410 q 690 541 693 496 l 813 541 q 817 455 816 500 q 819 363 819 411 q 786 145 819 229 q 696 22 754 61 q 565 -16 638 -16 q 414 32 473 -16 q 309 182 355 81 l 196 421 l 78 421 z "},"Ԇ":{"ha":855,"x_min":103,"x_max":790,"o":"m 790 103 l 790 -209 l 692 -209 l 672 0 l 620 0 l 352 421 l 145 421 l 145 518 l 363 518 q 526 561 468 518 q 585 706 585 604 q 530 841 585 800 q 362 882 475 882 l 103 882 l 103 981 l 348 981 q 623 911 529 981 q 717 706 717 842 q 647 527 717 595 q 477 435 578 459 l 699 103 l 790 103 z "},"Ԉ":{"ha":855,"x_min":7,"x_max":835,"o":"m 79 -16 l 7 71 q 41 115 26 90 q 69 188 56 140 q 92 322 81 236 q 115 553 103 409 l 149 981 l 522 981 l 522 220 q 603 80 522 80 q 657 105 632 80 q 697 188 682 129 q 712 354 712 248 q 710 449 712 406 q 705 536 709 491 l 829 536 q 834 451 832 495 q 835 357 835 407 q 804 141 835 224 q 719 19 773 58 q 600 -19 666 -19 q 457 41 516 -19 q 398 225 398 100 l 398 878 l 264 878 l 238 527 q 213 284 227 377 q 180 137 199 192 q 136 50 161 83 q 79 -16 111 16 z "},"Ԋ":{"ha":855,"x_min":70,"x_max":840,"o":"m 605 -19 q 463 41 521 -19 q 405 225 405 100 l 405 466 l 192 466 l 192 0 l 70 0 l 70 981 l 192 981 l 192 569 l 405 569 l 405 981 l 528 981 l 528 220 q 608 80 528 80 q 662 105 637 80 q 702 188 687 129 q 717 354 717 248 q 715 449 717 406 q 710 536 714 491 l 833 536 q 838 451 836 495 q 840 357 840 407 q 808 141 840 224 q 724 19 777 58 q 605 -19 671 -19 z "},"Ԍ":{"ha":855,"x_min":65,"x_max":767,"o":"m 447 -16 q 168 110 272 -16 q 65 491 65 236 q 99 712 65 618 q 191 870 132 807 q 323 965 249 934 q 475 996 396 996 q 635 969 571 996 q 756 889 698 942 l 681 811 q 476 893 593 893 q 341 855 405 893 q 237 730 277 818 q 197 491 197 642 q 264 182 197 277 q 458 88 330 88 q 645 135 558 88 l 645 434 l 452 434 l 437 536 l 767 536 l 767 69 q 626 8 701 33 q 447 -16 551 -16 z "},"Ԏ":{"ha":855,"x_min":22,"x_max":808,"o":"m 276 417 l 276 873 l 22 873 l 22 981 l 691 981 l 677 873 l 400 873 l 400 263 q 430 125 400 167 q 515 82 460 82 q 598 107 558 82 q 662 193 637 132 q 687 365 687 254 q 685 453 687 411 q 680 540 683 495 l 801 540 q 807 455 805 499 q 808 365 808 412 q 782 191 808 264 q 711 72 755 118 q 614 5 667 26 q 509 -16 561 -16 q 393 13 446 -16 q 308 100 340 42 q 276 244 276 157 l 276 417 l 276 417 z "},"Ԑ":{"ha":855,"x_min":85,"x_max":805,"o":"m 455 996 q 632 966 551 996 q 786 875 713 936 l 716 801 q 600 870 661 845 q 458 896 540 896 q 306 857 368 896 q 244 738 244 818 q 274 647 244 682 q 352 595 303 612 q 457 578 400 578 l 622 578 l 608 474 l 447 474 q 283 429 348 474 q 217 286 217 385 q 280 141 217 194 q 459 88 343 88 q 605 115 538 88 q 731 192 672 142 l 805 123 q 650 20 741 56 q 454 -16 558 -16 q 257 23 340 -16 q 130 130 175 62 q 85 285 85 198 q 118 415 85 362 q 205 497 152 467 q 321 533 259 526 q 219 568 265 541 q 145 637 173 594 q 118 736 118 679 q 161 873 118 815 q 280 964 204 932 q 455 996 356 996 z "},"Ԓ":{"ha":855,"x_min":21,"x_max":736,"o":"m 529 -301 q 434 -285 474 -301 q 369 -249 395 -268 l 416 -167 q 464 -191 441 -182 q 524 -200 488 -200 q 613 -93 613 -200 l 613 875 l 348 875 l 314 584 q 280 355 297 448 q 243 202 263 263 q 199 103 223 142 q 144 37 175 64 q 75 -16 114 11 l 21 76 q 67 120 45 96 q 108 191 88 145 q 147 322 128 237 q 185 549 167 407 l 241 981 l 736 981 l 736 -86 q 679 -248 736 -194 q 529 -301 623 -301 z "},"Ԕ":{"ha":855,"x_min":6,"x_max":867,"o":"m 148 981 l 422 981 l 573 608 l 721 981 l 840 981 l 643 525 l 867 0 l 740 0 l 564 437 l 396 0 l 276 0 l 496 524 l 345 871 l 262 871 l 237 527 q 212 284 226 377 q 179 137 198 192 q 135 50 160 83 q 78 -16 110 16 l 6 71 q 40 115 25 90 q 67 188 55 140 q 91 322 80 236 q 114 553 103 409 l 148 981 z "},"Ԗ":{"ha":855,"x_min":78,"x_max":839,"o":"m 78 0 l 78 981 l 250 981 q 476 897 395 981 q 556 679 556 813 q 556 657 556 668 l 714 981 l 837 981 l 587 504 l 839 0 l 704 0 l 474 457 q 250 364 387 364 l 197 364 l 197 0 l 78 0 m 253 882 l 197 882 l 197 464 l 245 464 q 343 484 298 464 q 413 550 387 504 q 439 678 439 597 q 389 832 439 781 q 253 882 338 882 z "},"Ԙ":{"ha":855,"x_min":11,"x_max":852,"o":"m 11 0 l 200 422 q 69 529 113 461 q 26 689 26 597 q 117 901 26 822 q 373 981 208 981 l 839 981 l 824 879 l 546 879 l 546 549 l 768 549 l 768 447 l 546 447 l 546 100 l 852 100 l 852 0 l 420 0 l 420 394 l 319 394 l 153 0 l 11 0 m 334 495 l 420 495 l 420 882 l 358 882 q 214 833 266 882 q 162 689 162 784 q 209 542 162 588 q 334 495 257 495 z "},"Ԛ":{"ha":855,"x_min":65,"x_max":844,"o":"m 788 489 q 743 217 788 333 q 585 38 698 100 q 749 -35 689 18 q 844 -195 808 -88 l 714 -246 q 647 -119 684 -171 q 553 -40 609 -67 q 413 -14 498 -14 q 223 49 301 -14 q 105 224 145 111 q 65 488 65 336 q 106 751 65 637 q 227 931 147 866 q 427 996 308 996 q 627 933 546 996 q 748 755 707 870 q 788 489 788 641 m 660 489 q 605 790 660 686 q 427 893 551 893 q 248 789 303 893 q 193 488 193 684 q 250 190 193 292 q 427 88 306 88 q 605 191 551 88 q 660 489 660 293 z "},"Ԝ":{"ha":855,"x_min":6,"x_max":848,"o":"m 848 981 l 699 0 l 536 0 l 424 740 l 311 0 l 145 0 l 6 981 l 130 981 l 235 136 l 353 867 l 504 867 l 616 136 l 734 981 l 848 981 z "},"Ԟ":{"ha":855,"x_min":127,"x_max":828,"o":"m 365 464 l 251 464 l 251 0 l 127 0 l 127 981 l 251 981 l 251 568 l 366 568 l 495 744 l 324 855 l 378 935 l 552 823 l 667 981 l 801 981 l 645 762 l 798 662 l 744 582 l 588 684 l 470 519 l 828 0 l 678 0 l 365 464 z "},"Ԡ":{"ha":855,"x_min":-9,"x_max":831,"o":"m 62 -16 l -9 71 q 24 115 9 90 q 52 188 39 140 q 75 322 64 236 q 98 553 86 409 l 132 981 l 505 981 l 505 585 q 564 627 532 613 q 640 642 597 642 q 780 583 729 642 q 831 435 831 524 l 831 -83 q 772 -247 831 -192 q 623 -301 712 -301 q 527 -285 567 -301 q 462 -249 486 -268 l 510 -166 q 558 -190 535 -181 q 618 -199 581 -199 q 706 -92 706 -199 l 706 421 q 619 533 706 533 q 505 483 561 533 l 505 0 l 381 0 l 381 878 l 247 878 l 222 527 q 196 284 210 377 q 163 137 182 192 q 119 50 144 83 q 62 -16 94 16 z "},"Ԣ":{"ha":855,"x_min":38,"x_max":845,"o":"m 373 0 l 373 466 l 160 466 l 160 0 l 38 0 l 38 981 l 160 981 l 160 569 l 373 569 l 373 981 l 495 981 l 495 585 q 559 627 524 613 q 640 642 594 642 q 790 581 735 642 q 845 419 845 520 l 845 -83 q 786 -247 845 -192 q 638 -301 727 -301 q 543 -285 583 -301 q 478 -249 504 -268 l 526 -166 q 574 -191 551 -182 q 633 -199 597 -199 q 722 -93 722 -199 l 722 421 q 694 506 722 479 q 620 533 667 533 q 495 481 556 533 l 495 0 l 373 0 z "},"Ҍ":{"ha":855,"x_min":43,"x_max":811,"o":"m 179 0 l 179 756 l 43 756 l 43 846 l 179 846 l 179 981 l 302 981 l 302 846 l 489 846 l 489 756 l 302 756 l 302 610 l 447 610 q 711 537 611 610 q 811 315 811 464 q 762 134 811 204 q 627 32 713 65 q 429 0 541 0 l 179 0 m 302 100 l 444 100 q 564 119 511 100 q 648 183 618 137 q 679 312 679 229 q 617 468 679 423 q 449 512 555 512 l 302 512 l 302 100 z "},"Ҏ":{"ha":855,"x_min":165,"x_max":793,"o":"m 793 676 q 761 533 793 595 q 673 433 729 472 l 791 239 l 679 239 l 586 390 q 414 364 510 364 l 288 364 l 288 0 l 165 0 l 165 981 l 415 981 q 692 907 590 981 q 793 676 793 833 m 408 682 l 521 682 l 616 526 q 660 675 660 576 q 629 798 660 752 q 547 863 599 843 q 429 882 495 882 l 288 882 l 288 464 l 424 464 q 533 476 489 464 l 408 682 z "},"Ԩ":{"ha":855,"x_min":-124,"x_max":736,"o":"m 613 0 l 613 465 l 242 465 l 242 0 l 119 0 l 119 981 l 242 981 l 242 566 l 613 566 l 613 981 l 736 981 l 736 0 l 613 0 m 36 -303 q -59 -286 -20 -303 q -124 -250 -99 -269 l -78 -168 q -29 -193 -52 -184 q 31 -202 -6 -202 q 119 -95 119 -202 l 119 0 l 242 0 l 242 -88 q 186 -249 242 -196 q 36 -303 130 -303 z "},"Ԫ":{"ha":855,"x_min":-18,"x_max":871,"o":"m -18 -209 l -18 92 l 29 92 q 55 166 42 126 q 80 262 68 205 q 103 405 92 319 q 123 619 113 491 l 146 981 l 429 981 l 429 563 l 503 563 l 503 981 l 607 981 l 607 563 l 646 563 l 739 981 l 843 981 l 733 516 l 871 0 l 753 0 l 644 461 l 607 461 l 607 0 l 524 0 l 524 -209 l 431 -209 l 410 0 l 93 0 l 72 -209 l -18 -209 m 127 92 l 326 92 l 326 885 l 247 885 l 233 614 q 211 358 224 457 q 177 199 197 260 q 127 92 156 138 m 503 461 l 429 461 l 429 92 l 503 92 l 503 461 z "},"Ԭ":{"ha":855,"x_min":75,"x_max":801,"o":"m 75 103 l 127 103 l 127 104 q 208 235 165 144 q 284 493 250 325 q 136 590 185 518 q 86 796 87 662 l 86 981 l 214 981 l 214 800 q 234 672 214 722 q 304 600 254 623 q 318 695 311 646 l 354 981 l 750 981 l 750 103 l 801 103 l 801 -209 l 704 -209 l 682 0 l 194 0 l 173 -209 l 75 -209 l 75 103 m 445 690 q 431 580 439 632 l 627 580 l 627 875 l 467 875 l 445 690 m 252 103 l 627 103 l 627 479 l 421 478 q 414 478 417 478 q 365 294 392 365 q 310 178 339 223 q 252 103 281 134 z "},"Ԯ":{"ha":855,"x_min":5,"x_max":780,"o":"m 780 103 l 780 -209 l 682 -209 l 661 0 l 569 0 l 569 875 l 332 875 l 297 584 q 263 355 281 448 q 226 202 246 263 q 182 103 206 142 q 128 37 158 64 q 59 -16 98 11 l 5 76 q 50 120 28 96 q 92 191 72 145 q 131 322 112 237 q 169 549 150 407 l 224 981 l 692 981 l 692 103 l 780 103 z "},"а":{"ha":855,"x_min":98,"x_max":741,"o":"m 680 164 q 695 98 680 118 q 741 68 710 77 l 712 -16 q 627 15 664 -10 q 575 89 591 39 q 473 10 534 37 q 340 -16 412 -16 q 162 47 227 -16 q 98 215 98 110 q 188 393 98 331 q 449 455 278 455 l 560 455 l 560 518 q 512 633 560 599 q 381 667 465 667 q 294 658 344 667 q 186 628 244 649 l 155 719 q 284 755 223 744 q 400 766 345 766 q 610 700 539 766 q 680 524 680 635 l 680 164 m 370 75 q 476 103 426 75 q 560 181 526 131 l 560 374 l 452 374 q 277 331 328 374 q 226 217 226 288 q 370 75 226 75 z "},"б":{"ha":855,"x_min":108,"x_max":746,"o":"m 616 1068 l 669 975 q 577 925 630 952 q 441 868 524 898 q 340 816 382 846 q 272 728 298 786 q 236 564 246 670 q 334 663 274 626 q 473 701 395 701 q 671 610 595 701 q 746 358 746 519 q 705 154 746 238 q 592 27 665 71 q 426 -16 520 -16 q 264 28 336 -16 q 150 167 192 73 q 108 411 108 262 q 131 675 108 567 q 213 852 154 783 q 382 959 273 921 q 476 994 437 979 q 548 1027 516 1010 q 616 1068 581 1045 m 239 364 q 289 156 239 229 q 426 83 340 83 q 521 105 478 83 q 589 186 563 127 q 615 354 615 245 q 570 546 615 491 q 454 602 526 602 q 336 568 394 602 q 239 454 278 535 l 239 364 z "},"в":{"ha":855,"x_min":159,"x_max":759,"o":"m 414 766 q 636 715 553 766 q 719 571 719 665 q 687 470 719 512 q 568 407 655 428 q 759 222 759 387 q 715 94 759 143 q 600 23 672 46 q 442 0 528 0 l 159 0 l 159 740 q 281 759 217 751 q 414 766 345 766 m 415 670 q 343 668 373 670 q 278 662 313 666 l 278 444 l 433 444 q 551 468 507 444 q 595 559 595 493 q 551 645 595 620 q 415 670 506 670 m 278 97 l 439 97 q 583 127 535 97 q 630 221 630 157 q 602 303 630 276 q 530 340 573 331 q 441 350 486 350 l 278 350 l 278 97 z "},"г":{"ha":855,"x_min":225,"x_max":747,"o":"m 345 0 l 225 0 l 225 750 l 747 750 l 733 650 l 345 650 l 345 0 z "},"ѓ":{"ha":855,"x_min":225,"x_max":747,"o":"m 345 0 l 225 0 l 225 750 l 747 750 l 733 650 l 345 650 l 345 0 m 604 1135 l 660 1033 l 362 912 l 325 976 l 604 1135 z "},"ґ":{"ha":855,"x_min":225,"x_max":747,"o":"m 345 0 l 225 0 l 225 750 l 625 750 l 625 939 l 747 939 l 747 750 l 733 650 l 345 650 l 345 0 z "},"ӷ":{"ha":855,"x_min":225,"x_max":747,"o":"m 460 98 l 460 -209 l 361 -209 l 340 0 l 225 0 l 225 750 l 747 750 l 733 650 l 345 650 l 345 98 l 460 98 z "},"ғ":{"ha":855,"x_min":135,"x_max":791,"o":"m 388 0 l 269 0 l 269 335 l 135 335 l 135 430 l 269 430 l 269 750 l 791 750 l 776 650 l 388 650 l 388 430 l 566 430 l 566 335 l 388 335 l 388 0 z "},"ҕ":{"ha":855,"x_min":146,"x_max":707,"o":"m 146 0 l 146 750 l 605 750 l 589 655 l 266 655 l 266 388 q 361 466 304 434 q 492 498 419 498 q 646 439 584 498 q 707 274 707 381 l 707 0 l 707 0 l 707 -86 q 650 -247 707 -193 q 499 -301 593 -301 q 405 -285 444 -301 q 340 -249 365 -268 l 386 -171 q 435 -194 412 -185 q 494 -203 459 -203 q 562 -178 537 -203 q 588 -96 588 -154 l 588 1 l 588 1 l 588 263 q 554 371 588 339 q 467 402 521 402 q 353 368 400 402 q 266 283 306 333 l 266 283 l 266 0 l 146 0 z "},"д":{"ha":855,"x_min":37,"x_max":762,"o":"m 37 98 l 88 98 q 144 171 122 127 q 181 293 167 214 q 206 508 196 373 l 223 750 l 707 750 l 707 98 l 762 98 l 762 -209 l 663 -209 l 642 0 l 157 0 l 137 -209 l 37 -209 l 37 98 m 585 652 l 331 652 l 323 516 q 307 343 316 412 q 282 227 297 273 q 245 151 268 181 q 190 98 223 121 l 585 98 l 585 652 z "},"е":{"ha":855,"x_min":112,"x_max":744,"o":"m 237 333 q 306 143 242 202 q 457 83 370 83 q 561 100 514 83 q 657 151 607 118 l 713 72 q 593 7 661 31 q 455 -16 526 -16 q 269 33 345 -16 q 152 170 192 82 q 112 374 112 258 q 152 576 112 488 q 266 715 192 665 q 439 766 340 766 q 663 667 581 766 q 744 398 744 569 q 743 362 744 379 q 741 333 742 345 l 237 333 m 441 667 q 301 608 358 667 q 238 425 245 549 l 629 425 q 576 606 627 546 q 441 667 526 667 z "},"ѐ":{"ha":855,"x_min":112,"x_max":744,"o":"m 237 333 q 306 143 242 202 q 457 83 370 83 q 561 100 514 83 q 657 151 607 118 l 713 72 q 593 7 661 31 q 455 -16 526 -16 q 269 33 345 -16 q 152 170 192 82 q 112 374 112 258 q 152 576 112 488 q 266 715 192 665 q 439 766 340 766 q 663 667 581 766 q 744 398 744 569 q 743 362 744 379 q 741 333 742 345 l 237 333 m 441 667 q 301 608 358 667 q 238 425 245 549 l 629 425 q 576 606 627 546 q 441 667 526 667 m 566 886 l 278 1019 l 342 1120 l 605 952 l 566 886 z "},"ё":{"ha":855,"x_min":112,"x_max":744,"o":"m 237 333 q 306 143 242 202 q 457 83 370 83 q 561 100 514 83 q 657 151 607 118 l 713 72 q 593 7 661 31 q 455 -16 526 -16 q 269 33 345 -16 q 152 170 192 82 q 112 374 112 258 q 152 576 112 488 q 266 715 192 665 q 439 766 340 766 q 663 667 581 766 q 744 398 744 569 q 743 362 744 379 q 741 333 742 345 l 237 333 m 441 667 q 301 608 358 667 q 238 425 245 549 l 629 425 q 576 606 627 546 q 441 667 526 667 m 295 924 q 239 945 261 924 q 217 999 217 967 q 239 1054 217 1033 q 295 1076 261 1076 q 349 1054 327 1076 q 372 999 372 1033 q 349 945 372 967 q 295 924 327 924 m 588 924 q 533 945 556 924 q 511 999 511 967 q 533 1054 511 1033 q 588 1076 556 1076 q 644 1054 622 1076 q 667 999 667 1033 q 644 945 667 967 q 588 924 622 924 z "},"ж":{"ha":855,"x_min":28,"x_max":827,"o":"m 374 0 l 374 351 l 294 351 l 146 0 l 28 0 l 202 402 l 42 750 l 163 750 l 294 445 l 374 445 l 374 750 l 481 750 l 481 445 l 561 445 l 695 750 l 813 750 l 653 402 l 827 0 l 705 0 l 558 351 l 481 351 l 481 0 l 374 0 z "},"з":{"ha":855,"x_min":77,"x_max":736,"o":"m 273 441 l 408 441 q 527 472 484 441 q 571 553 571 504 q 524 642 571 613 q 392 670 477 670 q 274 653 335 670 q 162 603 213 636 l 105 675 q 240 741 161 717 q 397 766 318 766 q 547 743 479 766 q 655 676 615 721 q 694 562 694 630 q 651 459 694 499 q 543 400 608 419 q 638 374 594 395 q 709 315 682 353 q 736 224 736 278 q 692 92 736 145 q 571 11 647 38 q 396 -16 494 -16 q 208 15 286 -16 q 77 88 130 46 l 134 165 q 251 105 187 127 q 400 83 315 83 q 554 120 503 83 q 606 222 606 158 q 415 343 606 343 l 264 343 l 273 441 z "},"и":{"ha":855,"x_min":143,"x_max":712,"o":"m 712 750 l 712 0 l 592 0 l 592 351 q 596 493 592 425 q 608 612 600 561 l 288 0 l 143 0 l 143 750 l 263 750 l 263 400 q 259 256 263 327 q 248 141 254 185 l 563 750 l 712 750 z "},"й":{"ha":855,"x_min":143,"x_max":712,"o":"m 712 750 l 712 0 l 592 0 l 592 351 q 596 493 592 425 q 608 612 600 561 l 288 0 l 143 0 l 143 750 l 263 750 l 263 400 q 259 256 263 327 q 248 141 254 185 l 563 750 l 712 750 m 425 921 q 283 962 343 921 q 214 1082 223 1003 l 297 1100 q 343 1034 313 1053 q 425 1014 374 1014 q 508 1034 474 1014 q 556 1100 541 1053 l 639 1082 q 569 962 630 1003 q 425 921 507 921 z "},"ѝ":{"ha":855,"x_min":143,"x_max":712,"o":"m 712 750 l 712 0 l 592 0 l 592 351 q 596 493 592 425 q 608 612 600 561 l 288 0 l 143 0 l 143 750 l 263 750 l 263 400 q 259 256 263 327 q 248 141 254 185 l 563 750 l 712 750 m 551 886 l 263 1019 l 327 1120 l 590 952 l 551 886 z "},"ҋ":{"ha":855,"x_min":132,"x_max":799,"o":"m 407 921 q 266 962 326 921 q 197 1082 206 1003 l 281 1100 q 327 1034 296 1053 q 407 1014 358 1014 q 491 1034 458 1014 q 540 1100 524 1053 l 622 1082 q 552 962 613 1003 q 407 921 491 921 m 799 94 l 705 -209 l 607 -209 l 656 0 l 573 0 l 573 351 q 577 527 573 451 q 586 640 581 603 l 277 0 l 132 0 l 132 750 l 249 750 l 249 400 q 243 232 249 312 q 230 113 237 152 l 543 750 l 689 750 l 689 94 l 799 94 z "},"к":{"ha":855,"x_min":150,"x_max":811,"o":"m 150 0 l 150 750 l 270 750 l 270 447 l 420 447 l 637 750 l 771 750 l 519 402 l 811 0 l 666 0 l 418 350 l 270 350 l 270 0 l 150 0 z "},"ќ":{"ha":855,"x_min":150,"x_max":811,"o":"m 150 0 l 150 750 l 270 750 l 270 447 l 420 447 l 637 750 l 771 750 l 519 402 l 811 0 l 666 0 l 418 350 l 270 350 l 270 0 l 150 0 m 575 1135 l 630 1033 l 333 912 l 296 976 l 575 1135 z "},"л":{"ha":855,"x_min":60,"x_max":726,"o":"m 726 750 l 726 0 l 607 0 l 607 650 l 326 650 l 309 452 q 286 249 300 328 q 250 121 272 170 q 194 43 228 73 q 110 -16 160 12 l 60 61 q 107 98 86 78 q 145 157 128 118 q 173 265 161 196 q 194 447 186 333 l 218 750 l 726 750 z "},"м":{"ha":855,"x_min":61,"x_max":794,"o":"m 740 750 l 794 0 l 679 0 l 650 367 q 644 491 646 427 q 644 631 642 556 l 638 631 l 489 126 l 370 126 l 204 631 l 199 631 q 200 499 202 570 q 195 369 199 429 l 174 0 l 61 0 l 113 750 l 271 750 l 432 238 l 580 750 l 740 750 z "},"н":{"ha":855,"x_min":143,"x_max":712,"o":"m 592 0 l 592 334 l 263 334 l 263 0 l 143 0 l 143 750 l 263 750 l 263 432 l 592 432 l 592 750 l 712 750 l 712 0 l 592 0 z "},"о":{"ha":855,"x_min":105,"x_max":750,"o":"m 429 766 q 669 660 588 766 q 750 375 750 553 q 713 172 750 261 q 604 34 676 84 q 427 -16 532 -16 q 187 90 269 -16 q 105 374 105 197 q 142 578 105 489 q 251 716 179 667 q 429 766 323 766 m 429 668 q 282 596 332 668 q 233 374 233 524 q 282 153 233 225 q 427 82 330 82 q 573 154 524 82 q 622 375 622 226 q 573 597 622 525 q 429 668 525 668 z "},"п":{"ha":855,"x_min":143,"x_max":712,"o":"m 592 0 l 592 652 l 263 652 l 263 0 l 143 0 l 143 750 l 712 750 l 712 0 l 592 0 z "},"р":{"ha":855,"x_min":143,"x_max":750,"o":"m 479 766 q 638 717 578 766 q 724 581 697 669 q 750 375 750 493 q 718 173 750 262 q 623 34 687 85 q 461 -16 558 -16 q 263 71 338 -16 l 263 -287 l 143 -302 l 143 750 l 245 750 l 255 645 q 353 734 296 703 q 479 766 410 766 m 450 670 q 340 632 388 670 q 263 549 293 595 l 263 177 q 337 109 292 134 q 434 83 381 83 q 575 155 528 83 q 622 376 622 226 q 450 670 622 670 z "},"с":{"ha":855,"x_min":130,"x_max":736,"o":"m 482 87 q 587 105 538 87 q 677 152 636 123 l 736 74 q 618 8 687 32 q 482 -16 548 -16 q 292 32 370 -16 q 172 167 213 80 q 130 372 130 254 q 172 573 130 484 q 292 714 213 662 q 484 766 371 766 q 734 679 627 766 l 676 599 q 482 666 578 666 q 323 593 385 666 q 260 372 260 520 q 323 154 260 222 q 482 87 385 87 z "},"т":{"ha":855,"x_min":93,"x_max":770,"o":"m 770 750 l 756 650 l 487 650 l 487 0 l 368 0 l 368 650 l 93 650 l 93 750 l 770 750 z "},"у":{"ha":855,"x_min":88,"x_max":767,"o":"m 767 750 l 504 -5 q 437 -145 477 -81 q 332 -250 397 -208 q 169 -301 268 -291 l 150 -206 q 273 -167 228 -193 q 344 -99 318 -140 q 390 0 370 -58 l 350 0 l 88 750 l 216 750 l 431 91 l 643 750 l 767 750 z "},"ў":{"ha":855,"x_min":88,"x_max":767,"o":"m 767 750 l 504 -5 q 437 -145 477 -81 q 332 -250 397 -208 q 169 -301 268 -291 l 150 -206 q 273 -167 228 -193 q 344 -99 318 -140 q 390 0 370 -58 l 350 0 l 88 750 l 216 750 l 431 91 l 643 750 l 767 750 m 425 921 q 283 962 343 921 q 214 1082 223 1003 l 297 1100 q 343 1034 313 1053 q 425 1014 374 1014 q 508 1034 474 1014 q 556 1100 541 1053 l 639 1082 q 569 962 630 1003 q 425 921 507 921 z "},"ф":{"ha":855,"x_min":41,"x_max":814,"o":"m 373 1067 l 481 1052 l 481 690 q 548 748 513 729 q 621 766 583 766 q 738 717 696 766 q 797 581 780 669 q 814 376 814 493 q 791 170 814 258 q 721 32 767 81 q 609 -16 675 -16 q 481 63 538 -16 l 481 -287 l 373 -302 l 373 63 q 310 3 345 23 q 243 -16 275 -16 q 131 32 177 -16 q 63 170 86 81 q 41 376 41 258 q 59 581 41 493 q 122 717 78 669 q 240 766 165 766 q 310 749 277 766 q 373 693 343 731 l 373 1067 m 267 672 q 191 603 216 672 q 165 376 165 535 q 191 148 165 217 q 267 79 216 79 q 321 98 298 79 q 373 152 344 116 l 373 605 q 323 655 345 637 q 267 672 301 672 m 595 672 q 535 655 560 672 q 481 603 509 637 l 481 152 q 530 98 507 116 q 584 79 553 79 q 664 148 636 79 q 692 376 692 217 q 669 603 692 535 q 595 672 646 672 z "},"х":{"ha":855,"x_min":79,"x_max":776,"o":"m 216 0 l 79 0 l 356 396 l 113 750 l 255 750 l 429 471 l 605 750 l 741 750 l 499 401 l 776 0 l 629 0 l 424 322 l 216 0 z "},"ч":{"ha":855,"x_min":121,"x_max":697,"o":"m 697 750 l 697 0 l 577 0 l 577 318 q 473 256 534 279 q 341 233 411 233 q 177 291 232 233 q 121 454 121 349 l 121 750 l 241 750 l 241 468 q 273 361 241 393 q 371 328 305 328 q 484 351 425 328 q 577 414 542 374 l 577 750 l 697 750 z "},"ц":{"ha":855,"x_min":135,"x_max":818,"o":"m 818 98 l 818 -209 l 719 -209 l 699 0 l 135 0 l 135 750 l 254 750 l 254 100 l 583 100 l 583 750 l 703 750 l 703 98 l 818 98 z "},"ш":{"ha":855,"x_min":69,"x_max":786,"o":"m 786 750 l 786 0 l 69 0 l 69 750 l 182 750 l 182 100 l 372 100 l 372 750 l 483 750 l 483 100 l 673 100 l 673 750 l 786 750 z "},"щ":{"ha":855,"x_min":69,"x_max":887,"o":"m 887 98 l 887 -209 l 788 -209 l 768 0 l 69 0 l 69 750 l 182 750 l 182 100 l 372 100 l 372 750 l 483 750 l 483 100 l 673 100 l 673 750 l 786 750 l 786 98 l 887 98 z "},"џ":{"ha":855,"x_min":143,"x_max":712,"o":"m 592 750 l 712 750 l 712 0 l 486 0 l 474 -209 l 380 -209 l 368 0 l 143 0 l 143 750 l 263 750 l 263 100 l 592 100 l 592 750 z "},"ь":{"ha":855,"x_min":179,"x_max":760,"o":"m 299 750 l 299 514 l 447 514 q 632 482 563 514 q 730 393 700 450 q 760 259 760 335 q 719 112 760 169 q 611 27 677 55 q 473 0 546 0 l 179 0 l 179 750 l 299 750 m 444 420 l 299 420 l 299 96 l 459 96 q 583 131 535 96 q 632 258 632 165 q 592 379 632 338 q 444 420 553 420 z "},"ы":{"ha":855,"x_min":88,"x_max":766,"o":"m 202 750 l 202 506 l 253 506 q 487 448 402 506 q 572 260 572 390 q 485 62 572 123 q 254 0 397 0 l 88 0 l 88 750 l 202 750 m 766 750 l 766 0 l 651 0 l 651 750 l 766 750 m 259 417 l 202 417 l 202 93 l 257 93 q 397 127 347 93 q 448 260 448 162 q 402 381 448 345 q 259 417 356 417 z "},"ъ":{"ha":855,"x_min":47,"x_max":777,"o":"m 345 750 l 345 514 l 434 514 q 684 456 592 514 q 777 261 777 397 q 733 106 777 164 q 611 25 688 49 q 434 0 533 0 l 226 0 l 226 657 l 47 657 l 47 750 l 345 750 m 448 420 l 345 420 l 345 96 l 447 96 q 550 109 504 96 q 622 158 595 123 q 648 261 648 194 q 595 385 648 349 q 448 420 542 420 z "},"љ":{"ha":855,"x_min":5,"x_max":843,"o":"m 517 750 l 517 507 l 536 507 q 762 448 680 507 q 843 261 843 390 q 761 64 843 127 q 538 0 678 0 l 402 0 l 402 655 l 251 655 l 241 457 q 223 256 236 335 q 187 127 209 177 q 130 45 164 77 q 49 -16 95 12 l 5 65 q 43 103 25 81 q 78 164 62 125 q 106 271 94 203 q 123 449 118 340 l 140 750 l 517 750 m 543 418 l 517 418 l 517 93 l 546 93 q 674 128 629 93 q 719 260 719 162 q 677 382 719 345 q 543 418 635 418 z "},"њ":{"ha":855,"x_min":103,"x_max":848,"o":"m 521 750 l 521 468 l 541 468 q 765 415 683 468 q 848 236 848 362 q 809 97 848 149 q 703 23 771 46 q 545 0 635 0 l 407 0 l 407 380 l 222 380 l 222 0 l 103 0 l 103 750 l 222 750 l 222 468 l 407 468 l 407 750 l 521 750 m 546 378 l 521 378 l 521 93 l 548 93 q 640 103 601 93 q 701 142 679 112 q 722 235 722 172 q 679 348 722 318 q 546 378 637 378 z "},"ѕ":{"ha":855,"x_min":105,"x_max":714,"o":"m 398 83 q 535 115 485 83 q 585 202 585 147 q 572 260 585 235 q 521 305 560 285 q 403 345 483 325 q 268 390 325 365 q 179 456 211 415 q 147 561 147 496 q 226 711 147 656 q 432 766 306 766 q 590 741 523 766 q 704 683 657 717 l 652 602 q 558 650 610 631 q 434 669 506 669 q 308 641 345 669 q 271 571 271 614 q 290 515 271 537 q 351 476 308 494 q 471 439 395 459 q 599 392 544 419 q 684 321 654 365 q 714 207 714 277 q 669 78 714 127 q 551 6 623 28 q 398 -16 479 -16 q 225 13 296 -16 q 105 85 153 43 l 173 164 q 275 105 217 127 q 398 83 332 83 z "},"є":{"ha":855,"x_min":130,"x_max":736,"o":"m 484 766 q 618 746 555 766 q 736 683 681 726 l 679 606 q 582 655 628 640 q 482 670 536 670 q 333 610 395 670 q 256 432 270 551 l 598 432 l 598 337 l 254 337 q 327 144 263 204 q 482 83 390 83 q 584 99 538 83 q 680 149 631 115 l 736 72 q 615 6 684 28 q 486 -16 546 -16 q 293 32 372 -16 q 172 167 214 80 q 130 372 130 254 q 172 573 130 484 q 292 714 213 662 q 484 766 371 766 z "},"э":{"ha":855,"x_min":130,"x_max":736,"o":"m 396 766 q 652 660 568 766 q 736 380 736 555 q 696 173 736 262 q 579 33 657 83 q 389 -16 502 -16 q 251 6 319 -16 q 130 73 182 29 l 189 152 q 388 83 281 83 q 543 144 484 83 q 612 337 603 204 l 257 337 l 257 432 l 610 432 q 543 611 600 553 q 395 670 487 670 q 291 653 342 670 q 194 602 241 637 l 137 680 q 257 744 188 722 q 396 766 327 766 z "},"і":{"ha":855,"x_min":172,"x_max":734,"o":"m 427 1101 q 491 1077 467 1101 q 515 1018 515 1053 q 491 957 515 981 q 427 932 467 932 q 365 957 390 932 q 341 1018 341 981 q 365 1077 341 1053 q 427 1101 390 1101 m 523 750 l 523 95 l 734 95 l 734 0 l 172 0 l 172 95 l 403 95 l 403 655 l 179 655 l 179 750 l 523 750 z "},"ї":{"ha":855,"x_min":172,"x_max":734,"o":"m 523 750 l 523 95 l 734 95 l 734 0 l 172 0 l 172 95 l 403 95 l 403 655 l 179 655 l 179 750 l 523 750 m 282 924 q 226 945 248 924 q 204 999 204 967 q 226 1054 204 1033 q 282 1076 248 1076 q 337 1054 314 1076 q 359 999 359 1033 q 337 945 359 967 q 282 924 314 924 m 575 924 q 521 945 543 924 q 499 999 499 967 q 521 1054 499 1033 q 575 1076 543 1076 q 631 1054 609 1076 q 654 999 654 1033 q 631 945 654 967 q 575 924 609 924 z "},"ј":{"ha":855,"x_min":136,"x_max":634,"o":"m 522 1101 q 586 1077 562 1101 q 610 1018 610 1053 q 586 957 610 981 q 522 932 562 932 q 460 957 484 932 q 437 1018 437 981 q 460 1077 437 1053 q 522 1101 484 1101 m 634 750 l 634 120 q 577 -90 634 -5 q 414 -225 521 -175 q 156 -302 307 -276 l 136 -209 q 333 -154 247 -191 q 466 -53 418 -117 q 514 113 514 11 l 514 655 l 202 655 l 202 750 l 634 750 z "},"ћ":{"ha":855,"x_min":28,"x_max":713,"o":"m 504 947 l 504 851 l 263 851 l 263 647 q 371 736 307 706 q 502 766 436 766 q 662 707 612 766 q 713 545 713 649 l 713 0 l 593 0 l 593 542 q 562 641 593 610 q 464 672 531 672 q 382 652 421 672 q 313 605 344 633 q 263 546 283 576 l 263 0 l 143 0 l 143 851 l 28 851 l 28 947 l 143 947 l 143 1051 l 263 1063 l 263 947 l 504 947 z "},"ю":{"ha":855,"x_min":79,"x_max":809,"o":"m 548 766 q 745 662 681 766 q 809 375 809 558 q 782 171 809 259 q 697 33 754 83 q 548 -16 639 -16 q 407 29 462 -16 q 324 154 352 75 q 293 333 296 233 l 197 333 l 197 0 l 79 0 l 79 750 l 197 750 l 197 433 l 293 433 q 363 676 301 587 q 548 766 425 766 m 548 667 q 444 595 471 667 q 417 374 417 523 q 443 160 417 238 q 548 82 469 82 q 656 160 630 82 q 682 375 682 239 q 653 595 682 524 q 548 667 623 667 z "},"я":{"ha":855,"x_min":75,"x_max":692,"o":"m 75 0 l 254 318 q 120 524 120 380 q 200 693 120 635 q 417 750 279 750 l 692 750 l 692 0 l 572 0 l 572 291 l 371 291 l 210 0 l 75 0 m 410 385 l 572 385 l 572 654 l 414 654 q 290 623 333 654 q 247 522 247 592 q 286 417 247 449 q 410 385 324 385 z "},"ђ":{"ha":855,"x_min":28,"x_max":713,"o":"m 263 1063 l 263 947 l 504 947 l 504 851 l 263 851 l 263 652 q 371 736 307 707 q 502 766 436 766 q 662 707 612 766 q 713 545 713 649 l 713 37 q 688 -130 713 -68 q 615 -229 664 -192 q 493 -300 566 -267 l 448 -213 q 530 -165 497 -190 q 578 -94 562 -139 q 593 34 593 -48 l 593 538 q 562 640 593 608 q 464 672 531 672 q 382 652 421 672 q 313 605 344 633 q 263 546 283 576 l 263 0 l 143 0 l 143 851 l 28 851 l 28 947 l 143 947 l 143 1051 l 263 1063 z "},"ѡ":{"ha":855,"x_min":38,"x_max":817,"o":"m 745 750 q 794 576 771 679 q 817 340 817 474 q 762 79 817 175 q 599 -16 707 -16 q 481 25 526 -16 q 426 150 437 67 q 365 27 410 71 q 251 -16 321 -16 q 90 76 142 -16 q 38 340 38 168 q 59 577 38 474 q 108 750 80 679 l 214 750 q 176 601 189 669 q 160 471 164 534 q 156 340 156 407 q 165 206 156 264 q 197 115 174 147 q 264 82 221 82 q 329 117 306 82 q 361 208 353 152 q 370 328 370 264 l 370 508 l 484 524 l 484 328 q 506 151 484 219 q 590 82 527 82 q 677 154 655 82 q 699 340 699 226 q 694 471 699 407 q 675 601 689 534 q 635 750 662 669 l 745 750 z "},"ѣ":{"ha":855,"x_min":83,"x_max":769,"o":"m 326 933 l 326 763 l 516 763 l 501 667 l 326 667 l 326 506 l 427 506 q 676 449 583 506 q 769 257 769 391 q 724 104 769 160 q 602 24 679 48 q 425 0 524 0 l 207 0 l 207 667 l 83 667 l 83 763 l 207 763 l 207 918 l 326 933 m 440 412 l 326 412 l 326 96 l 439 96 q 542 109 496 96 q 614 156 587 121 q 640 256 640 191 q 587 377 640 342 q 440 412 534 412 z "},"ѥ":{"ha":855,"x_min":108,"x_max":832,"o":"m 229 750 l 229 433 l 321 433 q 367 605 330 530 q 469 723 405 680 q 625 766 533 766 q 735 746 685 766 q 832 685 785 726 l 771 610 q 702 653 736 638 q 623 667 667 667 q 495 605 538 667 q 439 432 452 543 l 721 432 l 721 337 l 438 337 q 493 146 442 205 q 620 86 543 86 q 698 101 665 86 q 763 145 731 116 l 827 72 q 728 6 782 28 q 621 -16 673 -16 q 408 78 489 -16 q 319 333 328 172 l 229 333 l 229 0 l 108 0 l 108 750 l 229 750 z "},"ѧ":{"ha":855,"x_min":51,"x_max":805,"o":"m 498 750 l 805 0 l 677 0 l 566 291 l 475 291 l 475 0 l 373 0 l 373 291 l 287 291 l 174 0 l 51 0 l 360 750 l 498 750 m 427 652 l 324 387 l 528 387 l 427 652 z "},"ѩ":{"ha":855,"x_min":74,"x_max":846,"o":"m 74 0 l 74 750 l 192 750 l 192 390 l 368 390 l 476 750 l 623 750 l 846 0 l 730 0 l 648 291 l 593 291 l 593 0 l 496 0 l 496 291 l 444 291 l 362 0 l 251 0 l 339 291 l 192 291 l 192 0 l 74 0 m 546 655 l 472 390 l 620 390 l 546 655 z "},"ѫ":{"ha":855,"x_min":31,"x_max":823,"o":"m 31 0 l 187 425 l 316 425 l 144 684 l 144 750 l 704 750 l 704 684 l 530 425 l 669 425 l 823 0 l 714 0 l 593 331 l 486 331 l 486 0 l 368 0 l 368 331 l 263 331 l 144 0 l 31 0 m 426 425 l 574 659 l 277 659 l 426 425 z "},"ѭ":{"ha":855,"x_min":50,"x_max":871,"o":"m 50 0 l 50 750 l 167 750 l 167 425 l 442 425 l 289 684 l 289 750 l 794 750 l 794 684 l 643 425 l 727 425 l 871 0 l 758 0 l 653 326 l 601 326 l 601 0 l 490 0 l 490 326 l 438 326 l 333 0 l 219 0 l 333 326 l 167 326 l 167 0 l 50 0 m 546 425 l 673 661 l 416 661 l 546 425 z "},"ѯ":{"ha":855,"x_min":115,"x_max":738,"o":"m 585 1125 l 639 1065 l 448 896 l 368 896 l 175 1065 l 231 1125 l 408 995 l 585 1125 m 308 -304 q 122 -107 122 -225 q 182 4 122 -36 q 374 56 241 43 q 551 94 494 68 q 609 192 609 121 q 575 284 609 257 q 485 311 541 311 l 239 311 l 239 402 l 536 648 l 115 648 l 115 750 l 697 750 l 697 657 l 377 401 l 482 401 q 668 351 598 401 q 738 192 738 301 q 699 70 738 118 q 593 -5 661 22 q 435 -41 524 -31 q 317 -58 358 -48 q 260 -82 276 -68 q 244 -117 244 -95 q 273 -172 244 -146 q 355 -224 302 -198 l 308 -304 z "},"ѱ":{"ha":855,"x_min":59,"x_max":810,"o":"m 485 750 l 485 90 q 615 135 571 100 q 674 229 659 170 q 689 374 689 289 q 680 549 689 452 q 652 750 670 646 l 774 750 q 800 564 791 656 q 810 361 810 472 q 733 104 810 202 q 485 -9 655 6 l 485 -287 l 373 -302 l 373 -9 q 193 40 262 -1 q 92 141 124 80 q 59 275 59 203 l 59 750 l 179 750 l 179 286 q 221 149 179 197 q 373 90 264 102 l 373 750 l 485 750 z "},"ѳ":{"ha":855,"x_min":105,"x_max":750,"o":"m 429 766 q 669 660 588 766 q 750 375 750 553 q 713 172 750 261 q 604 34 676 84 q 427 -16 532 -16 q 187 90 269 -16 q 105 374 105 197 q 142 578 105 489 q 251 716 179 667 q 429 766 323 766 m 429 667 q 236 429 248 667 l 619 429 q 429 667 607 667 m 619 334 l 236 334 q 292 142 244 203 q 427 82 339 82 q 562 142 514 82 q 619 334 610 203 z "},"ѵ":{"ha":855,"x_min":81,"x_max":850,"o":"m 343 0 l 81 750 l 212 750 l 415 110 l 593 666 q 651 782 617 746 q 752 817 684 817 q 801 810 776 817 q 850 791 825 803 l 811 711 q 766 720 788 720 q 728 705 741 720 q 703 656 714 690 l 488 0 l 343 0 z "},"ѷ":{"ha":855,"x_min":81,"x_max":850,"o":"m 343 0 l 81 750 l 212 750 l 415 110 l 593 666 q 651 782 617 746 q 752 817 684 817 q 801 810 776 817 q 850 791 825 803 l 811 711 q 766 720 788 720 q 728 705 741 720 q 703 656 714 690 l 488 0 l 343 0 z "},"ѹ":{"ha":855,"x_min":-1,"x_max":863,"o":"m 219 -16 q 91 32 140 -16 q 21 168 43 80 q -1 374 -1 256 q 21 578 -1 489 q 92 716 43 667 q 220 766 141 766 q 346 718 298 766 q 416 582 394 670 q 437 375 437 494 q 415 172 437 261 q 344 34 392 84 q 219 -16 296 -16 m 385 -301 l 368 -212 q 534 -145 477 -190 q 614 0 590 -100 l 561 0 l 425 750 l 552 750 l 647 91 l 740 750 l 863 750 l 730 9 q 385 -301 679 -274 m 219 80 q 296 152 276 80 q 316 375 316 224 q 296 600 316 528 q 220 672 277 672 q 141 600 162 672 q 120 374 120 528 q 141 151 120 223 q 219 80 161 80 z "},"җ":{"ha":855,"x_min":34,"x_max":857,"o":"m 374 0 l 374 351 l 294 351 l 152 0 l 34 0 l 202 402 l 48 750 l 170 750 l 294 445 l 374 445 l 374 750 l 481 750 l 481 445 l 561 445 l 689 750 l 807 750 l 653 402 l 779 98 l 857 98 l 857 -209 l 770 -209 l 749 0 l 699 0 l 558 351 l 481 351 l 481 0 l 374 0 z "},"ҙ":{"ha":855,"x_min":77,"x_max":736,"o":"m 273 441 l 408 441 q 527 472 484 441 q 571 553 571 504 q 524 642 571 613 q 392 670 477 670 q 274 653 335 670 q 162 603 213 636 l 105 675 q 240 741 161 717 q 397 766 318 766 q 547 743 479 766 q 655 676 615 721 q 694 562 694 630 q 651 459 694 499 q 543 400 608 419 q 638 374 594 395 q 709 315 682 353 q 736 224 736 278 q 692 92 736 145 q 571 11 647 38 q 396 -16 494 -16 q 208 15 286 -16 q 77 88 130 46 l 134 165 q 251 105 187 127 q 400 83 315 83 q 554 120 503 83 q 606 222 606 158 q 415 343 606 343 l 264 343 l 273 441 m 486 -200 q 452 -150 486 -162 q 362 -139 419 -139 l 375 23 l 457 23 l 457 -81 q 557 -122 526 -87 q 588 -200 588 -157 q 536 -305 588 -270 q 415 -340 484 -340 q 333 -330 372 -340 q 266 -305 293 -321 l 304 -236 q 350 -252 324 -246 q 400 -259 377 -259 q 462 -245 438 -259 q 486 -200 486 -232 z "},"қ":{"ha":855,"x_min":150,"x_max":836,"o":"m 150 0 l 150 750 l 270 750 l 270 447 l 420 447 l 637 750 l 771 750 l 519 402 l 740 98 l 836 98 l 836 -209 l 737 -209 l 716 0 l 666 0 l 418 350 l 270 350 l 270 0 l 150 0 z "},"ҝ":{"ha":855,"x_min":150,"x_max":811,"o":"m 150 0 l 150 750 l 271 750 l 271 448 l 335 448 l 335 612 l 402 612 l 402 448 l 442 448 l 646 750 l 771 750 l 539 405 l 811 0 l 679 0 l 442 348 l 402 348 l 402 172 l 335 172 l 335 348 l 271 348 l 271 0 l 150 0 z "},"ҟ":{"ha":855,"x_min":55,"x_max":800,"o":"m 508 402 l 800 0 l 655 0 l 407 350 l 287 350 l 287 0 l 167 0 l 167 808 l 55 808 l 55 904 l 167 904 l 167 1052 l 287 1067 l 287 904 l 499 904 l 499 808 l 287 808 l 287 447 l 410 447 l 626 750 l 761 750 l 508 402 z "},"ҡ":{"ha":855,"x_min":11,"x_max":837,"o":"m 189 0 l 189 657 l 11 657 l 11 750 l 309 750 l 309 447 l 445 447 l 663 750 l 798 750 l 543 402 l 837 0 l 692 0 l 442 350 l 309 350 l 309 0 l 189 0 z "},"ң":{"ha":855,"x_min":123,"x_max":807,"o":"m 571 0 l 571 334 l 242 334 l 242 0 l 123 0 l 123 750 l 242 750 l 242 432 l 571 432 l 571 750 l 691 750 l 691 98 l 807 98 l 807 -209 l 708 -209 l 687 0 l 571 0 z "},"ҥ":{"ha":855,"x_min":127,"x_max":858,"o":"m 533 0 l 533 334 l 246 334 l 246 0 l 127 0 l 127 750 l 246 750 l 246 432 l 533 432 l 533 750 l 858 750 l 846 652 l 653 652 l 653 652 l 653 0 l 533 0 z "},"ԥ":{"ha":855,"x_min":134,"x_max":818,"o":"m 583 0 l 583 652 l 254 652 l 254 0 l 134 0 l 134 750 l 702 750 l 702 98 l 818 98 l 818 -209 l 719 -209 l 698 0 l 583 0 z "},"ҧ":{"ha":855,"x_min":40,"x_max":849,"o":"m 40 0 l 40 750 l 508 750 l 508 438 q 575 482 537 467 q 665 498 613 498 q 797 443 746 498 q 849 301 849 389 l 849 -85 q 791 -247 849 -192 q 638 -301 734 -301 q 542 -285 582 -301 q 477 -249 503 -268 l 525 -170 q 573 -193 551 -184 q 632 -202 596 -202 q 702 -176 676 -202 q 727 -93 727 -151 l 727 291 q 635 401 727 401 q 565 387 595 401 q 508 346 535 373 l 508 0 l 384 0 l 384 651 l 163 651 l 163 0 l 40 0 z "},"ҩ":{"ha":855,"x_min":82,"x_max":784,"o":"m 655 -169 q 576 -83 612 -123 q 512 -6 541 -43 q 415 -16 465 -16 q 171 85 261 -16 q 82 368 82 187 q 120 578 82 488 q 230 717 159 667 q 402 766 302 766 q 494 756 451 766 q 575 724 536 746 l 526 637 q 470 658 499 651 q 407 666 442 666 q 264 593 316 666 q 212 372 212 520 q 266 152 212 222 q 420 82 320 82 q 447 83 434 82 q 388 200 407 146 q 369 306 369 254 q 394 412 369 363 q 465 491 418 461 q 579 521 511 521 q 728 463 672 521 q 784 311 784 406 q 739 152 784 227 q 613 32 694 77 q 668 -34 638 1 q 736 -109 699 -69 l 655 -169 m 488 306 q 504 213 488 259 q 556 110 519 167 q 640 193 613 140 q 666 311 666 246 q 644 395 666 364 q 579 425 621 425 q 511 392 534 425 q 488 306 488 359 z "},"ҫ":{"ha":855,"x_min":130,"x_max":736,"o":"m 482 87 q 587 105 538 87 q 677 152 636 123 l 736 74 q 646 19 697 41 q 542 -11 595 -3 q 623 -87 593 -43 q 652 -183 652 -130 q 604 -297 652 -254 q 474 -340 556 -340 q 392 -329 425 -340 q 336 -305 358 -318 l 368 -232 q 407 -250 384 -241 q 467 -259 430 -259 q 527 -236 507 -259 q 548 -177 548 -214 q 522 -92 548 -134 q 443 -15 496 -50 q 212 102 293 -2 q 130 372 130 206 q 172 573 130 484 q 292 714 213 662 q 484 766 371 766 q 734 679 627 766 l 676 599 q 482 666 578 666 q 323 593 385 666 q 260 372 260 520 q 323 154 260 222 q 482 87 385 87 z "},"ҭ":{"ha":855,"x_min":93,"x_max":770,"o":"m 603 98 l 603 -209 l 504 -209 l 483 0 l 368 0 l 368 650 l 93 650 l 93 750 l 770 750 l 756 650 l 487 650 l 487 98 l 603 98 z "},"ү":{"ha":855,"x_min":82,"x_max":773,"o":"m 369 -302 l 369 24 l 82 750 l 209 750 l 430 137 l 649 750 l 773 750 l 486 24 l 486 -287 l 369 -302 z "},"ұ":{"ha":855,"x_min":82,"x_max":773,"o":"m 369 -302 l 369 6 l 219 6 l 219 103 l 338 103 l 82 750 l 209 750 l 430 137 l 649 750 l 773 750 l 517 103 l 635 103 l 635 6 l 486 6 l 486 -287 l 369 -302 z "},"ҳ":{"ha":855,"x_min":79,"x_max":799,"o":"m 216 0 l 79 0 l 356 396 l 113 750 l 255 750 l 429 471 l 605 750 l 741 750 l 499 401 l 708 98 l 799 98 l 799 -209 l 700 -209 l 679 0 l 629 0 l 424 322 l 216 0 z "},"ҵ":{"ha":855,"x_min":0,"x_max":790,"o":"m 790 98 l 790 -209 l 690 -209 l 670 0 l 179 0 l 179 656 l 0 656 l 0 750 l 482 750 l 469 656 l 300 656 l 300 100 l 583 100 l 583 750 l 704 750 l 704 98 l 790 98 z "},"ҷ":{"ha":855,"x_min":107,"x_max":798,"o":"m 798 98 l 798 -209 l 699 -209 l 679 0 l 563 0 l 563 318 q 458 256 520 279 q 327 233 397 233 q 162 291 218 233 q 107 454 107 349 l 107 750 l 226 750 l 226 468 q 259 361 226 393 q 357 328 291 328 q 469 351 411 328 q 563 414 528 374 l 563 750 l 682 750 l 682 98 l 798 98 z "},"ҹ":{"ha":855,"x_min":121,"x_max":697,"o":"m 434 553 l 434 335 q 514 365 476 345 q 577 414 552 385 l 577 750 l 697 750 l 697 0 l 577 0 l 577 318 q 434 244 519 265 l 434 130 l 357 130 l 357 234 q 341 233 349 233 q 177 291 232 233 q 121 454 121 349 l 121 750 l 241 750 l 241 468 q 269 365 241 397 q 357 328 298 332 l 357 553 l 434 553 z "},"һ":{"ha":855,"x_min":145,"x_max":712,"o":"m 145 0 l 145 1051 l 264 1063 l 264 563 q 359 648 303 616 q 489 679 415 679 q 652 618 592 679 q 712 451 712 557 l 712 0 l 593 0 l 593 432 q 558 551 593 518 q 465 585 524 585 q 348 548 395 585 q 264 452 301 511 l 264 0 l 145 0 z "},"ԧ":{"ha":855,"x_min":137,"x_max":821,"o":"m 137 0 l 137 1051 l 257 1063 l 257 563 q 352 648 296 616 q 483 679 408 679 q 645 618 585 679 q 705 451 705 557 l 705 98 l 821 98 l 821 -209 l 722 -209 l 702 0 l 585 0 l 585 432 q 551 551 585 518 q 459 585 516 585 q 342 548 389 585 q 257 452 295 511 l 257 0 l 137 0 z "},"ҽ":{"ha":855,"x_min":15,"x_max":790,"o":"m 323 333 q 385 145 326 204 q 528 85 444 85 q 619 100 581 85 q 696 140 656 115 l 754 65 q 654 7 713 31 q 527 -16 595 -16 q 298 80 382 -16 q 204 335 214 176 q 62 380 108 336 q 15 493 15 424 q 32 571 15 536 q 71 637 50 606 l 147 600 q 126 550 135 573 q 118 499 118 526 q 191 425 118 425 l 204 425 q 251 600 213 524 q 354 722 290 677 q 505 766 419 766 q 715 667 640 766 q 790 398 790 569 q 789 362 790 379 q 788 333 788 345 l 323 333 m 506 669 q 381 609 430 669 q 323 425 331 549 l 676 425 q 506 669 671 669 z "},"ҿ":{"ha":855,"x_min":15,"x_max":790,"o":"m 323 333 q 385 145 326 204 q 528 85 444 85 q 619 100 581 85 q 696 140 656 115 l 754 65 q 654 7 713 31 q 527 -16 595 -16 q 298 80 382 -16 q 204 335 214 176 q 62 380 108 336 q 15 493 15 424 q 32 571 15 536 q 71 637 50 606 l 147 600 q 126 550 135 573 q 118 499 118 526 q 191 425 118 425 l 204 425 q 251 600 213 524 q 354 722 290 677 q 505 766 419 766 q 715 667 640 766 q 790 398 790 569 q 789 362 790 379 q 788 333 788 345 l 323 333 m 506 669 q 381 609 430 669 q 323 425 331 549 l 676 425 q 506 669 671 669 m 614 43 l 632 0 q 521 -60 559 -33 q 469 -113 483 -88 q 456 -163 456 -138 q 473 -213 456 -195 q 536 -231 491 -231 q 624 -222 575 -231 l 611 -317 q 569 -324 590 -321 q 521 -327 549 -327 q 394 -286 440 -327 q 348 -187 348 -246 q 411 -54 348 -112 q 614 43 474 3 z "},"ӏ":{"ha":855,"x_min":85,"x_max":717,"o":"m 435 1052 l 435 185 q 470 106 435 130 q 559 83 504 83 q 624 90 593 83 q 685 110 655 98 l 717 22 q 641 -5 687 7 q 539 -16 596 -16 q 377 39 439 -16 q 316 192 316 94 l 316 957 l 85 957 l 85 1052 l 435 1052 z "},"ӂ":{"ha":855,"x_min":28,"x_max":827,"o":"m 374 0 l 374 351 l 294 351 l 146 0 l 28 0 l 202 402 l 42 750 l 163 750 l 294 445 l 374 445 l 374 750 l 481 750 l 481 445 l 561 445 l 695 750 l 813 750 l 653 402 l 827 0 l 705 0 l 558 351 l 481 351 l 481 0 l 374 0 m 425 921 q 283 962 343 921 q 214 1082 223 1003 l 297 1100 q 343 1034 313 1053 q 425 1014 374 1014 q 508 1034 474 1014 q 556 1100 541 1053 l 639 1082 q 569 962 630 1003 q 425 921 507 921 z "},"ӄ":{"ha":855,"x_min":152,"x_max":699,"o":"m 152 0 l 152 750 l 272 750 l 272 428 l 368 428 l 570 750 l 699 750 l 487 427 q 640 360 585 418 q 695 194 695 302 l 695 -86 q 638 -247 695 -193 q 488 -301 580 -301 q 393 -285 432 -301 q 328 -249 353 -268 l 375 -171 q 423 -194 400 -185 q 483 -203 447 -203 q 550 -178 525 -203 q 575 -96 575 -154 l 575 178 q 540 298 575 264 q 421 331 504 331 l 272 331 l 272 0 l 152 0 z "},"ӆ":{"ha":855,"x_min":59,"x_max":793,"o":"m 793 94 l 699 -209 l 601 -209 l 650 0 l 563 0 l 563 650 l 325 650 l 308 452 q 285 249 298 328 q 249 121 271 170 q 193 43 226 73 q 110 -16 160 12 l 59 61 q 106 98 85 78 q 144 157 127 118 q 173 265 161 196 q 194 447 185 333 l 217 750 l 683 750 l 683 94 l 793 94 z "},"ӈ":{"ha":855,"x_min":143,"x_max":712,"o":"m 504 -301 q 409 -285 449 -301 q 344 -249 370 -268 l 391 -171 q 439 -194 416 -185 q 499 -203 463 -203 q 567 -178 541 -203 q 592 -96 592 -154 l 592 334 l 263 334 l 263 0 l 143 0 l 143 750 l 263 750 l 263 432 l 592 432 l 592 750 l 712 750 l 712 -86 q 655 -247 712 -193 q 504 -301 598 -301 z "},"ӊ":{"ha":855,"x_min":145,"x_max":798,"o":"m 568 0 l 568 334 l 265 334 l 265 0 l 145 0 l 145 750 l 265 750 l 265 432 l 568 432 l 568 750 l 687 750 l 687 94 l 798 94 l 703 -209 l 605 -209 l 655 0 l 568 0 z "},"ӌ":{"ha":855,"x_min":121,"x_max":697,"o":"m 476 98 l 577 98 l 577 328 q 473 267 535 290 q 341 244 411 244 q 177 302 232 244 q 121 465 121 360 l 121 750 l 241 750 l 241 479 q 273 371 241 404 q 371 339 305 339 q 484 362 425 339 q 577 424 543 385 l 577 750 l 697 750 l 697 0 l 596 0 l 575 -209 l 476 -209 l 476 98 z "},"ӎ":{"ha":855,"x_min":75,"x_max":850,"o":"m 850 94 l 756 -209 l 660 -209 l 709 0 l 639 0 l 610 367 q 603 493 605 427 q 605 645 602 558 l 476 126 l 358 126 l 213 645 q 215 501 217 573 q 210 369 214 429 l 189 0 l 75 0 l 127 750 l 286 750 l 420 238 l 541 750 l 700 750 l 748 94 l 850 94 z "},"ӑ":{"ha":855,"x_min":98,"x_max":741,"o":"m 680 164 q 695 98 680 118 q 741 68 710 77 l 712 -16 q 627 15 664 -10 q 575 89 591 39 q 473 10 534 37 q 340 -16 412 -16 q 162 47 227 -16 q 98 215 98 110 q 188 393 98 331 q 449 455 278 455 l 560 455 l 560 518 q 512 633 560 599 q 381 667 465 667 q 294 658 344 667 q 186 628 244 649 l 155 719 q 284 755 223 744 q 400 766 345 766 q 610 700 539 766 q 680 524 680 635 l 680 164 m 370 75 q 476 103 426 75 q 560 181 526 131 l 560 374 l 452 374 q 277 331 328 374 q 226 217 226 288 q 370 75 226 75 m 412 921 q 271 962 330 921 q 202 1082 211 1003 l 285 1100 q 331 1034 301 1053 q 412 1014 362 1014 q 496 1034 462 1014 q 544 1100 529 1053 l 627 1082 q 557 962 618 1003 q 412 921 495 921 z "},"ӓ":{"ha":855,"x_min":98,"x_max":741,"o":"m 680 164 q 695 98 680 118 q 741 68 710 77 l 712 -16 q 627 15 664 -10 q 575 89 591 39 q 473 10 534 37 q 340 -16 412 -16 q 162 47 227 -16 q 98 215 98 110 q 188 393 98 331 q 449 455 278 455 l 560 455 l 560 518 q 512 633 560 599 q 381 667 465 667 q 294 658 344 667 q 186 628 244 649 l 155 719 q 284 755 223 744 q 400 766 345 766 q 610 700 539 766 q 680 524 680 635 l 680 164 m 370 75 q 476 103 426 75 q 560 181 526 131 l 560 374 l 452 374 q 277 331 328 374 q 226 217 226 288 q 370 75 226 75 m 269 924 q 212 945 234 924 q 190 999 190 967 q 212 1054 190 1033 q 269 1076 234 1076 q 323 1054 301 1076 q 345 999 345 1033 q 323 945 345 967 q 269 924 301 924 m 562 924 q 507 945 529 924 q 485 999 485 967 q 507 1054 485 1033 q 562 1076 529 1076 q 618 1054 595 1076 q 640 999 640 1033 q 618 945 640 967 q 562 924 595 924 z "},"ӕ":{"ha":855,"x_min":-9,"x_max":864,"o":"m 619 766 q 806 667 747 766 q 864 398 864 569 q 861 331 864 359 l 478 331 q 526 144 488 204 q 639 84 563 84 q 713 99 680 84 q 780 140 745 114 l 835 58 q 745 4 793 25 q 637 -16 698 -16 q 510 17 562 -16 q 418 120 457 51 q 327 15 373 46 q 209 -16 280 -16 q 50 47 109 -16 q -9 215 -9 110 q 69 394 -9 332 q 297 457 147 457 l 361 457 l 361 518 q 327 631 361 596 q 231 666 293 666 q 162 657 194 666 q 83 627 130 647 l 51 718 q 148 753 98 740 q 243 766 197 766 q 369 732 325 766 q 432 641 412 698 q 501 732 454 699 q 619 766 548 766 m 615 667 q 519 613 551 667 q 478 425 487 559 l 747 425 q 717 605 745 543 q 615 667 689 667 m 361 374 l 301 374 q 160 332 199 374 q 120 222 120 291 q 149 113 120 150 q 226 76 178 76 q 309 110 274 76 q 379 209 344 144 q 366 288 370 247 q 361 374 361 330 z "},"ӗ":{"ha":855,"x_min":112,"x_max":744,"o":"m 237 333 q 306 143 242 202 q 457 83 370 83 q 561 100 514 83 q 657 151 607 118 l 713 72 q 593 7 661 31 q 455 -16 526 -16 q 269 33 345 -16 q 152 170 192 82 q 112 374 112 258 q 152 576 112 488 q 266 715 192 665 q 439 766 340 766 q 663 667 581 766 q 744 398 744 569 q 743 362 744 379 q 741 333 742 345 l 237 333 m 441 667 q 301 608 358 667 q 238 425 245 549 l 629 425 q 576 606 627 546 q 441 667 526 667 m 439 921 q 298 962 358 921 q 229 1082 238 1003 l 312 1100 q 358 1034 328 1053 q 439 1014 389 1014 q 523 1034 489 1014 q 571 1100 556 1053 l 654 1082 q 584 962 645 1003 q 439 921 522 921 z "},"ә":{"ha":855,"x_min":105,"x_max":749,"o":"m 416 766 q 606 718 533 766 q 714 582 679 670 q 749 375 749 494 q 660 88 749 192 q 418 -16 572 -16 q 189 82 273 -16 q 105 352 105 179 q 105 386 105 370 q 108 417 106 402 l 619 417 q 560 607 610 548 q 414 666 510 666 q 310 651 358 666 q 214 595 263 635 l 159 677 q 273 742 209 719 q 416 766 336 766 m 418 81 q 563 136 512 81 q 620 325 615 190 l 223 325 l 223 313 q 274 141 224 202 q 418 81 325 81 z "},"ӛ":{"ha":855,"x_min":105,"x_max":749,"o":"m 416 766 q 606 718 533 766 q 714 582 679 670 q 749 375 749 494 q 660 88 749 192 q 418 -16 572 -16 q 189 82 273 -16 q 105 352 105 179 q 105 386 105 370 q 108 417 106 402 l 619 417 q 560 607 610 548 q 414 666 510 666 q 310 651 358 666 q 214 595 263 635 l 159 677 q 273 742 209 719 q 416 766 336 766 m 418 81 q 563 136 512 81 q 620 325 615 190 l 223 325 l 223 313 q 274 141 224 202 q 418 81 325 81 m 279 924 q 223 945 245 924 q 201 999 201 967 q 223 1054 201 1033 q 279 1076 245 1076 q 334 1054 311 1076 q 356 999 356 1033 q 334 945 356 967 q 279 924 311 924 m 573 924 q 518 945 540 924 q 496 999 496 967 q 518 1054 496 1033 q 573 1076 540 1076 q 629 1054 606 1076 q 651 999 651 1033 q 629 945 651 967 q 573 924 606 924 z "},"ӝ":{"ha":855,"x_min":28,"x_max":827,"o":"m 374 0 l 374 351 l 294 351 l 146 0 l 28 0 l 202 402 l 42 750 l 163 750 l 294 445 l 374 445 l 374 750 l 481 750 l 481 445 l 561 445 l 695 750 l 813 750 l 653 402 l 827 0 l 705 0 l 558 351 l 481 351 l 481 0 l 374 0 m 280 924 q 224 945 246 924 q 202 999 202 967 q 224 1054 202 1033 q 280 1076 246 1076 q 334 1054 312 1076 q 357 999 357 1033 q 334 945 357 967 q 280 924 312 924 m 573 924 q 519 945 541 924 q 496 999 496 967 q 519 1054 496 1033 q 573 1076 541 1076 q 629 1054 607 1076 q 652 999 652 1033 q 629 945 652 967 q 573 924 607 924 z "},"ӟ":{"ha":855,"x_min":77,"x_max":736,"o":"m 273 441 l 408 441 q 527 472 484 441 q 571 553 571 504 q 524 642 571 613 q 392 670 477 670 q 274 653 335 670 q 162 603 213 636 l 105 675 q 240 741 161 717 q 397 766 318 766 q 547 743 479 766 q 655 676 615 721 q 694 562 694 630 q 651 459 694 499 q 543 400 608 419 q 638 374 594 395 q 709 315 682 353 q 736 224 736 278 q 692 92 736 145 q 571 11 647 38 q 396 -16 494 -16 q 208 15 286 -16 q 77 88 130 46 l 134 165 q 251 105 187 127 q 400 83 315 83 q 554 120 503 83 q 606 222 606 158 q 415 343 606 343 l 264 343 l 273 441 m 271 925 q 214 946 236 925 q 192 1000 192 967 q 214 1055 192 1033 q 271 1077 236 1077 q 325 1055 303 1077 q 348 1000 348 1033 q 325 946 348 967 q 271 925 303 925 m 564 925 q 509 946 531 925 q 487 1000 487 967 q 509 1055 487 1033 q 564 1077 531 1077 q 620 1055 598 1077 q 642 1000 642 1033 q 620 946 642 967 q 564 925 598 925 z "},"ӡ":{"ha":855,"x_min":88,"x_max":736,"o":"m 255 291 l 566 649 l 132 649 l 132 750 l 704 750 l 704 657 l 382 292 l 400 292 q 646 220 555 292 q 736 8 736 149 q 693 -155 736 -85 q 573 -264 650 -225 q 397 -302 496 -302 q 217 -270 290 -302 q 88 -173 143 -237 l 162 -108 q 264 -180 211 -157 q 395 -202 318 -202 q 551 -147 494 -202 q 607 13 607 -93 q 549 157 607 114 q 379 200 491 200 l 255 200 l 255 291 z "},"ӣ":{"ha":855,"x_min":143,"x_max":712,"o":"m 712 750 l 712 0 l 592 0 l 592 351 q 596 493 592 425 q 608 612 600 561 l 288 0 l 143 0 l 143 750 l 263 750 l 263 400 q 259 256 263 327 q 248 141 254 185 l 563 750 l 712 750 m 618 963 l 235 963 l 235 1054 l 618 1054 l 618 963 z "},"ӥ":{"ha":855,"x_min":143,"x_max":712,"o":"m 712 750 l 712 0 l 592 0 l 592 351 q 596 493 592 425 q 608 612 600 561 l 288 0 l 143 0 l 143 750 l 263 750 l 263 400 q 259 256 263 327 q 248 141 254 185 l 563 750 l 712 750 m 280 924 q 224 945 246 924 q 202 999 202 967 q 224 1054 202 1033 q 280 1076 246 1076 q 334 1054 312 1076 q 357 999 357 1033 q 334 945 357 967 q 280 924 312 924 m 573 924 q 519 945 541 924 q 496 999 496 967 q 519 1054 496 1033 q 573 1076 541 1076 q 629 1054 607 1076 q 652 999 652 1033 q 629 945 652 967 q 573 924 607 924 z "},"ӧ":{"ha":855,"x_min":105,"x_max":750,"o":"m 429 766 q 669 660 588 766 q 750 375 750 553 q 713 172 750 261 q 604 34 676 84 q 427 -16 532 -16 q 187 90 269 -16 q 105 374 105 197 q 142 578 105 489 q 251 716 179 667 q 429 766 323 766 m 429 668 q 282 596 332 668 q 233 374 233 524 q 282 153 233 225 q 427 82 330 82 q 573 154 524 82 q 622 375 622 226 q 573 597 622 525 q 429 668 525 668 m 280 924 q 224 945 246 924 q 202 999 202 967 q 224 1054 202 1033 q 280 1076 246 1076 q 334 1054 312 1076 q 357 999 357 1033 q 334 945 357 967 q 280 924 312 924 m 573 924 q 519 945 541 924 q 496 999 496 967 q 519 1054 496 1033 q 573 1076 541 1076 q 629 1054 607 1076 q 652 999 652 1033 q 629 945 652 967 q 573 924 607 924 z "},"ө":{"ha":855,"x_min":105,"x_max":750,"o":"m 429 766 q 669 660 588 766 q 750 375 750 553 q 713 172 750 261 q 604 34 676 84 q 427 -16 532 -16 q 187 90 269 -16 q 105 374 105 197 q 142 578 105 489 q 251 716 179 667 q 429 766 323 766 m 429 667 q 236 429 248 667 l 619 429 q 429 667 607 667 m 619 334 l 236 334 q 292 142 244 203 q 427 82 339 82 q 562 142 514 82 q 619 334 610 203 z "},"ӫ":{"ha":855,"x_min":105,"x_max":750,"o":"m 429 766 q 669 660 588 766 q 750 375 750 553 q 713 172 750 261 q 604 34 676 84 q 427 -16 532 -16 q 187 90 269 -16 q 105 374 105 197 q 142 578 105 489 q 251 716 179 667 q 429 766 323 766 m 429 667 q 236 429 248 667 l 619 429 q 429 667 607 667 m 619 334 l 236 334 q 292 142 244 203 q 427 82 339 82 q 562 142 514 82 q 619 334 610 203 m 281 924 q 225 945 247 924 q 203 999 203 967 q 225 1054 203 1033 q 281 1076 247 1076 q 336 1054 313 1076 q 358 999 358 1033 q 336 945 358 967 q 281 924 313 924 m 575 924 q 520 945 542 924 q 498 999 498 967 q 520 1054 498 1033 q 575 1076 542 1076 q 631 1054 608 1076 q 653 999 653 1033 q 631 945 653 967 q 575 924 608 924 z "}}}
